<svg version="1.1" id="Layer_1" xmlns="http://www.w3.org/2000/svg" xmlns:xlink="http://www.w3.org/1999/xlink" x="0px" y="0px"
	 width="100%" viewBox="0 0 600 539" enable-background="new 0 0 600 539" xml:space="preserve">
<path fill="red" opacity="0" stroke="none" 
	d="
M1.000001,526.000000 
	C1.000000,351.094910 1.000000,176.189819 1.000000,1.000000 
	C90.023125,1.000000 179.046555,1.000000 268.842682,1.359507 
	C269.110931,2.127159 268.657928,2.792889 268.094421,2.905533 
	C256.074646,5.308185 243.876572,7.028600 232.062851,10.188840 
	C221.781082,12.939279 211.930695,17.302261 201.507309,20.974981 
	C198.434875,22.007526 195.619263,22.773169 193.079742,24.076696 
	C186.968887,27.213390 180.987350,30.602074 174.587402,33.942924 
	C168.798508,37.295002 163.375854,40.593262 157.594040,43.944595 
	C151.807968,47.961643 146.381042,51.925625 140.599457,55.942913 
	C136.460876,58.981083 132.676956,61.965946 128.580154,65.078217 
	C124.809143,68.453896 121.351013,71.702164 117.578407,75.079765 
	C112.471123,79.791885 107.678307,84.374664 102.571045,89.085922 
	C99.488716,92.440033 96.720833,95.665680 93.632675,99.027649 
	C90.170204,103.094925 87.027985,107.025894 83.572159,111.099533 
	C80.201408,115.725578 77.144272,120.208954 73.815567,124.842926 
	C71.658134,127.647911 69.772247,130.302292 67.569153,133.101746 
	C65.798859,135.814896 64.345764,138.382996 62.572620,141.098663 
	C59.796993,145.816574 57.341419,150.386948 54.565742,155.105865 
	C51.196301,161.393188 48.146965,167.531937 44.807255,173.842484 
	C42.897995,178.044006 41.279110,182.073746 39.360512,186.363617 
	C36.762604,192.750275 34.464409,198.876816 32.087807,205.388489 
	C29.728544,213.850189 27.447687,221.926743 24.994543,230.362625 
	C24.329542,232.214020 23.646521,233.672455 23.375837,235.203781 
	C21.916355,243.460526 20.559183,251.735367 19.085613,260.419067 
	C18.681423,261.566223 18.111780,262.285187 18.071983,263.032349 
	C17.397934,275.687714 16.789719,288.346588 16.092438,301.467499 
	C16.345264,310.814850 16.404169,319.720367 17.098167,328.576172 
	C17.531315,334.103333 18.922863,339.555450 19.939571,345.472565 
	C22.385405,356.269653 24.775995,366.635406 27.090462,377.397339 
	C29.065094,383.862488 31.115850,389.931458 33.196522,396.373047 
	C37.445206,405.843536 41.663971,414.941376 45.940788,424.409668 
	C64.270340,461.918915 91.087242,492.004700 122.454819,517.979126 
	C118.252678,518.330444 114.508675,518.823364 110.751114,518.971008 
	C92.259140,519.697693 73.762772,520.311401 55.269688,521.010864 
	C48.184971,521.278809 41.094658,521.530457 34.026306,522.052490 
	C29.488773,522.387573 24.992290,523.249451 20.467348,523.791138 
	C13.983047,524.567627 7.489565,525.267456 1.000001,526.000000 
z"/>
<path fill="green" opacity="0" stroke="none" 
	d="
M333.000000,0.999997 
	C422.284851,1.000000 511.569702,1.000000 601.000000,1.000000 
	C601.000000,175.689957 601.000000,350.379944 600.659546,525.870117 
	C584.309998,524.780212 568.329651,522.578491 552.282715,521.099548 
	C539.668091,519.937073 526.975586,519.560852 514.309509,519.031616 
	C502.578064,518.541504 490.835724,518.311584 479.155884,517.624878 
	C484.276245,513.219788 489.631683,509.468597 494.348511,505.037659 
	C510.520508,489.845886 525.872253,473.831299 538.093384,455.223114 
	C544.673401,445.204254 550.145203,434.457581 556.445801,423.892334 
	C560.794128,414.497070 564.813782,405.248718 568.997070,395.650024 
	C571.051697,389.200195 572.942566,383.100739 575.000977,376.646790 
	C577.484314,365.875275 579.800049,355.458191 582.480286,344.842499 
	C582.904602,343.150696 582.924744,341.654663 583.030457,340.164703 
	C583.955994,327.110718 584.896790,314.057861 585.912231,300.541809 
	C585.660034,290.851746 585.500732,281.613678 584.919495,272.402252 
	C584.657043,268.242157 583.554688,264.135071 582.911743,259.577148 
	C580.937805,249.434662 578.885498,239.718964 576.910828,229.598785 
	C574.603577,221.130630 572.218689,213.066956 569.800537,204.627869 
	C567.288269,198.201263 564.809265,192.150116 562.179993,185.782959 
	C560.325989,181.545563 558.622253,177.624161 556.941650,173.300751 
	C553.681213,166.918198 550.397583,160.937668 547.060425,154.589813 
	C544.374512,149.799454 541.742188,145.376419 538.971680,140.627167 
	C537.259033,137.851822 535.684631,135.402725 533.974121,132.630310 
	C531.864075,129.770950 529.890137,127.234917 527.940247,124.309669 
	C524.680847,119.599197 521.397461,115.277946 517.981812,110.639511 
	C514.580994,106.510712 511.312317,102.699097 507.921509,98.577507 
	C504.902832,95.162735 502.006226,92.057945 498.981232,88.640564 
	C493.938568,83.869705 489.024323,79.411423 483.980804,74.639725 
	C480.270996,71.202026 476.690491,68.077751 472.973389,64.632721 
	C468.907562,61.505680 464.978302,58.699398 460.919800,55.576607 
	C455.207733,51.468822 449.624908,47.677551 443.906982,43.563965 
	C438.197693,40.125290 432.623596,37.008934 426.911255,33.568035 
	C417.884491,29.145687 408.995941,25.047878 399.941101,20.616661 
	C378.927460,11.670614 357.404297,5.601701 334.961029,2.924743 
	C334.241089,2.838866 333.650757,1.666090 333.000000,0.999997 
z"/>
<path fill="#CEE5ED" opacity="1.000000" stroke="none" 
	d="
M479.098206,517.967163 
	C490.835724,518.311584 502.578064,518.541504 514.309509,519.031616 
	C526.975586,519.560852 539.668091,519.937073 552.282715,521.099548 
	C568.329651,522.578491 584.309998,524.780212 600.659546,526.335205 
	C601.000000,527.066711 601.000000,528.133362 600.580994,529.600220 
	C586.785461,531.666870 573.439697,533.666870 560.023438,534.901611 
	C547.750549,536.031067 535.408325,536.541016 523.084229,536.948303 
	C506.706970,537.489624 490.317566,537.662354 473.933685,538.006958 
	C472.453644,538.038086 470.962097,538.086548 469.509583,538.328857 
	C469.253906,538.371521 469.165588,539.417419 469.000000,540.000000 
	C357.312439,540.000000 245.624878,540.000000 133.779388,539.622314 
	C132.608871,538.830322 131.608337,538.089844 130.581863,538.051880 
	C119.367142,537.638062 108.144836,537.423279 96.931602,536.977722 
	C82.465965,536.402954 67.982094,535.996460 53.550999,534.916992 
	C36.009552,533.604858 18.514896,531.667114 0.999999,530.000000 
	C1.000000,528.933289 1.000000,527.866638 1.000001,526.399963 
	C7.489565,525.267456 13.983047,524.567627 20.467348,523.791138 
	C24.992290,523.249451 29.488773,522.387573 34.026306,522.052490 
	C41.094658,521.530457 48.184971,521.278809 55.269688,521.010864 
	C73.762772,520.311401 92.259140,519.697693 110.751114,518.971008 
	C114.508675,518.823364 118.252678,518.330444 122.782654,518.116699 
	C124.697113,518.515381 125.831848,518.794006 127.035629,519.401245 
	C131.775818,524.957886 137.298157,527.160828 144.612289,527.145996 
	C249.768860,526.932495 354.926025,526.970520 460.082916,527.069336 
	C466.763092,527.075623 471.303619,524.063538 475.372864,518.996094 
	C476.848816,518.622070 477.973511,518.294617 479.098206,517.967163 
z"/>
<path fill="#91CCF3" opacity="1.000000" stroke="none" 
	d="
M332.531342,0.999997 
	C333.650757,1.666090 334.241089,2.838866 334.961029,2.924743 
	C357.404297,5.601701 378.927460,11.670614 399.550781,20.786453 
	C397.535828,21.526430 395.744904,21.969151 393.953735,21.970184 
	C332.033203,22.005941 270.112640,22.010271 208.192108,21.955902 
	C206.091003,21.954058 203.990479,21.301775 201.889679,20.952673 
	C211.930695,17.302261 221.781082,12.939279 232.062851,10.188840 
	C243.876572,7.028600 256.074646,5.308185 268.094421,2.905533 
	C268.657928,2.792889 269.110931,2.127159 269.307678,1.359507 
	C290.020905,1.000000 311.041779,1.000000 332.531342,0.999997 
z"/>
<path fill="#000000" opacity="0" stroke="none" 
	d="
M0.999999,530.486572 
	C18.514896,531.667114 36.009552,533.604858 53.550999,534.916992 
	C67.982094,535.996460 82.465965,536.402954 96.931602,536.977722 
	C108.144836,537.423279 119.367142,537.638062 130.581863,538.051880 
	C131.608337,538.089844 132.608871,538.830322 133.310730,539.622314 
	C88.999992,540.000000 44.999985,540.000000 1.000000,540.000000 
	C1.000000,536.953064 1.000000,533.963135 0.999999,530.486572 
z"/>
<path fill="#000000" opacity="0" stroke="none" 
	d="
M469.468658,540.000000 
	C469.165588,539.417419 469.253906,538.371521 469.509583,538.328857 
	C470.962097,538.086548 472.453644,538.038086 473.933685,538.006958 
	C490.317566,537.662354 506.706970,537.489624 523.084229,536.948303 
	C535.408325,536.541016 547.750549,536.031067 560.023438,534.901611 
	C573.439697,533.666870 586.785461,531.666870 600.580994,530.000244 
	C601.000000,533.323059 601.000000,536.646057 601.000000,540.000000 
	C557.312439,540.000000 513.624878,540.000000 469.468658,540.000000 
z"/>
<path fill="#FDFEFF" opacity="1.000000" stroke="none" 
	d="
M126.966583,519.072571 
	C125.831848,518.794006 124.697113,518.515381 123.234543,518.099243 
	C91.087242,492.004700 64.270340,461.918915 46.416782,424.398529 
	C75.655739,424.011292 104.476738,423.998932 133.297745,424.001099 
	C274.237518,424.011688 415.177277,424.026215 556.117065,424.039307 
	C550.145203,434.457581 544.673401,445.204254 538.093384,455.223114 
	C525.872253,473.831299 510.520508,489.845886 494.348511,505.037659 
	C489.631683,509.468597 484.276245,513.219788 479.155884,517.624878 
	C477.973511,518.294617 476.848816,518.622070 474.913330,518.981323 
	C469.812317,518.677307 465.527161,518.153076 461.231079,518.039307 
	C445.447449,517.620972 429.661591,517.213562 413.873962,517.031128 
	C378.427368,516.621582 342.979645,516.262512 307.531342,516.078308 
	C297.908478,516.028320 288.284180,516.850525 278.656769,516.970703 
	C245.378754,517.386169 212.098343,517.608582 178.820358,518.026245 
	C161.534119,518.243225 144.251068,518.715576 126.966583,519.072571 
z"/>
<path fill="#E9F5FD" opacity="1.000000" stroke="none" 
	d="
M585.833008,301.004639 
	C584.896790,314.057861 583.955994,327.110718 583.030457,340.164703 
	C582.924744,341.654663 582.904602,343.150696 582.004395,344.830811 
	C501.028809,345.011810 420.893555,344.997742 340.758301,345.001984 
	C233.800308,345.007660 126.842316,345.027496 19.884325,345.041229 
	C18.922863,339.555450 17.531315,334.103333 17.098167,328.576172 
	C16.404169,319.720367 16.345264,310.814850 16.550480,301.466064 
	C206.666382,301.002747 396.249725,301.003693 585.833008,301.004639 
z"/>
<path fill="#DEF0FC" opacity="1.000000" stroke="none" 
	d="
M585.912231,300.541809 
	C396.249725,301.003693 206.666382,301.002747 16.624992,301.003235 
	C16.789719,288.346588 17.397934,275.687714 18.071983,263.032349 
	C18.111780,262.285187 18.681423,261.566223 19.543659,260.417847 
	C207.666321,260.002319 395.249817,260.003113 582.833374,260.003937 
	C583.554688,264.135071 584.657043,268.242157 584.919495,272.402252 
	C585.500732,281.613678 585.660034,290.851746 585.912231,300.541809 
z"/>
<path fill="#F1F8FD" opacity="1.000000" stroke="none" 
	d="
M19.939571,345.472565 
	C126.842316,345.027496 233.800308,345.007660 340.758301,345.001984 
	C420.893555,344.997742 501.028809,345.011810 581.639893,345.029419 
	C579.800049,355.458191 577.484314,365.875275 574.542908,376.646301 
	C391.667023,377.000549 209.416809,377.000854 27.166584,377.001160 
	C24.775995,366.635406 22.385405,356.269653 19.939571,345.472565 
z"/>
<path fill="#D6ECFB" opacity="1.000000" stroke="none" 
	d="
M582.911743,259.577148 
	C395.249817,260.003113 207.666321,260.002319 19.624767,260.002747 
	C20.559183,251.735367 21.916355,243.460526 23.375837,235.203781 
	C23.646521,233.672455 24.329542,232.214020 25.452576,230.361633 
	C209.666321,230.001953 393.249756,230.002609 576.833191,230.003265 
	C578.885498,239.718964 580.937805,249.434662 582.911743,259.577148 
z"/>
<path fill="#F7FBFE" opacity="1.000000" stroke="none" 
	d="
M556.445801,423.892334 
	C415.177277,424.026215 274.237518,424.011688 133.297745,424.001099 
	C104.476738,423.998932 75.655739,424.011292 46.358734,424.028076 
	C41.663971,414.941376 37.445206,405.843536 33.599426,396.306854 
	C36.093433,395.578644 38.214394,395.036438 40.335476,395.035980 
	C214.050812,394.996887 387.766174,394.995911 561.481506,395.041534 
	C563.932190,395.042175 566.382751,395.666901 568.833374,396.000366 
	C564.813782,405.248718 560.794128,414.497070 556.445801,423.892334 
z"/>
<path fill="#CFE9FA" opacity="1.000000" stroke="none" 
	d="
M576.910828,229.598785 
	C393.249756,230.002609 209.666321,230.001953 25.624861,230.002289 
	C27.447687,221.926743 29.728544,213.850189 32.545868,205.387482 
	C211.999496,205.001984 390.916656,205.002640 569.833801,205.003296 
	C572.218689,213.066956 574.603577,221.130630 576.910828,229.598785 
z"/>
<path fill="#F5FAFE" opacity="1.000000" stroke="none" 
	d="
M568.997070,395.650024 
	C566.382751,395.666901 563.932190,395.042175 561.481506,395.041534 
	C387.766174,394.995911 214.050812,394.996887 40.335476,395.035980 
	C38.214394,395.036438 36.093433,395.578644 33.569511,395.934204 
	C31.115850,389.931458 29.065094,383.862488 27.090462,377.397339 
	C209.416809,377.000854 391.667023,377.000549 574.375366,377.000763 
	C572.942566,383.100739 571.051697,389.200195 568.997070,395.650024 
z"/>
<path fill="#C1E2F8" opacity="1.000000" stroke="none" 
	d="
M547.113953,154.957153 
	C550.397583,160.937668 553.681213,166.918198 556.416504,173.370911 
	C553.870605,173.895370 551.873169,173.993362 549.875671,173.993454 
	C383.942596,174.000504 218.009521,174.001312 52.076454,173.986313 
	C49.750172,173.986099 47.423901,173.780472 45.097626,173.670715 
	C48.146965,167.531937 51.196301,161.393188 55.041565,155.118073 
	C98.651352,154.987808 141.465210,155.001953 184.279068,154.998459 
	C305.224030,154.988556 426.168976,154.971436 547.113953,154.957153 
z"/>
<path fill="#C9E6F9" opacity="1.000000" stroke="none" 
	d="
M569.800537,204.627869 
	C390.916656,205.002640 211.999496,205.001984 32.624275,205.002335 
	C34.464409,198.876816 36.762604,192.750275 39.586647,186.776993 
	C42.509235,187.286835 44.905880,187.954880 47.302723,187.955566 
	C216.413254,188.004410 385.523804,188.000061 554.634338,187.999084 
	C556.133789,187.999069 557.686096,188.222153 559.115906,187.902924 
	C560.264343,187.646515 561.264404,186.725204 562.330261,186.098938 
	C564.809265,192.150116 567.288269,198.201263 569.800537,204.627869 
z"/>
<path fill="#C6E4F9" opacity="1.000000" stroke="none" 
	d="
M562.179993,185.782959 
	C561.264404,186.725204 560.264343,187.646515 559.115906,187.902924 
	C557.686096,188.222153 556.133789,187.999069 554.634338,187.999084 
	C385.523804,188.000061 216.413254,188.004410 47.302723,187.955566 
	C44.905880,187.954880 42.509235,187.286835 39.886364,186.516861 
	C41.279110,182.073746 42.897995,178.044006 44.807251,173.842499 
	C47.423901,173.780472 49.750172,173.986099 52.076454,173.986313 
	C218.009521,174.001312 383.942596,174.000504 549.875671,173.993454 
	C551.873169,173.993362 553.870605,173.895370 556.393311,173.772919 
	C558.622253,177.624161 560.325989,181.545563 562.179993,185.782959 
z"/>
<path fill="#BCDFF8" opacity="1.000000" stroke="none" 
	d="
M547.060425,154.589813 
	C426.168976,154.971436 305.224030,154.988556 184.279068,154.998459 
	C141.465210,155.001953 98.651352,154.987808 55.361671,154.969513 
	C57.341419,150.386948 59.796993,145.816574 62.962959,141.268188 
	C65.465813,141.526764 67.258232,141.970200 69.050743,141.970581 
	C223.634613,142.002396 378.218475,142.004150 532.802368,141.956558 
	C534.904968,141.955917 537.007385,141.302261 539.109863,140.953400 
	C541.742188,145.376419 544.374512,149.799454 547.060425,154.589813 
z"/>
<path fill="#B3DBF7" opacity="1.000000" stroke="none" 
	d="
M518.114014,110.956688 
	C521.397461,115.277946 524.680847,119.599197 527.415100,124.380966 
	C524.868530,124.894310 522.871216,124.993279 520.873840,124.993378 
	C374.271912,125.000587 227.670013,125.001366 81.068100,124.987152 
	C78.741104,124.986923 76.414124,124.794861 74.087128,124.692322 
	C77.144272,120.208954 80.201408,115.725578 84.048004,111.111862 
	C229.262985,110.973236 373.688507,110.964966 518.114014,110.956688 
z"/>
<path fill="#A8D6F6" opacity="1.000000" stroke="none" 
	d="
M484.110107,74.953140 
	C489.024323,79.411423 493.938568,83.869705 498.590454,88.809326 
	C496.535706,89.527100 494.743408,89.970085 492.950958,89.970535 
	C365.032074,90.002884 237.113190,90.004967 109.194321,89.956627 
	C107.091255,89.955833 104.988434,89.304962 102.885498,88.957443 
	C107.678307,84.374664 112.471123,79.791885 117.968689,75.249496 
	C120.465538,75.526588 122.257584,75.969978 124.049751,75.970474 
	C241.967743,76.003136 359.885742,76.005424 477.803711,75.956421 
	C479.905975,75.955544 482.007996,75.302094 484.110107,74.953140 
z"/>
<path fill="#AFD9F7" opacity="1.000000" stroke="none" 
	d="
M517.981812,110.639511 
	C373.688507,110.964966 229.262985,110.973236 84.361618,110.969185 
	C87.027985,107.025894 90.170204,103.094925 93.924171,99.334480 
	C96.006058,99.669998 97.476173,99.979248 98.946327,99.979492 
	C233.597397,100.001572 368.248474,100.004128 502.899506,99.953850 
	C504.614349,99.953209 506.328949,99.258324 508.043640,98.887482 
	C511.312317,102.699097 514.580994,106.510712 517.981812,110.639511 
z"/>
<path fill="#B7DDF7" opacity="1.000000" stroke="none" 
	d="
M73.815575,124.842926 
	C76.414124,124.794861 78.741104,124.986923 81.068100,124.987152 
	C227.670013,125.001366 374.271912,125.000587 520.873840,124.993378 
	C522.871216,124.993279 524.868530,124.894310 527.391052,124.770187 
	C529.890137,127.234917 531.864075,129.770950 533.583252,132.798859 
	C531.535889,133.527161 529.743347,133.970215 527.950745,133.970596 
	C376.698975,134.002441 225.447205,134.004242 74.195442,133.956696 
	C72.092308,133.956039 69.989388,133.304459 67.886368,132.956680 
	C69.772247,130.302292 71.658134,127.647911 73.815575,124.842926 
z"/>
<path fill="#ACD8F6" opacity="1.000000" stroke="none" 
	d="
M507.921509,98.577515 
	C506.328949,99.258324 504.614349,99.953209 502.899506,99.953850 
	C368.248474,100.004128 233.597397,100.001572 98.946327,99.979492 
	C97.476173,99.979248 96.006058,99.669998 94.244431,99.198166 
	C96.720833,95.665680 99.488716,92.440033 102.571053,89.085922 
	C104.988434,89.304962 107.091255,89.955833 109.194321,89.956627 
	C237.113190,90.004967 365.032074,90.002884 492.950958,89.970535 
	C494.743408,89.970085 496.535706,89.527100 498.718872,89.121902 
	C502.006226,92.057945 504.902832,95.162735 507.921509,98.577515 
z"/>
<path fill="#B9DEF8" opacity="1.000000" stroke="none" 
	d="
M67.569160,133.101746 
	C69.989388,133.304459 72.092308,133.956039 74.195442,133.956696 
	C225.447205,134.004242 376.698975,134.002441 527.950745,133.970596 
	C529.743347,133.970215 531.535889,133.527161 533.719299,133.122192 
	C535.684631,135.402725 537.259033,137.851822 538.971680,140.627167 
	C537.007385,141.302261 534.904968,141.955917 532.802368,141.956558 
	C378.218475,142.004150 223.634613,142.002396 69.050743,141.970581 
	C67.258232,141.970200 65.465813,141.526764 63.283012,141.120621 
	C64.345764,138.382996 65.798859,135.814896 67.569160,133.101746 
z"/>
<path fill="#9DD1F5" opacity="1.000000" stroke="none" 
	d="
M444.042114,43.886276 
	C449.624908,47.677551 455.207733,51.468822 460.627655,55.882931 
	C458.994598,56.670509 457.524475,56.979141 456.054260,56.979462 
	C352.736084,57.002033 249.417908,57.005352 146.099762,56.953804 
	C144.384354,56.952950 142.669327,56.259731 140.954117,55.889603 
	C146.381042,51.925625 151.807968,47.961643 157.885529,44.251442 
	C160.006226,44.670143 161.476273,44.979057 162.946365,44.979424 
	C254.930710,45.002296 346.915070,45.006031 438.899384,44.953594 
	C440.613831,44.952618 442.327881,44.257507 444.042114,43.886276 
z"/>
<path fill="#A3D4F5" opacity="1.000000" stroke="none" 
	d="
M483.980804,74.639725 
	C482.007996,75.302094 479.905975,75.955544 477.803711,75.956421 
	C359.885742,76.005424 241.967743,76.003136 124.049751,75.970474 
	C122.257584,75.969978 120.465538,75.526588 118.283157,75.120163 
	C121.351013,71.702164 124.809143,68.453896 128.970459,65.247864 
	C131.465683,65.526741 133.257675,65.969940 135.049805,65.970474 
	C245.634445,66.003342 356.219116,66.005783 466.803741,65.956390 
	C468.905945,65.955452 471.007904,65.302330 473.109955,64.953491 
	C476.690491,68.077751 480.270996,71.202026 483.980804,74.639725 
z"/>
<path fill="#95CEF4" opacity="1.000000" stroke="none" 
	d="
M201.507309,20.974977 
	C203.990479,21.301775 206.091003,21.954058 208.192108,21.955902 
	C270.112640,22.010271 332.033203,22.005941 393.953735,21.970184 
	C395.744904,21.969151 397.535828,21.526430 399.717133,21.119862 
	C408.995941,25.047878 417.884491,29.145687 426.619080,33.874416 
	C424.995026,34.670174 423.524933,34.978828 422.054810,34.979248 
	C341.402863,35.002464 260.750916,35.006710 180.098984,34.953491 
	C178.383636,34.952358 176.668762,34.259350 174.953659,33.889107 
	C180.987350,30.602074 186.968887,27.213390 193.079742,24.076696 
	C195.619263,22.773169 198.434875,22.007526 201.507309,20.974977 
z"/>
<path fill="#A1D3F5" opacity="1.000000" stroke="none" 
	d="
M472.973389,64.632729 
	C471.007904,65.302330 468.905945,65.955452 466.803741,65.956390 
	C356.219116,66.005783 245.634445,66.003342 135.049805,65.970474 
	C133.257675,65.969940 131.465683,65.526741 129.283325,65.120453 
	C132.676956,61.965946 136.460876,58.981083 140.599457,55.942913 
	C142.669327,56.259731 144.384354,56.952950 146.099762,56.953804 
	C249.417908,57.005352 352.736084,57.002033 456.054260,56.979462 
	C457.524475,56.979141 458.994598,56.670509 460.756897,56.199448 
	C464.978302,58.699398 468.907562,61.505680 472.973389,64.632729 
z"/>
<path fill="#99CFF4" opacity="1.000000" stroke="none" 
	d="
M174.587402,33.942924 
	C176.668762,34.259350 178.383636,34.952358 180.098984,34.953491 
	C260.750916,35.006710 341.402863,35.002464 422.054810,34.979248 
	C423.524933,34.978828 424.995026,34.670174 426.757294,34.198956 
	C432.623596,37.008934 438.197693,40.125290 443.906982,43.563957 
	C442.327881,44.257507 440.613831,44.952618 438.899384,44.953594 
	C346.915070,45.006031 254.930710,45.002296 162.946365,44.979424 
	C161.476273,44.979057 160.006226,44.670143 158.244690,44.198372 
	C163.375854,40.593262 168.798508,37.295002 174.587402,33.942924 
z"/>
<path fill="#DFEEF3" opacity="1.000000" stroke="none" 
	d="
M127.035629,519.401245 
	C144.251068,518.715576 161.534119,518.243225 178.820358,518.026245 
	C212.098343,517.608582 245.378754,517.386169 278.656769,516.970703 
	C288.284180,516.850525 297.908478,516.028320 307.531342,516.078308 
	C342.979645,516.262512 378.427368,516.621582 413.873962,517.031128 
	C429.661591,517.213562 445.447449,517.620972 461.231079,518.039307 
	C465.527161,518.153076 469.812317,518.677307 474.562073,519.027954 
	C471.303619,524.063538 466.763092,527.075623 460.082916,527.069336 
	C354.926025,526.970520 249.768860,526.932495 144.612289,527.145996 
	C137.298157,527.160828 131.775818,524.957886 127.035629,519.401245 
z"/>
</svg>