<svg clip-rule="evenodd" fill-rule="evenodd" height="512" stroke-linejoin="round" stroke-miterlimit="2" viewBox="0 0 48 48" width="512" xmlns="http://www.w3.org/2000/svg" xmlns:xlink="http://www.w3.org/1999/xlink"><linearGradient id="_Linear1" gradientTransform="matrix(48 48 -48 48 432 0)" gradientUnits="userSpaceOnUse" x1="0" x2="1" y1="0" y2="0"><stop offset="0" stop-color="#5ef0ff"/><stop offset="1" stop-color="#2b8bae"/></linearGradient><g transform="translate(-432)"><g id="SOLID-GRADIENT"><path d="m444.52 12.724c-.085.169-.258.276-.447.276h-7.573c-.663 0-1.299.263-1.768.732s-.732 1.105-.732 1.768v23c0 .663.263 1.299.732 1.768s1.105.732 1.768.732h39c.663 0 1.299-.263 1.768-.732s.732-1.105.732-1.768c0-4.59 0-18.41 0-23 0-.663-.263-1.299-.732-1.768s-1.105-.732-1.768-.732h-7.573c-.189 0-.362-.107-.447-.276l-2.171-4.342c-.423-.847-1.289-1.382-2.236-1.382h-14.146c-.947 0-1.813.535-2.236 1.382zm11.48 3.276c5.243 0 9.5 4.257 9.5 9.5s-4.257 9.5-9.5 9.5-9.5-4.257-9.5-9.5 4.257-9.5 9.5-9.5zm0 1.5c-4.415 0-8 3.585-8 8s3.585 8 8 8 8-3.585 8-8-3.585-8-8-8z" fill="url(#_Linear1)"/></g></g></svg>