<svg clip-rule="evenodd" fill-rule="evenodd" height="512" stroke-linejoin="round" stroke-miterlimit="2" viewBox="0 0 48 48" width="512" xmlns="http://www.w3.org/2000/svg" xmlns:xlink="http://www.w3.org/1999/xlink"><linearGradient id="_Linear1" gradientTransform="matrix(48 48 -48 48 504 648)" gradientUnits="userSpaceOnUse" x1="0" x2="1" y1="0" y2="0"><stop offset="0" stop-color="#5ef0ff"/><stop offset="1" stop-color="#2b8bae"/></linearGradient><g transform="translate(-504 -648)"><g id="SOLID-GRADIENT"><path d="m520.897 666c1.297-1.271 2.103-3.042 2.103-5 0-3.863-3.137-7-7-7s-7 3.137-7 7c0 1.958.806 3.729 2.103 5h-2.603c-1.381 0-2.5 1.119-2.5 2.5v19c0 1.381 1.119 2.5 2.5 2.5h31c1.381 0 2.5-1.119 2.5-2.5v-2.5l4 3c.758.568 1.771.66 2.618.236.847-.423 1.382-1.289 1.382-2.236v-16c0-.947-.535-1.813-1.382-2.236-.847-.424-1.86-.332-2.618.236l-4 3v-2.5c0-1.381-1.119-2.5-2.5-2.5h-2.603c1.297-1.271 2.103-3.042 2.103-5 0-3.863-3.137-7-7-7s-7 3.137-7 7c0 1.958.806 3.729 2.103 5z" fill="url(#_Linear1)"/></g></g></svg>