<svg clip-rule="evenodd" fill-rule="evenodd" height="512" stroke-linejoin="round" stroke-miterlimit="2" viewBox="0 0 48 48" width="512" xmlns="http://www.w3.org/2000/svg" xmlns:xlink="http://www.w3.org/1999/xlink"><linearGradient id="_Linear1" gradientTransform="matrix(48 48 -48 48 289 288)" gradientUnits="userSpaceOnUse" x1="0" x2="1" y1="0" y2="0"><stop offset="0" stop-color="#5ef0ff"/><stop offset="1" stop-color="#2b8bae"/></linearGradient><g transform="translate(-288 -288)"><g id="SOLID-GRADIENT"><path d="m305.051 292h-6.551c-.663 0-1.299.263-1.768.732s-.732 1.105-.732 1.768v37c0 .663.263 1.299.732 1.768s1.105.732 1.768.732h27c.663 0 1.299-.263 1.768-.732s.732-1.105.732-1.768c0-6.313 0-30.687 0-37 0-.663-.263-1.299-.732-1.768s-1.105-.732-1.768-.732h-6.551c-.097-.477-.332-.919-.681-1.268-.469-.469-1.105-.732-1.768-.732h-9c-.663 0-1.299.263-1.768.732-.349.349-.584.791-.681 1.268zm-4.758 30.707 2 2c.218.218.524.323.829.286.306-.038.577-.214.735-.479l3-5c.284-.473.131-1.088-.343-1.371-.473-.284-1.088-.131-1.371.343l-2.342 3.901s-1.094-1.094-1.094-1.094c-.39-.39-1.024-.39-1.414 0s-.39 1.024 0 1.414zm9.707 2.293h13c.552 0 1-.448 1-1s-.448-1-1-1h-13c-.552 0-1 .448-1 1s.448 1 1 1zm0-4h13c.552 0 1-.448 1-1s-.448-1-1-1h-13c-.552 0-1 .448-1 1s.448 1 1 1zm-9.707-7.293 2 2c.218.218.524.323.829.286.306-.038.577-.214.735-.479l3-5c.284-.473.131-1.088-.343-1.371-.473-.284-1.088-.131-1.371.343l-2.342 3.901s-1.094-1.094-1.094-1.094c-.39-.39-1.024-.39-1.414 0s-.39 1.024 0 1.414zm9.707 2.293h13c.552 0 1-.448 1-1s-.448-1-1-1h-13c-.552 0-1 .448-1 1s.448 1 1 1zm0-4h13c.552 0 1-.448 1-1s-.448-1-1-1h-13c-.552 0-1 .448-1 1s.448 1 1 1zm-9.707-7.293 2 2c.218.218.524.323.829.286.306-.038.577-.214.735-.479l3-5c.284-.473.131-1.088-.343-1.371-.473-.284-1.088-.131-1.371.343l-2.342 3.901s-1.094-1.094-1.094-1.094c-.39-.39-1.024-.39-1.414 0s-.39 1.024 0 1.414zm9.707 2.293h13c.552 0 1-.448 1-1s-.448-1-1-1h-13c-.552 0-1 .448-1 1s.448 1 1 1zm0-4h13c.552 0 1-.448 1-1s-.448-1-1-1h-13c-.552 0-1 .448-1 1s.448 1 1 1zm7-10.5v1c0 .133-.053.26-.146.354-.094.093-.221.146-.354.146h-9c-.133 0-.26-.053-.354-.146-.093-.094-.146-.221-.146-.354v-1c0-.133.053-.26.146-.354.094-.093.221-.146.354-.146h9c.133 0 .26.053.354.146.093.094.146.221.146.354z" fill="url(#_Linear1)"/></g></g></svg>