<svg clip-rule="evenodd" fill-rule="evenodd" height="512" stroke-linejoin="round" stroke-miterlimit="2" viewBox="0 0 48 48" width="512" xmlns="http://www.w3.org/2000/svg" xmlns:xlink="http://www.w3.org/1999/xlink"><linearGradient id="_Linear1" gradientTransform="matrix(48 48 -48 48 576 0)" gradientUnits="userSpaceOnUse" x1="0" x2="1" y1="0" y2="0"><stop offset="0" stop-color="#5ef0ff"/><stop offset="1" stop-color="#2b8bae"/></linearGradient><g transform="translate(-576)"><g id="SOLID-GRADIENT"><path d="m600 2c-12.142 0-22 9.858-22 22s9.858 22 22 22 22-9.858 22-22-9.858-22-22-22zm0 2c11.038 0 20 8.962 20 20s-8.962 20-20 20-20-8.962-20-20 8.962-20 20-20zm0 1c-10.486 0-19 8.514-19 19s8.514 19 19 19 19-8.514 19-19-8.514-19-19-19zm-1 8v10.697s-3.832 5.748-3.832 5.748c-.306.46-.182 1.081.277 1.387.46.306 1.081.182 1.387-.277l4-6c.11-.165.168-.358.168-.555v-11c0-.552-.448-1-1-1s-1 .448-1 1z" fill="url(#_Linear1)"/></g></g></svg>