<svg clip-rule="evenodd" fill-rule="evenodd" height="512" stroke-linejoin="round" stroke-miterlimit="2" viewBox="0 0 48 48" width="512" xmlns="http://www.w3.org/2000/svg" xmlns:xlink="http://www.w3.org/1999/xlink"><linearGradient id="_Linear1" gradientTransform="matrix(48 48 -48 48 288 72)" gradientUnits="userSpaceOnUse" x1="0" x2="1" y1="0" y2="0"><stop offset="0" stop-color="#5ef0ff"/><stop offset="1" stop-color="#2b8bae"/></linearGradient><g transform="translate(-288 -72)"><g id="SOLID-GRADIENT"><path d="m312 74c-12.142 0-22 9.858-22 22s9.858 22 22 22 22-9.858 22-22-9.858-22-22-22zm0 2c11.038 0 20 8.962 20 20s-8.962 20-20 20-20-8.962-20-20 8.962-20 20-20zm0 1c-10.486 0-19 8.514-19 19s8.514 19 19 19 19-8.514 19-19-8.514-19-19-19zm5.303 9.454-4.949 4.95c-.094.094-.221.146-.354.146s-.26-.052-.354-.146l-4.949-4.95c-.469-.469-1.105-.732-1.768-.732s-1.299.263-1.768.732c-.231.231-.476.476-.707.707-.469.469-.732 1.105-.732 1.768s.263 1.299.732 1.768l4.95 4.949c.094.094.146.221.146.354s-.052.26-.146.354l-4.95 4.949c-.469.469-.732 1.105-.732 1.768s.263 1.299.732 1.768l.707.707c.469.469 1.105.732 1.768.732s1.299-.263 1.768-.732l4.949-4.95c.094-.094.221-.146.354-.146s.26.052.354.146l4.949 4.95c.469.469 1.105.732 1.768.732s1.299-.263 1.768-.732l.707-.707c.469-.469.732-1.105.732-1.768s-.263-1.299-.732-1.768l-4.95-4.949c-.094-.094-.146-.221-.146-.354s.052-.26.146-.354l4.95-4.949c.469-.469.732-1.105.732-1.768s-.263-1.299-.732-1.768c-.231-.231-.476-.476-.707-.707-.469-.469-1.105-.732-1.768-.732s-1.299.263-1.768.732zm-3.535 6.364 4.95-4.95c.093-.093.22-.146.353-.146s.26.053.354.146l.707.707c.093.094.146.221.146.354s-.053.26-.146.353l-4.95 4.95c-.469.469-.732 1.105-.732 1.768s.263 1.299.732 1.768l4.95 4.95c.093.093.146.22.146.353s-.053.26-.146.354l-.707.707c-.094.093-.221.146-.354.146s-.26-.053-.353-.146l-4.95-4.95c-.469-.469-1.105-.732-1.768-.732s-1.299.263-1.768.732l-4.95 4.95c-.093.093-.22.146-.353.146s-.26-.053-.354-.146l-.707-.707c-.093-.094-.146-.221-.146-.354s.053-.26.146-.353l4.95-4.95c.469-.469.732-1.105.732-1.768s-.263-1.299-.732-1.768l-4.95-4.95c-.093-.093-.146-.22-.146-.353s.053-.26.146-.354l.707-.707c.094-.093.221-.146.354-.146s.26.053.353.146l4.95 4.95c.469.469 1.105.732 1.768.732s1.299-.263 1.768-.732z" fill="url(#_Linear1)"/></g></g></svg>