<svg clip-rule="evenodd" fill-rule="evenodd" height="512" stroke-linejoin="round" stroke-miterlimit="2" viewBox="0 0 48 48" width="512" xmlns="http://www.w3.org/2000/svg" xmlns:xlink="http://www.w3.org/1999/xlink"><linearGradient id="_Linear1" gradientTransform="matrix(48 48 -48 48 216 72)" gradientUnits="userSpaceOnUse" x1="0" x2="1" y1="0" y2="0"><stop offset="0" stop-color="#5ef0ff"/><stop offset="1" stop-color="#2b8bae"/></linearGradient><g transform="translate(-216 -72)"><g id="SOLID-GRADIENT"><path d="m218 82.5v27c0 .663.263 1.299.732 1.768s1.105.732 1.768.732h39c.663 0 1.299-.263 1.768-.732s.732-1.105.732-1.768v-27c0-.663-.263-1.299-.732-1.768s-1.105-.732-1.768-.732h-39c-.663 0-1.299.263-1.768.732s-.732 1.105-.732 1.768zm42 3.5v23.5c0 .133-.053.26-.146.354-.094.093-.221.146-.354.146h-39c-.133 0-.26-.053-.354-.146-.093-.094-.146-.221-.146-.354v-23.5zm-24 12.5c0-.663-.263-1.299-.732-1.768s-1.105-.732-1.768-.732h-9c-.663 0-1.299.263-1.768.732s-.732 1.105-.732 1.768v7c0 .663.263 1.299.732 1.768s1.105.732 1.768.732h9c.663 0 1.299-.263 1.768-.732s.732-1.105.732-1.768zm11 0c0-.663-.263-1.299-.732-1.768s-1.105-.732-1.768-.732c-1.181 0-2.819 0-4 0-.663 0-1.299.263-1.768.732s-.732 1.105-.732 1.768v7c0 .663.263 1.299.732 1.768s1.105.732 1.768.732h4c.663 0 1.299-.263 1.768-.732s.732-1.105.732-1.768zm11 0c0-.663-.263-1.299-.732-1.768s-1.105-.732-1.768-.732c-1.181 0-2.819 0-4 0-.663 0-1.299.263-1.768.732s-.732 1.105-.732 1.768v7c0 .663.263 1.299.732 1.768s1.105.732 1.768.732h4c.663 0 1.299-.263 1.768-.732s.732-1.105.732-1.768zm0-8c0-.663-.263-1.299-.732-1.768s-1.105-.732-1.768-.732h-31c-.663 0-1.299.263-1.768.732s-.732 1.105-.732 1.768v1c0 .663.263 1.299.732 1.768s1.105.732 1.768.732h31c.663 0 1.299-.263 1.768-.732s.732-1.105.732-1.768z" fill="url(#_Linear1)"/></g></g></svg>