<svg clip-rule="evenodd" fill-rule="evenodd" height="512" stroke-linejoin="round" stroke-miterlimit="2" viewBox="0 0 48 48" width="512" xmlns="http://www.w3.org/2000/svg" xmlns:xlink="http://www.w3.org/1999/xlink"><linearGradient id="_Linear1" gradientTransform="matrix(47 47 -47 47 504 73)" gradientUnits="userSpaceOnUse" x1="0" x2="1" y1="0" y2="0"><stop offset="0" stop-color="#5ef0ff"/><stop offset="1" stop-color="#2b8bae"/></linearGradient><g transform="translate(-504 -72)"><g id="SOLID-GRADIENT"><path d="m544 76.5c0-.663-.263-1.299-.732-1.768s-1.105-.732-1.768-.732c-5.121 0-21.879 0-27 0-.663 0-1.299.263-1.768.732s-.732 1.105-.732 1.768v39c0 1.381 1.119 2.5 2.5 2.5h21.879c.663 0 1.299-.263 1.767-.732 1.109-1.109 4.013-4.013 5.122-5.122.469-.468.732-1.104.732-1.767 0-4.133 0-27.673 0-33.879zm-3.414 35.5h-2.086c-.133 0-.26.053-.354.146-.093.094-.146.221-.146.354v2.086zm-22.586-4h20c.552 0 1-.448 1-1s-.448-1-1-1h-20c-.552 0-1 .448-1 1s.448 1 1 1zm0-5h20c.552 0 1-.448 1-1s-.448-1-1-1h-20c-.552 0-1 .448-1 1s.448 1 1 1zm0-5h20c.552 0 1-.448 1-1s-.448-1-1-1h-20c-.552 0-1 .448-1 1s.448 1 1 1zm0-5h20c.552 0 1-.448 1-1s-.448-1-1-1h-20c-.552 0-1 .448-1 1s.448 1 1 1zm0-5h20c.552 0 1-.448 1-1s-.448-1-1-1h-20c-.552 0-1 .448-1 1s.448 1 1 1zm0-5h20c.552 0 1-.448 1-1s-.448-1-1-1h-20c-.552 0-1 .448-1 1s.448 1 1 1z" fill="url(#_Linear1)"/></g></g></svg>