<svg clip-rule="evenodd" fill-rule="evenodd" height="512" stroke-linejoin="round" stroke-miterlimit="2" viewBox="0 0 48 48" width="512" xmlns="http://www.w3.org/2000/svg" xmlns:xlink="http://www.w3.org/1999/xlink"><linearGradient id="_Linear1" gradientTransform="matrix(47 47 -47 47 0 145)" gradientUnits="userSpaceOnUse" x1="0" x2="1" y1="0" y2="0"><stop offset="0" stop-color="#5ef0ff"/><stop offset="1" stop-color="#2b8bae"/></linearGradient><g transform="translate(0 -144)"><g id="SOLID-GRADIENT"><path d="m34.343 152h-27.843c-1.381 0-2.5 1.119-2.5 2.5v31c0 1.381 1.119 2.5 2.5 2.5h31c1.381 0 2.5-1.119 2.5-2.5v-27.843l3.268-3.268c.976-.976.976-2.559 0-3.535l-2.122-2.122c-.976-.976-2.559-.976-3.535 0zm-2 2h-25.843c-.276 0-.5.224-.5.5v31c0 .276.224.5.5.5h31c.276 0 .5-.224.5-.5v-25.843l-17.322 17.322c-.212.212-.461.384-.734.508-.615.28-2.28 1.037-3.889 1.768-.948.431-2.065.229-2.802-.508s-.939-1.854-.508-2.802c.731-1.609 1.488-3.274 1.768-3.889.124-.273.296-.522.508-.734z" fill="url(#_Linear1)"/></g></g></svg>