<svg clip-rule="evenodd" fill-rule="evenodd" height="512" stroke-linejoin="round" stroke-miterlimit="2" viewBox="0 0 48 48" width="512" xmlns="http://www.w3.org/2000/svg" xmlns:xlink="http://www.w3.org/1999/xlink"><linearGradient id="_Linear1" gradientTransform="matrix(48 48 -48 48 144 144)" gradientUnits="userSpaceOnUse" x1="0" x2="1" y1="0" y2="0"><stop offset="0" stop-color="#5ef0ff"/><stop offset="1" stop-color="#2b8bae"/></linearGradient><g transform="translate(-144 -144)"><g id="SOLID-GRADIENT"><path d="m152 179h-1.5c-.663 0-1.299.263-1.768.732s-.732 1.105-.732 1.768v2c0 .663.263 1.299.732 1.768s1.105.732 1.768.732h1.5v3c0 .552.448 1 1 1s1-.448 1-1v-3h1.5c.663 0 1.299-.263 1.768-.732s.732-1.105.732-1.768c0-.633 0-1.367 0-2 0-.663-.263-1.299-.732-1.768s-1.105-.732-1.768-.732h-1.5v-32c0-.552-.448-1-1-1s-1 .448-1 1zm20-4h-1.5c-.663 0-1.299.263-1.768.732s-.732 1.105-.732 1.768v2c0 .663.263 1.299.732 1.768s1.105.732 1.768.732h1.5v7c0 .552.448 1 1 1s1-.448 1-1v-7h1.5c.663 0 1.299-.263 1.768-.732s.732-1.105.732-1.768c0-.633 0-1.367 0-2 0-.663-.263-1.299-.732-1.768s-1.105-.732-1.768-.732h-1.5v-28c0-.552-.448-1-1-1s-1 .448-1 1zm-10-12h-1.5c-.663 0-1.299.263-1.768.732s-.732 1.105-.732 1.768v2c0 .663.263 1.299.732 1.768s1.105.732 1.768.732h1.5v19c0 .552.448 1 1 1s1-.448 1-1v-19h1.5c.663 0 1.299-.263 1.768-.732s.732-1.105.732-1.768c0-.633 0-1.367 0-2 0-.663-.263-1.299-.732-1.768s-1.105-.732-1.768-.732h-1.5v-16c0-.552-.448-1-1-1s-1 .448-1 1zm20-4h-1.5c-.663 0-1.299.263-1.768.732s-.732 1.105-.732 1.768v2c0 .663.263 1.299.732 1.768s1.105.732 1.768.732h1.5v23c0 .552.448 1 1 1s1-.448 1-1v-23h1.5c.663 0 1.299-.263 1.768-.732s.732-1.105.732-1.768c0-.633 0-1.367 0-2 0-.663-.263-1.299-.732-1.768s-1.105-.732-1.768-.732h-1.5v-12c0-.552-.448-1-1-1s-1 .448-1 1z" fill="url(#_Linear1)"/></g></g></svg>