<svg clip-rule="evenodd" fill-rule="evenodd" height="512" stroke-linejoin="round" stroke-miterlimit="2" viewBox="0 0 48 48" width="512" xmlns="http://www.w3.org/2000/svg" xmlns:xlink="http://www.w3.org/1999/xlink"><linearGradient id="_Linear1" gradientTransform="matrix(48 48 -48 48 504 144)" gradientUnits="userSpaceOnUse" x1="0" x2="1" y1="0" y2="0"><stop offset="0" stop-color="#5ef0ff"/><stop offset="1" stop-color="#2b8bae"/></linearGradient><g transform="translate(-504 -144)"><g id="SOLID-GRADIENT"><path d="m550 158.5c0-.663-.263-1.299-.732-1.768s-1.105-.732-1.768-.732c-5.409 0-23.802 0-27.75 0-.157 0-.306-.074-.4-.2l-2.1-2.8c-.472-.63-1.213-1-2-1-1.48 0-4.803 0-6.75 0-.663 0-1.299.263-1.768.732s-.732 1.105-.732 1.768v27c0 .663.263 1.299.732 1.768s1.105.732 1.768.732h39c.663 0 1.299-.263 1.768-.732s.732-1.105.732-1.768z" fill="url(#_Linear1)"/></g></g></svg>