<svg clip-rule="evenodd" fill-rule="evenodd" height="512" stroke-linejoin="round" stroke-miterlimit="2" viewBox="0 0 48 48" width="512" xmlns="http://www.w3.org/2000/svg" xmlns:xlink="http://www.w3.org/1999/xlink"><linearGradient id="_Linear1" gradientTransform="matrix(48 48 -48 48 288 360)" gradientUnits="userSpaceOnUse" x1="0" x2="1" y1="0" y2="0"><stop offset="0" stop-color="#5ef0ff"/><stop offset="1" stop-color="#2b8bae"/></linearGradient><g transform="translate(-288 -360)"><g id="SOLID-GRADIENT"><path d="m329 369.5c0-1.381-1.119-2.5-2.5-2.5h-33c-1.381 0-2.5 1.119-2.5 2.5v33c0 1.381 1.119 2.5 2.5 2.5h33c1.381 0 2.5-1.119 2.5-2.5zm-9-4.5h10.5c.276 0 .5.224.5.5v10.5c0 .552.448 1 1 1s1-.448 1-1v-10.5c0-1.381-1.119-2.5-2.5-2.5h-10.5c-.552 0-1 .448-1 1s.448 1 1 1z" fill="url(#_Linear1)"/></g></g></svg>