<svg clip-rule="evenodd" fill-rule="evenodd" height="512" stroke-linejoin="round" stroke-miterlimit="2" viewBox="0 0 48 48" width="512" xmlns="http://www.w3.org/2000/svg" xmlns:xlink="http://www.w3.org/1999/xlink"><linearGradient id="_Linear1" gradientTransform="matrix(47 47 -47 47 649 217)" gradientUnits="userSpaceOnUse" x1="0" x2="1" y1="0" y2="0"><stop offset="0" stop-color="#5ef0ff"/><stop offset="1" stop-color="#2b8bae"/></linearGradient><g transform="translate(-648 -216)"><g id="SOLID-GRADIENT"><path d="m653.21 242.5-1.018.532c-.733.383-1.192 1.142-1.192 1.968s.459 1.585 1.192 1.968c4.646 2.429 15.725 8.223 18.635 9.744.735.384 1.611.384 2.346 0 2.91-1.521 13.989-7.315 18.635-9.744.733-.383 1.192-1.142 1.192-1.968s-.459-1.585-1.192-1.968l-1.018-.532 1.018-.532c.733-.383 1.192-1.142 1.192-1.968s-.459-1.585-1.192-1.968l-1.018-.532 1.018-.532c.733-.383 1.192-1.142 1.192-1.968s-.459-1.585-1.192-1.968c-4.646-2.429-15.725-8.223-18.635-9.744-.735-.384-1.611-.384-2.346 0l-18.635 9.744c-.733.383-1.192 1.142-1.192 1.968s.459 1.585 1.192 1.968l1.018.532-1.018.532c-.733.383-1.192 1.142-1.192 1.968s.459 1.585 1.192 1.968zm35.422-3.872-15.459 8.084c-.735.384-1.611.384-2.346 0l-15.459-8.084-2.249 1.176c-.073.038-.119.114-.119.196s.046.158.119.196l18.635 9.744c.154.08.338.08.492 0l18.635-9.744c.073-.038.119-.114.119-.196s-.046-.158-.119-.196z" fill="url(#_Linear1)"/></g></g></svg>