<svg clip-rule="evenodd" fill-rule="evenodd" height="512" stroke-linejoin="round" stroke-miterlimit="2" viewBox="0 0 48 48" width="512" xmlns="http://www.w3.org/2000/svg" xmlns:xlink="http://www.w3.org/1999/xlink"><linearGradient id="_Linear1" gradientTransform="matrix(48 48 -48 48 576 288)" gradientUnits="userSpaceOnUse" x1="0" x2="1" y1="0" y2="0"><stop offset="0" stop-color="#5ef0ff"/><stop offset="1" stop-color="#2b8bae"/></linearGradient><g transform="translate(-576 -288)"><g id="SOLID-GRADIENT"><path d="m587 308.791-3.604.15c-1.339.056-2.396 1.158-2.396 2.498v1.122c0 1.34 1.057 2.442 2.396 2.498l3.604.15v16.041c0 1.558 1.164 2.75 2.5 2.75h27c1.336 0 2.5-1.192 2.5-2.75v-38.5c0-1.558-1.164-2.75-2.5-2.75h-27c-1.336 0-2.5 1.192-2.5 2.75zm10.165 4.838-13.686-.568c-.268-.012-.479-.232-.479-.5v-1.122c0-.268.211-.488.479-.5 0 0 13.686-.568 13.686-.568.945-.039 1.787-.609 2.176-1.472l.827-1.837c.061-.135.18-.237.323-.276.144-.04.298-.013.42.072 0 0 6.76 4.732 6.76 4.732.134.094.213.247.213.41s-.079.316-.213.41c0 0-6.76 4.732-6.76 4.732-.122.085-.276.112-.42.072-.143-.039-.262-.141-.323-.276l-.827-1.837c-.389-.863-1.231-1.433-2.176-1.472z" fill="url(#_Linear1)"/></g></g></svg>