<svg
  clip-rule="evenodd"
  fill-rule="evenodd"
  height="512"
  stroke-linejoin="round"
  stroke-miterlimit="2"
  viewBox="0 0 48 48"
  width="512"
  xmlns="http://www.w3.org/2000/svg"
  xmlns:xlink="http://www.w3.org/1999/xlink"
>
  <linearGradient
    id="_Linear1"
    gradientTransform="matrix(48 48 -48 48 432 360)"
    gradientUnits="userSpaceOnUse"
    x1="0"
    x2="1"
    y1="0"
    y2="0"
  >
    <stop offset="0" stop-color="#5ef0ff" />
    <stop offset="1" stop-color="#2b8bae" />
  </linearGradient>
  <g transform="translate(-432 -360)">
    <g id="SOLID-GRADIENT">
      <path
        d="m478 396c0-2.209-1.791-4-4-4h-36c-2.209 0-4 1.791-4 4s1.791 4 4 4h36c2.209 0 4-1.791 4-4zm0-11.992c0-2.209-1.791-4-4-4h-36c-2.209 0-4 1.791-4 4s1.791 4 4 4h36c2.209 0 4-1.791 4-4zm0-12.008c0-2.209-1.791-4-4-4h-36c-2.209 0-4 1.791-4 4s1.791 4 4 4h36c2.209 0 4-1.791 4-4z"
        fill="url(#_Linear1)"
      />
    </g>
  </g>
</svg>
