<svg clip-rule="evenodd" fill-rule="evenodd" height="512" stroke-linejoin="round" stroke-miterlimit="2" viewBox="0 0 48 48" width="512" xmlns="http://www.w3.org/2000/svg" xmlns:xlink="http://www.w3.org/1999/xlink"><linearGradient id="_Linear1" gradientTransform="matrix(48 48 -48 48 1 432)" gradientUnits="userSpaceOnUse" x1="0" x2="1" y1="0" y2="0"><stop offset="0" stop-color="#5ef0ff"/><stop offset="1" stop-color="#2b8bae"/></linearGradient><g transform="translate(0 -432)"><g id="SOLID-GRADIENT"><path d="m21 466.649v4.351h-3.073c-.947 0-1.813.535-2.236 1.382l-.5 1c-.388.775-.346 1.695.109 2.432.456.737 1.261 1.186 2.127 1.186h13.146c.866 0 1.671-.449 2.127-1.186.455-.737.497-1.657.109-2.432l-.5-1c-.423-.847-1.289-1.382-2.236-1.382h-3.073v-4.348c5.733-1.354 10-6.505 10-12.652v-5c0-.552-.448-1-1-1s-1 .448-1 1v5c0 6.075-4.925 11-11 11-2.917 0-5.715-1.159-7.778-3.222s-3.222-4.861-3.222-7.778v-5c0-.552-.448-1-1-1s-1 .448-1 1v5c0 3.448 1.37 6.754 3.808 9.192 1.717 1.718 3.866 2.906 6.192 3.457zm2 .312v4.039h2v-4.038c-.33.025-.663.038-1 .038-.335 0-.668-.013-1-.039zm1-3.961c4.971 0 9-4.029 9-9v-10c0-2.387-.948-4.676-2.636-6.364s-3.977-2.636-6.364-2.636c-4.971 0-9 4.029-9 9v10c0 2.387.948 4.676 2.636 6.364s3.977 2.636 6.364 2.636z" fill="url(#_Linear1)"/></g></g></svg>