<svg clip-rule="evenodd" fill-rule="evenodd" height="512" stroke-linejoin="round" stroke-miterlimit="2" viewBox="0 0 48 48" width="512" xmlns="http://www.w3.org/2000/svg" xmlns:xlink="http://www.w3.org/1999/xlink"><linearGradient id="_Linear1" gradientTransform="matrix(48 48 -48 48 432 288)" gradientUnits="userSpaceOnUse" x1="0" x2="1" y1="0" y2="0"><stop offset="0" stop-color="#5ef0ff"/><stop offset="1" stop-color="#2b8bae"/></linearGradient><g transform="translate(-432 -288)"><g id="SOLID-GRADIENT"><path d="m447 310h-5.5c-1.381 0-2.5 1.119-2.5 2.5v19c0 1.381 1.119 2.5 2.5 2.5h29c1.381 0 2.5-1.119 2.5-2.5 0-4.017 0-14.983 0-19 0-1.381-1.119-2.5-2.5-2.5h-5.5v-11c0-4.971-4.029-9-9-9s-9 4.029-9 9zm8 13.874v3.126c0 .552.448 1 1 1s1-.448 1-1v-3.126c1.724-.445 3-2.012 3-3.874 0-2.208-1.792-4-4-4s-4 1.792-4 4c0 1.862 1.276 3.429 3 3.874zm1-5.874c1.104 0 2 .896 2 2s-.896 2-2 2-2-.896-2-2 .896-2 2-2zm7-8v-11c0-3.866-3.134-7-7-7s-7 3.134-7 7v11z" fill="url(#_Linear1)"/></g></g></svg>