<svg clip-rule="evenodd" fill-rule="evenodd" height="512" stroke-linejoin="round" stroke-miterlimit="2" viewBox="0 0 48 48" width="512" xmlns="http://www.w3.org/2000/svg" xmlns:xlink="http://www.w3.org/1999/xlink"><linearGradient id="_Linear1" gradientTransform="matrix(48 48 -48 48 72 288)" gradientUnits="userSpaceOnUse" x1="0" x2="1" y1="0" y2="0"><stop offset="0" stop-color="#1ea6ff"/><stop offset="1" stop-color="#1ea6ff"/></linearGradient><g transform="translate(-72 -288)"><g id="SOLID-GRADIENT"><path d="m76.5 316h18.95c.189 0 .362.107.447.276l2.855 5.711c.313.626.874 1.092 1.547 1.285.672.193 1.395.095 1.993-.27l14.512-8.869c.743-.454 1.196-1.262 1.196-2.133s-.453-1.679-1.196-2.133c-3.717-2.272-11.37-6.948-14.512-8.869-.598-.365-1.321-.463-1.993-.27-.673.193-1.234.659-1.547 1.285l-2.855 5.711c-.085.169-.258.276-.447.276h-18.95c-1.381 0-2.5 1.119-2.5 2.5v3c0 1.381 1.119 2.5 2.5 2.5z" fill="url(#_Linear1)"/></g></g></svg>