<svg clip-rule="evenodd" fill-rule="evenodd" height="512" stroke-linejoin="round" stroke-miterlimit="2" viewBox="0 0 48 48" width="512" xmlns="http://www.w3.org/2000/svg" xmlns:xlink="http://www.w3.org/1999/xlink"><linearGradient id="_Linear1" gradientTransform="matrix(48 48 -48 48 216 576)" gradientUnits="userSpaceOnUse" x1="0" x2="1" y1="0" y2="0"><stop offset="0" stop-color="#5ef0ff"/><stop offset="1" stop-color="#2b8bae"/></linearGradient><g transform="translate(-216 -576)"><g id="SOLID-GRADIENT"><path d="m219 609v9.5c0 .663.263 1.299.732 1.768s1.105.732 1.768.732h9.5c.552 0 1-.448 1-1s-.448-1-1-1h-9.5c-.133 0-.26-.053-.354-.146-.093-.094-.146-.221-.146-.354v-9.5c0-.552-.448-1-1-1s-1 .448-1 1zm30 12h9.5c.663 0 1.299-.263 1.768-.732s.732-1.105.732-1.768v-9.5c0-.552-.448-1-1-1s-1 .448-1 1v9.5c0 .133-.053.26-.146.354-.094.093-.221.146-.354.146h-9.5c-.552 0-1 .448-1 1s.448 1 1 1zm-21-19h-3c-.552 0-1 .448-1 1s.448 1 1 1h3v9.5c0 .663.263 1.299.732 1.768s1.105.732 1.768.732h19c.663 0 1.299-.263 1.768-.732s.732-1.105.732-1.768v-9.5h3c.552 0 1-.448 1-1s-.448-1-1-1h-3v-15.5c0-.663-.263-1.299-.732-1.768s-1.105-.732-1.768-.732c-4.017 0-14.983 0-19 0-.663 0-1.299.263-1.768.732s-.732 1.105-.732 1.768zm22 2v9.5c0 .133-.053.26-.146.354-.094.093-.221.146-.354.146-4.017 0-14.983 0-19 0-.133 0-.26-.053-.354-.146-.093-.094-.146-.221-.146-.354v-9.5zm11-13v-9.5c0-.663-.263-1.299-.732-1.768s-1.105-.732-1.768-.732h-9.5c-.552 0-1 .448-1 1s.448 1 1 1h9.5c.133 0 .26.053.354.146.093.094.146.221.146.354v9.5c0 .552.448 1 1 1s1-.448 1-1zm-30-12h-9.5c-.663 0-1.299.263-1.768.732s-.732 1.105-.732 1.768v9.5c0 .552.448 1 1 1s1-.448 1-1v-9.5c0-.133.053-.26.146-.354.094-.093.221-.146.354-.146h9.5c.552 0 1-.448 1-1s-.448-1-1-1z" fill="url(#_Linear1)"/></g></g></svg>