<svg clip-rule="evenodd" fill-rule="evenodd" height="512" stroke-linejoin="round" stroke-miterlimit="2" viewBox="0 0 48 48" width="512" xmlns="http://www.w3.org/2000/svg" xmlns:xlink="http://www.w3.org/1999/xlink"><linearGradient id="_Linear1" gradientTransform="matrix(48 48 -48 48 288 576)" gradientUnits="userSpaceOnUse" x1="0" x2="1" y1="0" y2="0"><stop offset="0" stop-color="#5ef0ff"/><stop offset="1" stop-color="#2b8bae"/></linearGradient><g transform="translate(-288 -576)"><g id="SOLID-GRADIENT"><path d="m291 609v9.5c0 .663.263 1.299.732 1.768s1.105.732 1.768.732h9.5c.552 0 1-.448 1-1s-.448-1-1-1h-9.5c-.133 0-.26-.053-.354-.146-.093-.094-.146-.221-.146-.354v-9.5c0-.552-.448-1-1-1s-1 .448-1 1zm30 12h9.5c.663 0 1.299-.263 1.768-.732s.732-1.105.732-1.768v-9.5c0-.552-.448-1-1-1s-1 .448-1 1v9.5c0 .133-.053.26-.146.354-.094.093-.221.146-.354.146h-9.5c-.552 0-1 .448-1 1s.448 1 1 1zm1.5-27h-3.031c-.167 0-.323-.084-.416-.223l-1.776-2.664c-.463-.695-1.244-1.113-2.08-1.113h-6.394c-.836 0-1.617.418-2.08 1.113l-1.776 2.664c-.093.139-.249.223-.416.223h-3.031c-.663 0-1.299.263-1.768.732s-.732 1.105-.732 1.768v11c0 1.381 1.119 2.5 2.5 2.5h21c1.381 0 2.5-1.119 2.5-2.5v-11c0-.663-.263-1.299-.732-1.768s-1.105-.732-1.768-.732zm-10.5 2c-2.76 0-5 2.24-5 5s2.24 5 5 5 5-2.24 5-5-2.24-5-5-5zm0 2c1.656 0 3 1.344 3 3s-1.344 3-3 3-3-1.344-3-3 1.344-3 3-3zm21-7v-9.5c0-.663-.263-1.299-.732-1.768s-1.105-.732-1.768-.732h-9.5c-.552 0-1 .448-1 1s.448 1 1 1h9.5c.133 0 .26.053.354.146.093.094.146.221.146.354v9.5c0 .552.448 1 1 1s1-.448 1-1zm-30-12h-9.5c-.663 0-1.299.263-1.768.732s-.732 1.105-.732 1.768v9.5c0 .552.448 1 1 1s1-.448 1-1v-9.5c0-.133.053-.26.146-.354.094-.093.221-.146.354-.146h9.5c.552 0 1-.448 1-1s-.448-1-1-1z" fill="url(#_Linear1)"/></g></g></svg>