<svg clip-rule="evenodd" fill-rule="evenodd" height="512" stroke-linejoin="round" stroke-miterlimit="2" viewBox="0 0 48 48" width="512" xmlns="http://www.w3.org/2000/svg" xmlns:xlink="http://www.w3.org/1999/xlink"><linearGradient id="_Linear1" gradientTransform="matrix(48 48 -48 48 504 576)" gradientUnits="userSpaceOnUse" x1="0" x2="1" y1="0" y2="0"><stop offset="0" stop-color="#5ef0ff"/><stop offset="1" stop-color="#2b8bae"/></linearGradient><g transform="translate(-504 -576)"><g id="SOLID-GRADIENT"><path d="m532.277 579.887c-.284-.975-1.131-1.682-2.141-1.787-.004 0-.007 0-.01-.001-1.415-.133-2.84-.133-4.254.004-.003 0-.005.001-.007.001-1.009.105-1.855.81-2.139 1.784-.151.507-.334 1.134-.478 1.626-.049.166-.18.296-.348.342-.002 0-.003.001-.005.001-1.434.401-2.815.973-4.114 1.701-.002.001-.004.002-.006.004-.15.085-.334.087-.485.004l-1.488-.812c-.89-.489-1.988-.39-2.777.25-.003.002-.005.004-.008.006-1.095.907-2.102 1.914-3.005 3.012-.002.001-.003.003-.005.005-.639.787-.738 1.884-.251 2.774.252.465.566 1.038.812 1.487.083.153.082.337-.004.488-.001.002-.002.003-.003.005-.73 1.297-1.302 2.678-1.706 4.112-.001.002-.001.004-.002.006-.045.167-.174.298-.34.346l-1.626.478c-.975.284-1.682 1.131-1.787 2.141 0 .004 0 .007-.001.01-.133 1.415-.133 2.84.004 4.254 0 .003.001.005.001.007.105 1.009.81 1.855 1.784 2.139.507.151 1.134.334 1.626.478.166.049.296.18.342.348 0 .002.001.003.001.005.401 1.434.973 2.815 1.701 4.114.001.002.002.004.004.006.085.15.087.334.004.485l-.812 1.488c-.489.89-.39 1.988.25 2.777.002.003.004.005.006.008.907 1.095 1.914 2.102 3.012 3.005.001.002.003.003.005.005.787.639 1.884.738 2.774.251.465-.252 1.038-.566 1.487-.812.153-.083.337-.082.488.004.002.001.003.002.005.003 1.297.73 2.678 1.302 4.112 1.706.002.001.004.001.006.002.167.045.298.174.346.34l.478 1.626c.284.975 1.131 1.682 2.141 1.787.004 0 .007 0 .01.001 1.415.133 2.84.133 4.254-.004.003 0 .005-.001.007-.001 1.009-.105 1.855-.81 2.139-1.784.151-.507.334-1.134.478-1.626.049-.166.18-.296.348-.342.002 0 .003-.001.005-.001 1.434-.401 2.815-.973 4.114-1.701.002-.001.004-.002.006-.004.15-.085.334-.087.485-.004l1.488.812c.89.489 1.988.39 2.777-.25.003-.002.005-.004.008-.006 1.095-.907 2.102-1.914 3.005-3.012.002-.001.003-.003.005-.005.639-.787.738-1.884.251-2.774-.252-.465-.566-1.038-.812-1.487-.083-.153-.082-.337.004-.488.001-.002.002-.003.003-.005.73-1.297 1.302-2.678 1.706-4.112.001-.002.001-.004.002-.006.045-.167.174-.298.34-.346l1.626-.478c.975-.284 1.682-1.131 1.787-2.141 0-.004 0-.007.001-.01.133-1.415.133-2.84-.004-4.254 0-.003-.001-.005-.001-.007-.105-1.009-.81-1.855-1.784-2.139-.507-.151-1.134-.334-1.626-.478-.166-.049-.296-.18-.342-.348 0-.002-.001-.003-.001-.005-.401-1.434-.973-2.815-1.701-4.114-.001-.002-.002-.004-.004-.006-.085-.15-.087-.334-.004-.485l.812-1.488c.489-.89.39-1.988-.25-2.777-.002-.003-.004-.005-.006-.008-.907-1.095-1.914-2.102-3.012-3.005-.001-.002-.003-.003-.005-.005-.787-.639-1.884-.738-2.774-.251-.465.252-1.038.566-1.487.812-.153.083-.337.082-.488-.004-.002-.001-.003-.002-.005-.003-1.297-.73-2.678-1.302-4.112-1.706-.002-.001-.004-.001-.006-.002-.167-.045-.298-.174-.346-.34zm-4.277 12.713c4.084 0 7.4 3.316 7.4 7.4s-3.316 7.4-7.4 7.4-7.4-3.316-7.4-7.4 3.316-7.4 7.4-7.4z" fill="url(#_Linear1)"/></g></g></svg>