<svg clip-rule="evenodd" fill-rule="evenodd" height="512" stroke-linejoin="round" stroke-miterlimit="2" viewBox="0 0 48 48" width="512" xmlns="http://www.w3.org/2000/svg" xmlns:xlink="http://www.w3.org/1999/xlink"><linearGradient id="_Linear1" gradientTransform="matrix(48 48 -48 48 72 576)" gradientUnits="userSpaceOnUse" x1="0" x2="1" y1="0" y2="0"><stop offset="0" stop-color="#5ef0ff"/><stop offset="1" stop-color="#2b8bae"/></linearGradient><g transform="translate(-72 -576)"><g id="SOLID-GRADIENT"><path d="m94.837 621.71c.728.384 1.598.384 2.326.001h.001c11.531-6.078 17.528-15.125 17.836-35.358.015-.688-.26-1.359-.761-1.843-.497-.48-1.171-.733-1.861-.697-4.963.196-9.917-1.592-14.88-5.31-.887-.666-2.109-.666-2.997.001-4.959 3.714-9.91 5.503-14.869 5.315-.699-.036-1.371.216-1.867.695-.5.483-.775 1.152-.759 1.847.302 20.225 6.299 29.272 17.831 35.349zm-3.637-20.11 3 4c.201.268.523.418.858.398.334-.019.637-.205.806-.494l7-12c.278-.477.117-1.09-.36-1.368s-1.09-.117-1.368.36l-6.24 10.698s-2.096-2.794-2.096-2.794c-.331-.442-.958-.531-1.4-.2s-.531.958-.2 1.4z" fill="url(#_Linear1)"/></g></g></svg>