<svg clip-rule="evenodd" fill-rule="evenodd" height="512" stroke-linejoin="round" stroke-miterlimit="2" viewBox="0 0 48 48" width="512" xmlns="http://www.w3.org/2000/svg" xmlns:xlink="http://www.w3.org/1999/xlink"><linearGradient id="_Linear1" gradientTransform="matrix(48 48 -48 48 216 647)" gradientUnits="userSpaceOnUse" x1="0" x2="1" y1="0" y2="0"><stop offset="0" stop-color="#5ef0ff"/><stop offset="1" stop-color="#2b8bae"/></linearGradient><g transform="translate(-216 -648)"><g id="SOLID-GRADIENT"><path d="m253 691.5v-39c0-1.381-1.119-2.5-2.5-2.5h-21c-1.381 0-2.5 1.119-2.5 2.5v39c0 1.381 1.119 2.5 2.5 2.5h21c1.381 0 2.5-1.119 2.5-2.5zm-2-2.5v2.5c0 .276-.224.5-.5.5h-21c-.276 0-.5-.224-.5-.5v-2.5zm0-35h-22v-1.5c0-.276.224-.5.5-.5h21c.276 0 .5.224.5.5z" fill="url(#_Linear1)"/></g></g></svg>