<svg clip-rule="evenodd" fill-rule="evenodd" height="512" stroke-linejoin="round" stroke-miterlimit="2" viewBox="0 0 48 48" width="512" xmlns="http://www.w3.org/2000/svg" xmlns:xlink="http://www.w3.org/1999/xlink"><linearGradient id="_Linear1" gradientTransform="matrix(47 47 -47 47 648 73)" gradientUnits="userSpaceOnUse" x1="0" x2="1" y1="0" y2="0"><stop offset="0" stop-color="#fff"/><stop offset="1" stop-color="#fff"/></linearGradient><g transform="translate(-648 -72)"><g id="SOLID-GRADIENT"><path d="m669.477 83-6.796 14.393c-.552 1.169-.122 2.567.993 3.222l3.959 2.329c.116.069.2.181.232.313l3.163 12.98c.11.448.511.763.972.763s.862-.315.972-.763l3.163-12.98c.032-.132.116-.244.232-.313l3.959-2.329c1.115-.655 1.545-2.053.993-3.222l-6.796-14.393h10.977c.663 0 1.299-.263 1.768-.732s.732-1.105.732-1.768v-3c0-.663-.263-1.299-.732-1.768s-1.105-.732-1.768-.732c-5.121 0-21.879 0-27 0-.663 0-1.299.263-1.768.732s-.732 1.105-.732 1.768v3c0 .663.263 1.299.732 1.768s1.105.732 1.768.732z" fill="url(#_Linear1)"/></g></g></svg>