<svg clip-rule="evenodd" fill-rule="evenodd" height="512" stroke-linejoin="round" stroke-miterlimit="2" viewBox="0 0 48 48" width="512" xmlns="http://www.w3.org/2000/svg" xmlns:xlink="http://www.w3.org/1999/xlink"><linearGradient id="_Linear1" gradientTransform="matrix(48 48 -48 48 360 648)" gradientUnits="userSpaceOnUse" x1="0" x2="1" y1="0" y2="0"><stop offset="0" stop-color="#fff"/><stop offset="1" stop-color="#fff"/></linearGradient><g transform="translate(-360 -648)"><g id="SOLID-GRADIENT"><path d="m379.391 671.082c-.13-.055-.271-.081-.412-.077-6.457.179-11.892 4.953-12.873 11.373-.001.006-.002.012-.003.019-.413 3.091-.391 6.282-.202 9.266v.003c.087 1.312 1.177 2.332 2.492 2.332 5.505.002 25.708.002 31.214.002 1.316 0 2.407-1.021 2.494-2.334 0-.001 0-.003.001-.004.186-2.988.207-6.185-.256-9.274 0-.001 0-.002 0-.003-.983-6.436-6.459-11.212-12.944-11.335-.135-.002-.27.023-.395.074-1.391.565-2.913.876-4.507.876-1.632 0-3.189-.326-4.609-.918zm4.609-21.082c-5.519 0-10 4.481-10 10s4.481 10 10 10 10-4.481 10-10-4.481-10-10-10z" fill="url(#_Linear1)"/></g></g></svg>