<svg clip-rule="evenodd" fill-rule="evenodd" height="512" stroke-linejoin="round" stroke-miterlimit="2" viewBox="0 0 48 48" width="512" xmlns="http://www.w3.org/2000/svg" xmlns:xlink="http://www.w3.org/1999/xlink"><linearGradient id="_Linear1" gradientTransform="matrix(48 48 -48 48 648 0)" gradientUnits="userSpaceOnUse" x1="0" x2="1" y1="0" y2="0"><stop offset="0" stop-color="#fff"/><stop offset="1" stop-color="#fff"/></linearGradient><g transform="translate(-648)"><g id="SOLID-GRADIENT"><path d="m671 34v4.051c-.477.097-.919.332-1.268.681s-.584.791-.681 1.268h-9.102c-.097-.477-.332-.919-.681-1.268-.469-.469-1.105-.732-1.768-.732-.327 0-.673 0-1 0-.663 0-1.299.263-1.768.732s-.732 1.105-.732 1.768v1c0 .663.263 1.299.732 1.768s1.105.732 1.768.732h1c.663 0 1.299-.263 1.768-.732.349-.349.584-.791.681-1.268h9.102c.097.477.332.919.681 1.268.469.469 1.105.732 1.768.732h1c.663 0 1.299-.263 1.768-.732.349-.349.584-.791.681-1.268h9.102c.097.477.332.919.681 1.268.469.469 1.105.732 1.768.732h1c.663 0 1.299-.263 1.768-.732s.732-1.105.732-1.768v-1c0-.663-.263-1.299-.732-1.768s-1.105-.732-1.768-.732c-.327 0-.673 0-1 0-.663 0-1.299.263-1.768.732-.349.349-.584.791-.681 1.268h-9.102c-.097-.477-.332-.919-.681-1.268s-.791-.584-1.268-.681v-4.051h11c5.519 0 10-4.481 10-10 0-5.027-3.717-9.192-8.55-9.895-1.689-5.834-7.075-10.105-13.45-10.105-7.727 0-14 6.273-14 14-4.415 0-8 3.585-8 8s3.585 8 8 8z" fill="url(#_Linear1)"/></g></g></svg>