<svg clip-rule="evenodd" fill-rule="evenodd" height="512" stroke-linejoin="round" stroke-miterlimit="2" viewBox="0 0 48 48" width="512" xmlns="http://www.w3.org/2000/svg" xmlns:xlink="http://www.w3.org/1999/xlink"><linearGradient id="_Linear1" gradientTransform="matrix(47 47 -47 47 504 504)" gradientUnits="userSpaceOnUse" x1="0" x2="1" y1="0" y2="0"><stop offset="0" stop-color="#fff"/><stop offset="1" stop-color="#fff"/></linearGradient><g transform="translate(-504 -504)"><g id="SOLID-GRADIENT"><path d="m528.633 525.794-15.957-8.503c-.775-.413-1.71-.389-2.463.063-.752.452-1.213 1.265-1.213 2.143v17.006c0 .878.461 1.691 1.213 2.143.753.452 1.688.476 2.463.063l15.957-8.503c.816-.434 1.325-1.282 1.325-2.206s-.509-1.772-1.325-2.206zm9.367-6.294c0-.663-.263-1.299-.732-1.768s-1.105-.732-1.768-.732c-.327 0-.673 0-1 0-.663 0-1.299.263-1.768.732s-.732 1.105-.732 1.768v17c0 .663.263 1.299.732 1.768s1.105.732 1.768.732h1c.663 0 1.299-.263 1.768-.732s.732-1.105.732-1.768zm8 0c0-.663-.263-1.299-.732-1.768s-1.105-.732-1.768-.732c-.327 0-.673 0-1 0-.663 0-1.299.263-1.768.732s-.732 1.105-.732 1.768v17c0 .663.263 1.299.732 1.768s1.105.732 1.768.732h1c.663 0 1.299-.263 1.768-.732s.732-1.105.732-1.768z" fill="url(#_Linear1)"/></g></g></svg>