<?xml version="1.0" standalone="no"?>
<!DOCTYPE svg PUBLIC "-//W3C//DTD SVG 20010904//EN"
 "http://www.w3.org/TR/2001/REC-SVG-20010904/DTD/svg10.dtd">
<svg version="1.0" xmlns="http://www.w3.org/2000/svg"
 width="3334.000000pt" height="3334.000000pt" viewBox="0 0 3334.000000 3334.000000"
 preserveAspectRatio="xMidYMid meet">
<metadata>
Created by potrace 1.14, written by Peter Selinger 2001-2017
</metadata>
<g transform="translate(0.000000,3334.000000) scale(0.100000,-0.100000)"
fill="#000000" stroke="none">
<path d="M6082 27729 c-134 -22 -294 -120 -377 -232 -59 -77 -77 -113 -106
-207 l-24 -75 0 -10545 c0 -10199 1 -10547 18 -10610 57 -199 203 -357 399
-428 l73 -27 10553 -3 c9309 -2 10561 0 10618 13 194 45 359 190 438 383 l31
77 3 10568 c2 9626 1 10574 -14 10630 -50 196 -212 368 -409 435 l-80 27
-10535 1 c-6091 1 -10557 -2 -10588 -7z m11702 -3367 c702 -1196 1276 -2175
1276 -2178 0 -2 -326 -4 -725 -4 l-725 0 0 -603 0 -603 -36 -18 c-61 -29 -334
-195 -434 -264 -649 -448 -1199 -1043 -1672 -1807 l-68 -110 0 1703 0 1702
-730 2 -729 3 1257 2140 c691 1177 1267 2158 1280 2179 13 21 24 37 26 35 2
-2 578 -982 1280 -2177z m-7434 -5156 c0 -4151 2 -4673 15 -4752 88 -499 503
-898 1007 -964 57 -8 377 -10 1013 -7 917 3 931 3 1027 25 369 84 623 275 874
657 233 356 418 779 824 1890 355 970 496 1314 742 1805 430 860 905 1479
1492 1946 557 444 1188 728 1936 873 554 106 1191 129 1727 61 1711 -219 3180
-1365 3816 -2980 359 -910 426 -1917 191 -2870 -134 -545 -361 -1056 -675
-1520 -913 -1351 -2429 -2136 -4049 -2097 -621 15 -1176 134 -1747 375 l-113
47 0 1353 0 1354 132 -137 c407 -421 893 -672 1478 -762 164 -25 548 -25 715
1 462 71 883 255 1240 543 120 97 327 307 412 418 354 467 533 989 533 1560 0
694 -271 1333 -771 1820 -294 286 -610 477 -999 603 -272 88 -474 117 -810
117 -520 -1 -892 -77 -1265 -259 -510 -248 -902 -689 -1264 -1421 -190 -384
-345 -766 -657 -1622 -336 -922 -482 -1276 -718 -1738 -290 -567 -572 -965
-932 -1315 -559 -542 -1197 -834 -2019 -922 -90 -10 -382 -13 -1180 -13 -1111
0 -1125 0 -1385 46 -911 159 -1732 700 -2244 1477 -278 423 -440 849 -528
1387 l-23 140 -2 4773 -3 4772 1105 0 1105 0 0 -4664z m7250 -8056 c7 0 10
-738 10 -2180 l0 -2180 -1105 0 -1105 0 0 2133 1 2132 83 53 c339 214 722 570
1031 957 370 463 728 1094 1021 1798 l49 118 3 -1416 c1 -932 5 -1415 12
-1415z"/>
</g>
</svg>
