<svg width="305" height="342" viewBox="0 0 305 342" fill="none" xmlns="http://www.w3.org/2000/svg">
<path d="M300.855 47.8647C300.242 43.4551 297.073 39.828 292.789 38.6358L155.492 0.409062C153.534 -0.136354 151.467 -0.136354 149.508 0.409062L12.2108 38.6358C7.92698 39.828 4.75801 43.4537 4.14476 47.8647C3.34842 53.5975 -14.8185 189.051 31.7784 256.435C78.3201 323.739 146.979 340.987 149.879 341.689C150.741 341.897 151.619 342 152.5 342C153.381 342 154.259 341.896 155.121 341.689C158.022 340.987 226.681 323.739 273.222 256.435C319.818 189.053 301.652 53.599 300.855 47.8647ZM241.039 126.944L147.389 220.703C145.209 222.885 142.352 223.977 139.495 223.977C136.639 223.977 133.781 222.886 131.602 220.703L73.6984 162.733C71.6041 160.637 70.4282 157.794 70.4282 154.83C70.4282 151.866 71.6056 149.023 73.6984 146.928L85.1954 135.417C89.5552 131.054 96.624 131.052 100.982 135.417L139.495 173.975L213.755 99.627C215.848 97.5302 218.688 96.353 221.649 96.353C224.609 96.353 227.449 97.5302 229.542 99.627L241.039 111.137C245.399 115.502 245.399 122.579 241.039 126.944Z" fill="url(#paint0_linear_1_21)"/>
<defs>
<linearGradient id="paint0_linear_1_21" x1="152.5" y1="0" x2="152.5" y2="342" gradientUnits="userSpaceOnUse">
<stop offset="0.492121" stop-color="#4ED0E6"/>
<stop offset="1" stop-color="#38A5C3"/>
</linearGradient>
</defs>
</svg>
