<svg clip-rule="evenodd" fill-rule="evenodd" height="512" stroke-linejoin="round" stroke-miterlimit="2" viewBox="0 0 48 48" width="512" xmlns="http://www.w3.org/2000/svg" xmlns:xlink="http://www.w3.org/1999/xlink"><linearGradient id="_Linear1" gradientTransform="matrix(48 48 -48 48 432 576)" gradientUnits="userSpaceOnUse" x1="0" x2="1" y1="0" y2="0"><stop offset="0" stop-color="#fff"/><stop offset="1" stop-color="#fff"/></linearGradient><g transform="translate(-432 -576)"><g id="SOLID-GRADIENT"><path d="m436 597.95v4.1c-1.141.232-2 1.24-2 2.45v9c0 1.381 1.119 2.5 2.5 2.5h39c1.381 0 2.5-1.119 2.5-2.5v-9c0-1.21-.859-2.218-2-2.45v-4.1c1.141-.232 2-1.24 2-2.45v-9c0-1.381-1.119-2.5-2.5-2.5h-39c-1.381 0-2.5 1.119-2.5 2.5v9c0 1.21.859 2.218 2 2.45zm35 8.05c-1.656 0-3 1.344-3 3s1.344 3 3 3 3-1.344 3-3-1.344-3-3-3zm-8 0c-1.656 0-3 1.344-3 3s1.344 3 3 3 3-1.344 3-3-1.344-3-3-3zm8 2c.552 0 1 .448 1 1s-.448 1-1 1-1-.448-1-1 .448-1 1-1zm-8 0c.552 0 1 .448 1 1s-.448 1-1 1-1-.448-1-1 .448-1 1-1zm-23 2h16c.552 0 1-.448 1-1s-.448-1-1-1h-16c-.552 0-1 .448-1 1s.448 1 1 1zm-2-8h36v-4h-36zm33-14c-1.656 0-3 1.344-3 3s1.344 3 3 3 3-1.344 3-3-1.344-3-3-3zm-8 0c-1.656 0-3 1.344-3 3s1.344 3 3 3 3-1.344 3-3-1.344-3-3-3zm8 2c.552 0 1 .448 1 1s-.448 1-1 1-1-.448-1-1 .448-1 1-1zm-8 0c.552 0 1 .448 1 1s-.448 1-1 1-1-.448-1-1 .448-1 1-1zm-23 2h16c.552 0 1-.448 1-1s-.448-1-1-1h-16c-.552 0-1 .448-1 1s.448 1 1 1z" fill="url(#_Linear1)"/></g></g></svg>