<svg height="602" viewBox="0 0 345 602" width="345" xmlns="http://www.w3.org/2000/svg"><g fill="none" fill-rule="evenodd" transform="translate(2 2)"><path d="m44.743 2.195h250.97c22.877 0 41.423 18.856 41.423 42.117v510.13c0 23.26-18.546 42.117-41.423 42.117h-250.97c-22.877 0-41.423-18.857-41.423-42.117v-510.13c0-23.261 18.546-42.117 41.423-42.117" fill="#fff"/><path d="m43.789 3.51h60.095 115.536c24.618 0 49.236-.063 73.854 0 21.825.055 39.92 16.635 41.355 38.624.242 3.699.092 7.452.092 11.156v61.506 101.711 118.383 111.518 81.118c0 14.016 2.201 31.455-3.646 44.549-6.115 13.694-19.368 22.899-34.413 23.169-1.601.029-3.205 0-4.807 0-10.665 0-21.331 0-31.996 0-37.013 0-74.025 0-111.038 0-30.942 0-61.884 0-92.827 0-10.453 0-20.324.21-29.851-5.35-13.776-8.04-20.408-22.739-20.408-38.237 0-16.086 0-32.172 0-48.258 0-31.384 0-62.768 0-94.152 0-38.837 0-77.674 0-116.51 0-38.445 0-76.889 0-115.334 0-30.207 0-60.414 0-90.622 0-14.122-.126-28.251 0-42.374.191-21.375 15.877-40.525 38.054-40.897 1.735-.029 5.146-2.684 1.908-2.629-24.455.411-44.505 19.379-44.792 44.119-.04 3.503 0 7.009 0 10.511v66.549 105.924 121.213 111.096 75.737c0 5.688-.008 11.376 0 17.064.022 15.318 6.534 29.602 19.704 38.039 9.872 6.324 20.474 6.74 31.635 6.74h37.508 115.514 85.122c14.276 0 27.758-3.658 37.755-14.582 8.416-9.197 11.408-20.636 11.408-32.77 0-17.628 0-35.256 0-52.884 0-32.987 0-65.973 0-98.96 0-39.969 0-79.938 0-119.908 0-38.463 0-76.927 0-115.39 0-28.956 0-57.911 0-86.866 0-12.566 1.273-25.929-.363-38.449-2.844-21.755-21.729-37.068-43.268-37.183-7.945-.043-15.893 0-23.838 0-35.962 0-71.925 0-107.887 0-33.994 0-67.988 0-101.982 0-5.505 0-11.011 0-16.516 0-1.746 0-5.151 2.629-1.908 2.629" fill="#5d7183" stroke="#5d7183" stroke-width="4"/><path d="m21.813 519.961h296.83v-447.302h-296.83z" fill="#bbdff5"/><path d="m21.813 519.961h284.607v-447.302h-284.607z" fill="#def3f9"/><path d="m20.796 521.102h100.285 159.849 36.696c.873 0 3.432-.517 3.432-1.727 0-14.791 0-29.582 0-44.374 0-35.694 0-71.389 0-107.083 0-43.027 0-86.055 0-129.082 0-37.209 0-74.418 0-111.627 0-12.28 0-24.56 0-36.839 0-3.857 0-7.713 0-11.57 0-1.635.563-4.479 0-6.04-.07-.193 0-.535 0-.748 0-.493-1.161-.433-1.398-.433-33.428 0-66.857 0-100.285 0-53.283 0-106.566 0-159.849 0-12.232 0-24.464 0-36.696 0-.873 0-3.432.517-3.432 1.727v44.373 107.084 129.082 111.626 36.84 11.569c0 1.636-.563 4.479 0 6.04.069.193 0 .535 0 .749 0 .972 4.83.23 4.83-1.294 0-14.791 0-29.582 0-44.374 0-35.694 0-71.389 0-107.083 0-43.027 0-86.055 0-129.082 0-37.209 0-74.418 0-111.627 0-12.28 0-24.56 0-36.839 0-3.857 0-7.713 0-11.57 0-1.709.518-4.39 0-6.04-.065-.204 0-.528 0-.748-1.144.575-2.288 1.151-3.432 1.727h100.285 159.849 36.696c-.466-.144-.932-.289-1.398-.433v44.373 107.084 129.082 111.626 36.84 11.569c0 1.71-.518 4.39 0 6.04.065.204 0 .528 0 .749 1.144-.576 2.288-1.151 3.432-1.727-33.428 0-66.857 0-100.285 0-53.283 0-106.566 0-159.849 0-12.232 0-24.464 0-36.696 0-1.449 0-5.237 2.16-2.034 2.16" fill="#5d7183" stroke="#587185" stroke-width="3"/><path d="m137.62 44.435h30.328 19.786c3.222 0 7.186.523 10.222-.827 6.676-2.97 6.826-12.76-.795-14.605-2.998-.725-6.602-.245-9.64-.245-13.337 0-26.674 0-40.011 0-3.863 0-8.74-.747-12.47.598-8.468 3.054-6.833 14.188 1.961 15.074 2.285.231 4.966-3.051 1.707-3.38-4.707-.474-6.903-7.53-.881-8.903.861-.196 1.984 0 2.862 0h12.67 32.621c2.558 0 5.561-.437 8.093 0 4.27.738 6.361 7.467.652 8.899-.635.159-1.496 0-2.145 0-9.553 0-19.106 0-28.659 0-8.611 0-17.222 0-25.833 0-2.703 0-3.754 3.389-.468 3.389" fill="#e5e5e5"/><path d="m140.424 43.714h30.826 19.287c3.094 0 6.507.351 9.55-.369 6.201-1.467 10.832-10.16 2.944-13.337-2.98-1.2-7.293-.529-10.39-.529-13.471 0-26.942 0-40.413 0-3.741 0-7.981-.504-11.669.368-8.332 1.971-9.766 12.896-.135 13.867 1.035.104 5.505-1.709 3.138-1.948-6.187-.623-7.235-10.34-.97-10.34h12.672 33.519c2.649 0 5.574-.348 8.208 0 5.473.724 7.775 9.496 1.82 10.34-3.59.51-7.629 0-11.25 0-5.723 0-11.445 0-17.168 0-8.944 0-17.887 0-26.831 0-1.017 0-5.458 1.948-3.138 1.948" fill="#5d7183"/><path d="m104.113 43.935c4.135 0 8.948-2.573 9.494-7.026.536-4.363-3.113-7.544-7.256-7.638-3.971-.09-8.735 2.166-9.654 6.364-.978 4.466 2.587 8.042 6.885 8.274 1.085.058 2.592-.109 3.415-.915.595-.583.737-1.362-.381-1.422-2.512-.136-4.566-1.796-5.104-4.305-.409-1.907.31-5.353 2.67-5.615 2.327-.258 4.24 2.693 4.557 4.598.268 1.601-.468 5.295-2.653 5.295-.83 0-2.839.348-3.208 1.246-.384.939.321 1.144 1.235 1.144" fill="#e5e5e5"/><path d="m107.926 43.831c4.126 0 9.132-2.205 9.718-6.773.568-4.43-2.748-7.57-7.021-7.693-3.969-.114-8.912 1.879-9.878 6.143-1.014 4.472 2.267 8.079 6.655 8.316 1.065.057 2.592-.168 3.415-.916.62-.562.747-1.193-.335-1.251-2.693-.145-4.721-2.201-5.031-4.857-.213-1.825.51-5.254 2.842-5.243 2.612.012 4.401 2.858 4.564 5.16.127 1.796-.66 4.932-2.901 4.932-1.462 0-5.233 2.182-2.028 2.182" fill="#5d7183"/><path d="m150.156 574.163h26.425c10.833 0 19.185-5.044 18.992-16.817-.114-6.955-4.434-12.735-11.577-13.671-3.279-.429-6.739-.136-10.033-.136-5.511 0-11.022 0-16.533 0-3.807 0-7.494-.112-11.127 1.297-14.3 5.546-12.261 28.459 3.853 29.327 1.099.059 5.519-1.927 3.109-2.057-6.904-.372-11.372-5.708-11.64-12.383-.253-6.308 1.482-12.862 8.811-14.126 2.491-.43 5.444 0 7.969 0h12.9c2.533 0 5.092-.11 7.624 0 6.41.277 11.315 5.004 11.777 11.437.411 5.708-.447 11.536-6.203 14.051-3.084 1.348-5.855 1.021-9.218 1.021-7.34 0-14.68 0-22.02 0-1.082 0-5.483 2.057-3.109 2.057" fill="#e3e3e3"/><path d="m154.871 574.714h26.425c11.191 0 18.872-6.127 18.337-17.884-.307-6.754-4.612-12.228-11.367-13.553-3.509-.689-7.384-.288-10.93-.288-5.512 0-11.023 0-16.534 0-4.078 0-8.031-.133-11.8 1.762-6.384 3.208-8.42 9.255-8.18 15.99.288 8.042 6.106 13.545 14.049 13.973 2.121.114 5.031-2.983 1.766-3.159-13.568-.731-15.53-24.176-1.486-25.408 6.842-.6 14.001 0 20.869 0 2.529 0 5.098-.135 7.624 0 6.639.355 10.895 5.242 11.126 11.754.215 6.081-1.729 12.82-8.834 13.622-2.373.267-4.898.032-7.278.032-7.34 0-14.68 0-22.021 0-2.088 0-5.02 3.159-1.766 3.159" fill="#5d7183"/><path d="m254.449 218.633c.87-2.417 1.36-5.017 1.386-7.731.121-12.966-10.291-23.575-23.257-23.697-2.438-.023-4.793.327-7.01.996-4.552-10.995-9.832-21.519-18.62-30.128-17.476-17.118-44.316-24.448-67.403-15.159-10.363 4.169-19.461 11.116-26.804 19.478-3.841 4.374-7.218 9.153-10.106 14.205-.726 1.268-7.308 15.572-7.076 15.617-2.803-.55-5.454-.835-8.019-.859-28.257-.265-51.478 24.101-51.761 54.312s22.478 55.007 50.734 55.272c13.134.123 25.828-5.308 35.465-15.039 12.983 10.192 28.047 15.629 43.829 15.777 15.797.148 30.965-5.011 44.131-14.964 9.458 9.92 22.053 15.589 35.186 15.712.723.006 1.389-.026 2.003-.094.964.076 1.933.13 2.915.14 23.206.217 42.195-18.419 42.412-41.625.206-21.986-16.513-40.174-38.005-42.213" fill="#e5e5e5"/><path d="m253.979 217.382c.827-2.282 1.293-4.736 1.317-7.299.115-12.24-9.784-22.256-22.11-22.372-2.318-.022-4.557.309-6.665.94-4.327-10.38-9.347-20.316-17.703-28.444-16.613-16.161-42.13-23.082-64.077-14.314-9.851 3.935-18.5 10.492-25.48 18.386-3.652 4.129-6.861 8.64-9.607 13.41-.689 1.197-6.946 14.7-6.726 14.742-2.664-.519-5.185-.788-7.623-.811-26.862-.252-48.936 22.749-49.203 51.269-.267 28.521 21.372 51.931 48.234 52.183 12.485.117 24.553-5.01 33.714-14.196 12.342 9.623 26.664 14.757 41.667 14.897 15.017.141 29.436-4.728 41.952-14.123 8.992 9.365 20.966 14.717 33.451 14.834.687.006 1.32-.024 1.904-.088.916.071 1.838.123 2.771.132 22.061.206 40.111-17.386 40.317-39.293.194-20.755-15.701-37.927-36.133-39.853" fill="#fff"/><path d="m256.747 218.87c6.527-20.19-11.663-37.455-31.602-32.244.946.309 1.892.619 2.838.928-5.232-12.515-11.603-24.396-21.971-33.426-9.467-8.245-21.155-13.798-33.51-15.99-26.898-4.773-52.177 9.12-67.47 30.866-3.101 4.409-5.495 8.895-7.736 13.757-1.26 2.733-3.958 6.6-4.178 9.658 1.098-.63 2.197-1.261 3.295-1.892-29.357-5.266-56.532 16.275-62.025 44.837-5.548 28.85 11.933 59.981 41.525 66.176 17.666 3.699 35.341-2.513 48.071-14.984-1.293.233-2.585.465-3.878.698 27.326 20.992 63.803 20.913 91.416.493-1.267.003-2.533.006-3.8.009 17.157 17.457 46.798 22.704 67.733 8.613 19.724-13.276 25.414-40.784 11.97-60.552-7.356-10.816-19.225-17.436-32.122-18.871-2.284-.255-4.964 3.012-1.708 3.374 27.853 3.101 44.837 33.8 31.986 58.974-14.328 28.07-53.2 26.957-73.426 6.376-.982-.999-2.747-.769-3.8.009-25.837 19.106-59.122 18.366-84.505-1.133-1.121-.862-3.009-.154-3.878.697-11.261 11.03-26.928 16.45-42.512 12.876-11.922-2.734-22.297-10.24-29.274-20.201-14.925-21.309-12.807-51.959 5.438-70.644 10.752-11.011 25.918-16.092 41.081-13.372 1.077.193 3.199-.562 3.295-1.893.172-2.395 3.101-7.069 4.314-9.689 2.274-4.908 4.806-9.459 8.048-13.836 9.941-13.424 24.28-24.469 41.074-27.207 15.137-2.468 30.838 1.639 43.545 10.018 13.807 9.103 21.918 22.592 28.172 37.553.458 1.097 1.818 1.196 2.837.929 17.168-4.487 31.481 12.162 26.161 28.619-.837 2.588 3.969 2.415 4.596.474" fill="#5d7183"/><g fill="#6a79a8"><path d="m129.311 240.94c16.297 16.546 48.364 17.311 65.574 1.682 2.416-2.195-1.365-4.092-3.25-2.38-7.585 6.889-19.09 9.898-29.07 9.747-10.117-.152-22.488-4.775-28.847-11.23-1.613-1.638-6.168.393-4.407 2.181"/><path d="m136.182 221.046c.019-2.079-1.651-3.781-3.73-3.801-2.08-.019-3.782 1.651-3.801 3.731-.02 2.079 1.651 3.781 3.73 3.8 2.08.02 3.781-1.65 3.801-3.73"/><path d="m195.261 221.6c.02-2.08-1.651-3.782-3.73-3.801-2.08-.02-3.782 1.65-3.801 3.73-.02 2.08 1.651 3.781 3.73 3.801 2.08.019 3.782-1.651 3.801-3.73"/></g><path d="m240.223 414.181c0-42.033-34.074-76.107-76.107-76.107s-76.107 34.074-76.107 76.107 34.074 76.107 76.107 76.107 76.107-34.074 76.107-76.107" fill="#fff"/><path d="m242.638 413.534c-.298-33.129-21.971-62.976-53.734-72.876-29.802-9.289-64.029.442-84.524 23.953-22.18 25.443-24.886 63.714-6.33 91.956 17.981 27.365 51.587 39.797 83.23 32.467 35.291-8.175 61.03-39.078 61.358-75.5.005-.603-4.818.008-4.83 1.294-.276 30.754-19.273 59.853-48.568 70.469-29.9 10.834-64.353-.756-83.354-25.772-18.212-23.979-20.462-57.507-5.437-83.64 16.2-28.175 48.952-42.68 80.609-34.548 33.323 8.559 56.443 39.363 56.75 73.491.006.629 4.841-.024 4.83-1.294" fill="#fff"/><path d="m183.071 360.156v54.229h31.717c3.552 0 5.33 4.294 2.819 6.805l-50.609 50.609c-1.591 1.592-4.172 1.592-5.764 0l-50.609-50.609c-2.511-2.511-.732-6.805 2.819-6.805h30.724v-54.229c0-2.643 2.143-4.786 4.786-4.786h29.331c2.643 0 4.786 2.143 4.786 4.786" fill="#abefab"/></g></svg>