<svg height="728" viewBox="0 0 566 728" width="566" xmlns="http://www.w3.org/2000/svg"><g fill="none" fill-rule="evenodd"><path d="m5.58164217 644.427975c-4.683-5.912-6.42200001-12.863-4.212-21.031 15.37000003-56.805 85.28800003-54.784 119.20199983-54.579 42.656.258 87.036-1.058 125.495 12.947 16.095 5.861 52.538 11.342 58.84 30.608 16.531 50.614-99.655 64.036-118.464 64.646-31.356 1.018-154.1169998 1.172-180.86099983-32.591" fill="#e3e3e3"/><path d="m71.2536422 702.937975c-2.572-4.381-3.527-9.533-2.313-15.587 8.441-42.102 46.8369998-40.604 65.4609998-40.452 23.425.191 47.796-.784 68.916 9.596 8.839 4.344 28.852 8.406 32.313 22.686 9.078 37.513-54.727 47.46-65.056 47.913-17.219.754-84.6339998.868-99.3209998-24.156" fill="#e3e3e3"/><path d="m131.991642 613.298975c0 14.029-28.43 25.4-63.4999998 25.4-35.07 0-63.50000003-11.371-63.50000003-25.4 0-14.028 28.43000003-25.4 63.50000003-25.4 35.0699998 0 63.4999998 11.372 63.4999998 25.4" fill="#f9ab98"/><path d="m4.99164217 614.632975h126.99999983v-348.193h-126.99999983z" fill="#f9ab98"/><path d="m131.991642 266.439975c0 14.028-28.43 25.4-63.4999998 25.4-35.07 0-63.50000003-11.372-63.50000003-25.4 0-14.029 28.43000003-25.4 63.50000003-25.4 35.0699998 0 63.4999998 11.371 63.4999998 25.4" fill="#f4cac1"/><g fill="#587185"><path d="m129.576642 267.086975c-.251 7.052-6.763 11.743-12.471 14.693-9.655 4.989-20.8139998 7.161-31.5379998 8.274-21.344 2.214-46.525 1.128-65.846-9.325-5.114-2.767-11.07300003-6.946-12.14700003-13.108-1.106-6.348 3.94400003-11.368 8.82400003-14.521 8.533-5.514 19.026-7.987 28.942-9.499 12.409-1.893 25.136-2.06 37.614-.761 11.311 1.178 23.0699998 3.548 33.2669998 8.765 6.08 3.111 13.088 7.966 13.355 15.482.029.816 4.877.058 4.829-1.295-.27-7.626-7.474-12.68-13.633-15.831-10.102-5.168-21.5899998-7.576-32.7789998-8.878-23.343-2.716-50.768-1.403-71.938 9.929-5.593 2.994-12.31700003 7.583-13.34200003 14.387-1.069 7.096 5.015 12.527 10.48900003 15.85 9.164 5.562 20.115 8.245 30.604 9.854 13.638 2.092 27.661 2.301 41.365.703 11.852-1.382 24.0109998-3.945 34.7169998-9.394 6.527-3.322 14.23-8.526 14.517-16.62.026-.716-4.779-.116-4.829 1.295"/><path d="m7.40564217 613.985975c0-11.522 0-23.044 0-34.566 0-27.678 0-55.356 0-83.034 0-33.503 0-67.005 0-100.508 0-28.994 0-57.989 0-86.984 0-9.579 0-19.157 0-28.735 0-2.995 0-5.989 0-8.983 0-1.26.456-3.555 0-4.749-.061-.16 0-.455 0-.635 0-1.222-4.829-.401-4.829 1.295v34.565 83.035 100.507 86.984 28.736 8.982c0 1.26-.456 3.555 0 4.749.061.16 0 .455 0 .635 0 1.223 4.829.402 4.829-1.294"/><path d="m129.576642 267.086975v34.565 83.035 100.507 86.984 28.736 8.982c0 1.26-.456 3.555 0 4.749.061.16 0 .455 0 .635 0 1.223 4.829.402 4.829-1.294 0-11.522 0-23.044 0-34.566 0-27.678 0-55.356 0-83.034 0-33.503 0-67.005 0-100.508 0-28.994 0-57.989 0-86.984 0-9.579 0-19.157 0-28.735 0-2.995 0-5.989 0-8.983 0-1.26.456-3.555 0-4.749-.061-.16 0-.455 0-.635 0-1.222-4.829-.401-4.829 1.295"/><path d="m129.576642 613.946975c-.343 9.655-11.765 14.923-19.505 17.707-14.3939998 5.176-30.2999998 6.497-45.4929998 5.968-13.647-.475-27.87-2.445-40.491-7.924-7.088-3.077-16.37100003-8.286-16.68200003-17.046-.029-.816-4.877-.058-4.829 1.295.366 10.302 12.65400003 15.927 20.87900003 18.959 15.068 5.553 31.702 7.121 47.655 6.721 14.952-.374 30.3769998-2.513 44.2739998-8.294 7.847-3.265 18.675-8.93 19.021-18.681.026-.716-4.779-.116-4.829 1.295"/></g><path d="m295.006642 623.294975c0 14.028-28.43 25.4-63.5 25.4s-63.5-11.372-63.5-25.4 28.43-25.4 63.5-25.4 63.5 11.372 63.5 25.4" fill="#f4cac1"/><path d="m168.006642 624.627975h127v-348.193h-127z" fill="#f9ab98"/><path d="m295.006642 276.434975c0 14.028-28.43 25.4-63.5 25.4s-63.5-11.372-63.5-25.4 28.43-25.4 63.5-25.4 63.5 11.372 63.5 25.4" fill="#f4cac1"/><path d="m292.591642 277.081975c-.25 7.052-6.763 11.743-12.47 14.693-9.655 4.99-20.815 7.161-31.539 8.274-21.343 2.214-46.524 1.128-65.845-9.325-5.115-2.767-11.074-6.945-12.147-13.107-1.107-6.349 3.943-11.368 8.824-14.522 8.532-5.513 19.026-7.986 28.942-9.499 12.409-1.893 25.136-2.06 37.613-.761 11.312 1.178 23.07 3.548 33.268 8.765 6.08 3.111 13.087 7.967 13.354 15.482.029.816 4.878.058 4.83-1.294-.271-7.627-7.475-12.681-13.633-15.832-10.102-5.168-21.59-7.576-32.779-8.878-23.343-2.715-50.769-1.403-71.939 9.929-5.593 2.994-12.317 7.583-13.341 14.387-1.069 7.096 5.015 12.527 10.489 15.85 9.164 5.563 20.115 8.245 30.603 9.854 13.639 2.092 27.662 2.301 41.366.703 11.852-1.382 24.011-3.945 34.716-9.394 6.528-3.322 14.231-8.526 14.518-16.619.025-.717-4.78-.117-4.83 1.294" fill="#6a79a8"/><path d="m170.421642 623.980975c0-11.522 0-23.044 0-34.566 0-27.678 0-55.356 0-83.034 0-33.503 0-67.005 0-100.507 0-28.995 0-57.99 0-86.985 0-9.578 0-19.157 0-28.735 0-2.994 0-5.989 0-8.983 0-1.26.455-3.554 0-4.749-.061-.16 0-.455 0-.634 0-1.223-4.83-.402-4.83 1.294v34.566 83.034 100.507 86.985 28.735 8.982c0 1.261-.455 3.555 0 4.749.061.161 0 .456 0 .635 0 1.223 4.83.402 4.83-1.294" fill="#587185"/><path d="m292.591642 277.081975v34.566 83.034 100.507 86.985 28.735 8.982c0 1.261-.455 3.555 0 4.749.061.161 0 .456 0 .635 0 1.223 4.83.402 4.83-1.294 0-11.522 0-23.044 0-34.566 0-27.678 0-55.356 0-83.034 0-33.503 0-67.005 0-100.507 0-28.995 0-57.99 0-86.985 0-9.578 0-19.157 0-28.735 0-2.994 0-5.989 0-8.983 0-1.26.455-3.554 0-4.749-.061-.16 0-.455 0-.634 0-1.223-4.83-.402-4.83 1.294" fill="#587185"/><path d="m295.006642 623.294975c0 14.028-28.43 25.4-63.5 25.4s-63.5-11.372-63.5-25.4" fill="#f9ab98"/><path d="m292.591642 623.941975c-.343 9.655-11.765 14.923-19.505 17.707-14.394 5.176-30.299 6.497-45.492 5.968-13.648-.475-27.87-2.445-40.491-7.924-7.089-3.077-16.371-8.286-16.682-17.045-.029-.816-4.878-.059-4.83 1.294.366 10.302 12.654 15.927 20.88 18.959 15.067 5.554 31.702 7.121 47.655 6.722 14.952-.375 30.377-2.514 44.273-8.295 7.848-3.265 18.676-8.93 19.022-18.68.025-.717-4.78-.117-4.83 1.294" fill="#587185"/><path d="m213.999642 686.304975c0 14.028-28.43 25.4-63.5 25.4s-63.4999998-11.372-63.4999998-25.4 28.4299998-25.4 63.4999998-25.4 63.5 11.372 63.5 25.4" fill="#f9ab98"/><path d="m86.9996422 687.637975h126.9999998v-348.193h-126.9999998z" fill="#ef8f7f"/><path d="m213.999642 339.444975c0 14.028-28.43 25.4-63.5 25.4s-63.4999998-11.372-63.4999998-25.4 28.4299998-25.4 63.4999998-25.4 63.5 11.372 63.5 25.4" fill="#f4cac1"/><path d="m211.584642 340.091975c-.25 7.052-6.763 11.743-12.47 14.693-9.655 4.99-20.815 7.161-31.539 8.274-21.344 2.214-46.524 1.128-65.845-9.325-5.1149998-2.767-11.0739998-6.946-12.1479998-13.107-1.106-6.349 3.944-11.369 8.825-14.522 8.5319998-5.514 19.0249998-7.987 28.9419998-9.499 12.409-1.893 25.135-2.06 37.613-.761 11.311 1.178 23.07 3.548 33.267 8.765 6.081 3.111 13.088 7.966 13.355 15.482.029.816 4.878.058 4.83-1.294-.271-7.627-7.475-12.681-13.634-15.832-10.101-5.168-21.589-7.576-32.778-8.878-23.343-2.716-50.769-1.403-71.9389998 9.929-5.593 2.994-12.317 7.583-13.342 14.387-1.068 7.096 5.016 12.527 10.49 15.85 9.1639998 5.562 20.1149998 8.245 30.6029998 9.854 13.639 2.092 27.662 2.301 41.366.703 11.851-1.382 24.01-3.945 34.716-9.394 6.528-3.322 14.23-8.526 14.518-16.619.025-.717-4.78-.117-4.83 1.294" fill="#6a79a8"/><path d="m89.4146422 686.990975c0-11.522 0-23.044 0-34.566 0-27.678 0-55.356 0-83.034 0-33.503 0-67.005 0-100.507 0-28.995 0-57.99 0-86.985 0-9.578 0-19.157 0-28.735 0-2.995 0-5.989 0-8.983 0-1.26.455-3.555 0-4.749-.061-.16 0-.455 0-.634 0-1.223-4.83-.402-4.83 1.294v34.566 83.034 100.507 86.985 28.735 8.982c0 1.261-.455 3.555 0 4.749.061.16 0 .455 0 .635 0 1.223 4.83.402 4.83-1.294" fill="#587185"/><path d="m211.584642 340.091975v34.566 83.034 100.507 86.985 28.735 8.982c0 1.261-.455 3.555 0 4.749.061.16 0 .455 0 .635 0 1.223 4.83.402 4.83-1.294 0-11.522 0-23.044 0-34.566 0-27.678 0-55.356 0-83.034 0-33.503 0-67.005 0-100.507 0-28.995 0-57.99 0-86.985 0-9.578 0-19.157 0-28.735 0-2.995 0-5.989 0-8.983 0-1.26.455-3.555 0-4.749-.061-.16 0-.455 0-.634 0-1.223-4.83-.402-4.83 1.294" fill="#587185"/><path d="m213.999642 686.304975c0 14.028-28.43 25.4-63.5 25.4s-63.4999998-11.372-63.4999998-25.4" fill="#ef8f7f"/><path d="m211.584642 686.951975c-.343 9.655-11.765 14.923-19.505 17.707-14.394 5.176-30.299 6.497-45.493 5.968-13.647-.475-27.869-2.445-40.49-7.924-7.0889998-3.077-16.3709998-8.286-16.6819998-17.045-.029-.817-4.878-.059-4.83 1.294.366 10.302 12.654 15.927 20.8799998 18.959 15.067 5.554 31.702 7.121 47.655 6.722 14.951-.375 30.377-2.514 44.273-8.295 7.848-3.265 18.675-8.93 19.022-18.68.025-.717-4.78-.117-4.83 1.294" fill="#6a79a8"/><g fill="#587185"><path d="m73.4336422 259.085975c-5.507-55.654 40.3589998-112.621 97.2759998-114.658 29.819-1.068 58.085 12.942 84.528 24.971 25.226 11.475 51.735 23.661 79.979 23.991 29.135.339 58.551-13.438 69.209-41.983.671-1.797-4.197-1.235-4.852.52-11.12 29.781-43.083 41.117-72.691 37.811-29.8-3.328-56.972-18.212-83.998-30.123-25.052-11.042-52.087-21.138-79.936-17.465-25.674 3.387-49.294 17.087-66.3729998 36.354-19.803 22.341-30.934 51.931-27.971 81.876.179 1.811 5.029.72 4.829-1.294"/><path d="m151.369642 334.235975c-1.518-23.759-2.852-48.652 4.478-71.66 8.331-26.15 30.02-42.737 55.784-50.274 44.783-13.1 91.805 2.974 136.655-8.845 10.725-2.826 21.026-7.438 29.791-14.298 4.541-3.554 8.609-7.629 12.186-12.15 4.558-5.761 6.406-11.777 9.076-18.473.93-2.333-3.883-1.914-4.541-.264-2.237 5.61-3.74 11.256-7.345 16.209-3.778 5.19-8.362 9.885-13.478 13.763-8.906 6.752-19.333 10.957-30.185 13.391-22.213 4.984-45.402 3.163-67.941 2.266-24.188-.963-48.533-.359-71.603 7.822-22.505 7.98-42.134 22.855-51.143 45.482-9.818 24.657-8.222 52.373-6.564 78.325.114 1.785 4.959.734 4.83-1.294"/><path d="m399.579642 148.614975c-1.262 8.675-3.53 17.098-7.984 24.712-4.067 6.952-9.537 12.902-15.039 18.73-6.326 6.701-12.352 14.016-19.79 19.526-7.535 5.581-16.13 9.579-25.013 12.497-16.611 5.457-34.048 7.409-51.251 10.079-11.771 1.826-24.024 3.457-34.751 8.965-13.922 7.148-19.778 19.963-19.033 35.309.081 1.656 4.924.652 4.83-1.294-.756-15.556 5.856-27.982 20.543-33.883 12.275-4.932 26.15-6.041 39.129-7.959 16.689-2.467 33.565-5.2 49.288-11.564 7.426-3.006 14.531-6.862 20.872-11.775 7.089-5.493 12.941-12.495 19.079-18.994 5.573-5.902 11.163-11.941 15.351-18.936 4.773-7.971 7.279-16.833 8.609-25.976.29-1.991-4.587-1.176-4.84.563"/></g><path d="m290.841642 163.079975 82.413 18.838-10.285 83.634 61.486-61.001 52.417 62.579s-.13-46.671 1.407-70.371c15.866 1.614 69.005 3.458 69.005 3.458l-49.024-59.664 61.974-33.847-75.167-12.1290001 13.668-67.971-59.964 44.821-42.659-67.444s-.432 56.626-1.923 84.169c-34.267-15.052-32.847-15.223-67.114-30.275 13.858 26.363 26.377 47.7430001 41.65 70.8560001-20.4 8.52-77.884 34.347-77.884 34.347" fill="#f7e080"/><path d="m287.938642 165.905975c27.471 6.279 54.942 12.559 82.413 18.838-.649-.766-1.297-1.531-1.946-2.297-3.429 27.878-6.857 55.756-10.285 83.635-.524 4.258 7.273 1.958 8.776.466 17.891-17.75 35.781-35.499 53.672-53.249 2.604-2.584 5.209-5.168 7.814-7.752-2.798.323-5.595.647-8.392.97 17.473 20.86 34.945 41.72 52.418 62.579 1.818 2.171 9.323.761 9.314-2.495-.062-23.437-.068-46.975 1.406-70.371-2.22 1.172-4.441 2.344-6.662 3.516 22.88 2.265 46.036 2.658 69.005 3.458 1.87.065 8.748-1.946 6.277-4.953-16.341-19.888-32.682-39.776-49.024-59.664-.467 1.215-.934 2.431-1.401 3.646 20.658-11.282 41.316-22.565 61.974-33.847 1.95-1.065 2.687-4.047-.16-4.506-25.056-4.0430001-50.112-8.0860001-75.167-12.1290001.649.765 1.297 1.531 1.946 2.296 4.556-22.657 9.112-45.314 13.668-67.971.756-3.757-6.441-2.25-7.912-1.15-19.988 14.94-39.976 29.88-59.964 44.821 2.51-.096 5.019-.191 7.528-.286-14.22-22.482-28.439-44.963-42.659-67.444-1.585-2.506-9.291-.521-9.314 2.495-.217 28.048-.438 56.157-1.924 84.17 2.885-1.004 5.77-2.008 8.655-3.011-22.469-9.879-44.645-20.396-67.114-30.275-1.756-.772-10.478.276-8.634 3.775 12.902 24.497 26.773 48.4090001 42.015 71.5280001.827-1.409 1.655-2.818 2.482-4.228-26.168 10.953-52.009 22.723-77.884 34.348-6.093 2.737-.586 6.568 3.964 4.523 25.875-11.624 51.717-23.395 77.884-34.347 1.588-.665 3.708-2.37 2.483-4.228-14.961-22.692-28.62-46.1390001-41.285-70.1840001-2.878 1.259-5.756 2.517-8.634 3.775 22.468 9.879 44.644 20.396 67.113 30.275 2.179.959 8.477.337 8.654-3.01 1.486-28.013 1.707-56.122 1.924-84.17-3.105.832-6.209 1.664-9.314 2.496 14.219 22.482 28.439 44.963 42.659 67.444 1.332 2.106 6.092.787 7.527-.286 19.988-14.94 39.976-29.881 59.964-44.821-2.638-.384-5.275-.767-7.913-1.151-4.556 22.657-9.112 45.314-13.668 67.971-.239 1.187.87 2.123 1.947 2.297 25.055 4.0430001 50.111 8.0860001 75.167 12.1290001-.053-1.502-.107-3.004-.16-4.506-20.658 11.282-41.316 22.564-61.974 33.847-1.192.651-2.458 2.361-1.402 3.646 16.341 19.888 32.683 39.776 49.024 59.664 2.092-1.65 4.185-3.301 6.277-4.952-22.97-.8-46.125-1.194-69.005-3.458-1.831-.182-6.503.999-6.662 3.516-1.474 23.396-1.468 46.934-1.406 70.371 3.104-.832 6.209-1.664 9.314-2.496-17.473-20.86-34.945-41.719-52.418-62.579-1.902-2.271-6.67-.737-8.392.97-17.89 17.75-35.78 35.499-53.671 53.249-2.604 2.584-5.209 5.168-7.814 7.752 2.926.156 5.851.311 8.777.467 3.428-27.878 6.857-55.757 10.285-83.635.154-1.254-.807-2.036-1.947-2.296-27.471-6.279-54.942-12.558-82.413-18.837-2.15-.492-5.326.07-6.83 1.83-1.288 1.508-1.197 3.314 1.024 3.821" fill="#ffeea7"/></g></svg>