<?xml version="1.0" ?><!DOCTYPE svg  PUBLIC '-//W3C//DTD SVG 1.1//EN'  'http://www.w3.org/Graphics/SVG/1.1/DTD/svg11.dtd'><svg height="100%" style="shape-rendering:geometricPrecision; text-rendering:geometricPrecision; image-rendering:optimizeQuality; fill-rule:evenodd; clip-rule:evenodd" viewBox="0 0 21.0001 21.0001" width="100%" xml:space="preserve" xmlns="http://www.w3.org/2000/svg" xmlns:xlink="http://www.w3.org/1999/xlink"><defs><style type="text/css">
   <![CDATA[
    .fil0 {fill:none}
    .fil1 {fill:#00BA00}
   ]]>
  </style></defs><g id="图层_x0020_1"><rect class="fil0" height="21.0001" width="21.0001"/><path class="fil1" d="M10.5038 1.31775c5.07328,0 9.1876,4.11432 9.1876,9.1876 0,5.07328 -4.11432,9.1876 -9.1876,9.1876 -5.07328,0 -9.1876,-4.11432 -9.1876,-9.1876 0,-5.07328 4.11432,-9.1876 9.1876,-9.1876zm-1.90792 12.1718l-2.24935 -2.25121c-0.38321,-0.38344 -0.38329,-1.00872 0,-1.39208l0 0c0.38337,-0.38329 1.01143,-0.38089 1.39201,0l1.58578 1.58702 3.94488 -3.94488c0.38337,-0.38337 1.00872,-0.38337 1.39201,0l0 0c0.38337,0.38329 0.38282,1.00918 0,1.39201l-4.64201 4.64201c-0.38282,0.38282 -1.00872,0.38337 -1.39201,0l0 0c-0.01077,-0.01077 -0.02116,-0.0217 -0.03131,-0.03286l0 -1e-005z"/></g></svg>