<?xml version="1.0" ?><svg data-name="Layer 3" id="Layer_3" viewBox="0 0 24 24" xmlns="http://www.w3.org/2000/svg" xmlns:xlink="http://www.w3.org/1999/xlink"><defs><linearGradient gradientUnits="userSpaceOnUse" id="linear-gradient" x1="3.879" x2="20.121" y1="3.879" y2="20.121"><stop offset="0" stop-color="#effff4"/><stop offset="1" stop-color="#d1ffec"/></linearGradient><linearGradient gradientUnits="userSpaceOnUse" id="linear-gradient-2" x1="3.88" x2="7.207" y1="3.88" y2="7.207"><stop offset="0" stop-color="#6be8a7"/><stop offset="1" stop-color="#01b59c"/></linearGradient><linearGradient id="linear-gradient-3" x1="15.249" x2="21.664" xlink:href="#linear-gradient-2" y1="2.336" y2="8.751"/><linearGradient id="linear-gradient-4" x1="16.793" x2="20.12" xlink:href="#linear-gradient-2" y1="16.793" y2="20.12"/><linearGradient id="linear-gradient-5" x1="2.336" x2="8.751" xlink:href="#linear-gradient-2" y1="15.249" y2="21.664"/><linearGradient gradientUnits="userSpaceOnUse" id="linear-gradient-6" x1="8.293" x2="15.707" y1="8.293" y2="15.707"><stop offset="0" stop-color="#ffa58d"/><stop offset="1" stop-color="#fe848a"/></linearGradient></defs><rect height="18" rx="3" style="fill:url(#linear-gradient)" width="18" x="3" y="3"/><path d="M4,10A1,1,0,0,1,3,9V6A3,3,0,0,1,6,3H9A1,1,0,0,1,9,5H6A1,1,0,0,0,5,6V9A1,1,0,0,1,4,10Z" style="fill:url(#linear-gradient-2)"/><path d="M20,10a1,1,0,0,1-1-1V6a1,1,0,0,0-1-1H15a1,1,0,0,1,0-2h3a3,3,0,0,1,3,3V9A1,1,0,0,1,20,10Z" style="fill:url(#linear-gradient-3)"/><path d="M18,21H15a1,1,0,0,1,0-2h3a1,1,0,0,0,1-1V15a1,1,0,0,1,2,0v3A3,3,0,0,1,18,21Z" style="fill:url(#linear-gradient-4)"/><path d="M9,21H6a3,3,0,0,1-3-3V15a1,1,0,0,1,2,0v3a1,1,0,0,0,1,1H9a1,1,0,0,1,0,2Z" style="fill:url(#linear-gradient-5)"/><path d="M18,13H6a1,1,0,0,1,0-2H18a1,1,0,0,1,0,2Z" style="fill:url(#linear-gradient-6)"/></svg>