<?xml version="1.0" ?><svg style="enable-background:new 0 0 48 48;" version="1.1" viewBox="0 0 48 48" xml:space="preserve" xmlns="http://www.w3.org/2000/svg" xmlns:xlink="http://www.w3.org/1999/xlink"><style type="text/css">
	.st0{display:none;}
	.st1{display:inline;}
	.st2{fill:none; stroke:#e100ff;stroke-width:2;stroke-miterlimit:10;}
</style><g class="st0" id="Layer_1"/><g id="Layer_2"><g><g><polyline class="st2" points="27,34 27,28 30,28 24,21 18,28 21,28 21,38    "/><line class="st2" x1="21" x2="21" y1="40" y2="45"/><line class="st2" x1="27" x2="27" y1="36" y2="40"/><line class="st2" x1="27" x2="27" y1="42" y2="45"/><path class="st2" d="M10.6,18.9C10.2,17.7,10,16.4,10,15"/><path class="st2" d="M30,33h11c3.3,0,6-2.7,6-6c0-3-2.2-5.5-5.1-5.9c0-0.4,0.1-0.7,0.1-1.1c0-4.4-3.6-8-8-8c-0.1,0-0.3,0-0.4,0     c-1.3-5.2-6-9-11.6-9c-6.6,0-12,5.4-12,12c-5,0-9,4-9,9s4,9,9,9h8"/><path class="st2" d="M28.5,14.2c1.4-1.3,3.4-2.2,5.5-2.2"/></g></g></g></svg>