<?xml version="1.0" ?><svg data-name="Слой 1 (копия)" id="Слой_1_копия_" viewBox="0 0 32 32" xmlns="http://www.w3.org/2000/svg" xmlns:xlink="http://www.w3.org/1999/xlink"><defs><style>.cls-1{fill:url(#Безымянный_градиент_115);}.cls-2{fill:none;stroke:#beeffd;stroke-linecap:round;stroke-linejoin:round;stroke-width:2px;}.cls-3{fill:url(#Безымянный_градиент_34);}</style><linearGradient gradientUnits="userSpaceOnUse" id="Безымянный_градиент_115" x1="25.69" x2="3.3" y1="29.19" y2="6.8"><stop offset="0" stop-color="#0179ee"/><stop offset="1" stop-color="#00cdfb"/></linearGradient><linearGradient gradientUnits="userSpaceOnUse" id="Безымянный_градиент_34" x1="22.89" x2="19.82" y1="7.11" y2="10.18"><stop offset="0" stop-color="#7fbbf6"/><stop offset="1" stop-color="#d0fdff"/></linearGradient></defs><title/><path class="cls-1" d="M25,10H20V5a2,2,0,0,0-2-2H7A2,2,0,0,0,5,5V27a2,2,0,0,0,2,2H25a2,2,0,0,0,2-2V12A2,2,0,0,0,25,10Z"/><line class="cls-2" x1="10" x2="14" y1="16" y2="16"/><line class="cls-2" x1="10" x2="18" y1="20" y2="20"/><line class="cls-2" x1="10" x2="22" y1="24" y2="24"/><path class="cls-3" d="M18,3a2.19,2.19,0,0,1,2,2.17V10h4.5A2.31,2.31,0,0,1,27,12c0-.69-.44-1.51-1.49-2.49L20.26,4.26A2.88,2.88,0,0,0,18,3Z"/></svg>