<?xml version="1.0" ?><!DOCTYPE svg  PUBLIC '-//W3C//DTD SVG 1.1//EN'  'http://www.w3.org/Graphics/SVG/1.1/DTD/svg11.dtd'><svg height="6.82666in" style="shape-rendering:geometricPrecision; text-rendering:geometricPrecision; image-rendering:optimizeQuality; fill-rule:evenodd; clip-rule:evenodd" viewBox="0 0 6.82666 6.82666" width="6.82666in" xml:space="preserve" xmlns="http://www.w3.org/2000/svg" xmlns:xlink="http://www.w3.org/1999/xlink"><defs><style type="text/css">
   <![CDATA[
    .fil5 {fill:none}
    .fil4 {fill:none;fill-rule:nonzero}
    .fil3 {fill:#CD8E76}
    .fil2 {fill:#424242;fill-rule:nonzero}
    .fil1 {fill:#CD8E76;fill-rule:nonzero}
    .fil0 {fill:#F3AC90;fill-rule:nonzero}
   ]]>
  </style></defs><g id="Layer_x0020_1"><g id="_343186112"><path class="fil0" d="M2.898 5.46133l-0.576811 -0.157394c-0.440024,-0.111524 -0.856378,-0.805114 -1.08302,-1.18267 -0.0108386,-0.018063 -0.0213031,-0.0354843 -0.0325709,-0.0541575 -0.00273622,-0.00376378 -0.00530315,-0.00770079 -0.0076811,-0.0118228 -0.170732,-0.295717 -0.215618,-0.538535 -0.183055,-0.71889 0.0135906,-0.0752441 0.0405512,-0.140598 0.0778307,-0.195535 0.0387953,-0.0571614 0.0878622,-0.102146 0.144079,-0.134598 0.0377717,-0.021811 0.0713937,-0.035311 0.119508,-0.0463819 0.00570866,-0.00131102 0.0317047,0.00294882 0.0373858,0.00181102 0.0201811,-0.00405118 0.034748,-0.0106535 0.0534173,-0.017815 0.28478,0.493256 1.10751,1.24284 1.40413,1.75787 0.192094,0.333531 -0.141799,0.432937 0.0467913,0.759591z" id="_343191608"/><path class="fil1" d="M1.35142 2.96107c0.00327165,-0.00108661 0.0265984,0.00322047 0.0467835,-0.000444882 0.0225433,-0.00409449 0.0423307,-0.0161496 0.048874,-0.016752 0.0245433,0.0425118 0.0531732,0.0869724 0.0850236,0.13298l0.362839 0.584898c0.223047,0.35078 0.253591,0.394287 0.51235,0.653634 -0.169575,-0.121453 -0.363634,-0.183394 -0.606181,-0.599713 -0.138807,-0.23826 -0.363071,-0.615587 -0.449689,-0.754602z" id="_343190912"/><polygon class="fil2" id="_343190720" points="5.42633,4.76126 5.4263,4.7618 5.48703,4.72737 5.48674,4.72729 "/><polygon class="fil2" id="_343190672" points="5.48674,4.72729 5.48703,4.72737 5.48707,4.72735 5.48697,4.72717 "/><polygon class="fil2" id="_343191128" points="5.48697,4.72717 5.48707,4.72735 5.53743,4.6988 "/><polygon class="fil2" id="_343190816" points="5.66956,4.63986 5.66952,4.64041 5.73025,4.60597 5.72997,4.60589 "/><polygon class="fil2" id="_343191032" points="5.72997,4.60589 5.73025,4.60597 5.7303,4.60594 5.7302,4.60577 "/><polygon class="fil2" id="_343191008" points="5.7302,4.60577 5.7303,4.60594 5.78066,4.5774 "/><path class="fil0" d="M4.79935 1.78115c0.499244,0.741087 0.938984,1.39382 0.935894,2.4389 -4.33071e-005,0.0152205 0.00168504,0.0295787 0.00511024,0.0427126 0.00295669,0.0113465 0.00702756,0.0222835 0.0121654,0.0326299 0.00194882,0.00298031 0.00379528,0.00606299 0.00552756,0.00924803 0.0220906,0.0408268 0.0632323,0.109059 0.0952165,0.178618l0.120071 0.207969 -2.23811 1.29217 -0.0837323 -0.145028c-0.0310984,-0.0376654 -0.0527953,-0.0849449 -0.0748071,-0.129571 -0.0173386,-0.0351417 -0.0301772,-0.0631772 -0.0631693,-0.0884213 -0.0174016,-0.0133071 -0.0372874,-0.0230827 -0.058563,-0.0284764 -0.236913,-0.0600591 -0.415638,-0.0999016 -0.556961,-0.130567l-0.938311 -1.6252c0.00185039,0.00177953 0.00370079,0.0035315 0.00555118,0.00523622l-1.0476 -1.8145c-0.066189,-0.114642 -0.0796457,-0.245287 -0.0478858,-0.363815 0.0317598,-0.118531 0.108728,-0.224941 0.223378,-0.291134 0.114642,-0.066189 0.245287,-0.0796378 0.363815,-0.0478819 0.118528,0.0317638 0.224941,0.108732 0.291134,0.223378l0.0115394 0.0199882c0.0116417,0.0267205 0.0529055,0.0448425 0.0750276,0.024811 0.0245551,-0.0222362 0.0297362,-0.0846378 0.0345709,-0.0872717 0.0979291,-0.365472 0.392028,-0.458173 0.66472,-0.235165 0.0252874,0.0116142 0.0480394,-0.0279843 0.0702165,-0.0590118 0.0419606,-0.0800748 0.106378,-0.149598 0.190445,-0.198134 0.118165,-0.0682244 0.252835,-0.0820945 0.375016,-0.0493543 0.117957,0.0316063 0.224264,0.106654 0.292866,0.218138 0.0335827,-0.103693 0.10172,-0.196563 0.199319,-0.259689 0.0146654,-0.00947244 0.0297638,-0.0181535 0.0453465,-0.0260394 0.109626,-0.0554803 0.231799,-0.0656535 0.343823,-0.036437 0.120083,0.031315 0.228378,0.108173 0.296874,0.22326 0.145358,0.244201 0.301189,0.47552 0.451508,0.698646z" id="_343191104"/><path class="fil1" d="M3.44339 1.15268c0.0424843,0.0168346 0.0316417,-0.0285787 0.0636929,-0.0701299 0.231201,0.394469 0.739732,1.26674 0.674087,1.2731 -0.0477047,0.0275394 -0.509756,-0.811618 -0.73778,-1.20297z" id="_343190192"/><path class="fil1" d="M2.53369 1.26963c0.0216181,0.00770472 0.0360236,-0.00825984 0.0703701,-0.0586693 0.238457,0.407079 0.842213,1.44126 0.774201,1.44612 -0.0492795,0.0284488 -0.61115,-0.989976 -0.844571,-1.38745z" id="_343190048"/><path class="fil1" d="M1.76381 1.57481c0.0149803,0.0232992 0.0474567,0.0355472 0.0708346,0.0173976 0.0151181,-0.0117362 0.0237992,-0.0477402 0.0345709,-0.0872717 0.164433,0.280752 0.882378,1.48135 0.782472,1.50028l-0.886512 -1.42495 -0.00136614 -0.00545669z" id="_343190264"/><path class="fil3" d="M2.16524 1.36089c0.119161,-0.0572362 0.233213,-0.0734094 0.239874,-0.061874 0.00665748,0.0115315 -0.0965984,0.0463976 -0.21576,0.103638 -0.119161,0.0572362 -0.209102,0.115169 -0.21576,0.103634 -0.00665748,-0.0115315 0.0724882,-0.0881614 0.191646,-0.145398z" id="_343190576"/><path class="fil3" d="M2.96476 1.15311c0.135878,-0.0517835 0.26348,-0.0635354 0.270142,-0.0520039 0.00665748,0.0115354 -0.11015,0.0419803 -0.246028,0.0937677 -0.135878,0.0517874 -0.23937,0.105299 -0.246028,0.0937677 -0.00666142,-0.0115354 0.0860354,-0.0837441 0.221913,-0.135531z" id="_343189856"/><path class="fil3" d="M2.1988 1.419c0.1095,-0.0525945 0.207138,-0.0798701 0.21052,-0.0740079 0.00338583,0.0058622 -0.0887638,0.0426378 -0.198264,0.0952323 -0.1095,0.0525984 -0.194882,0.101098 -0.198264,0.0952362 -0.00338583,-0.0058622 0.0765118,-0.0638622 0.186008,-0.116461z" id="_343189688"/><path class="fil3" d="M2.99831 1.21122c0.124862,-0.0475906 0.234949,-0.0708031 0.238335,-0.0649409 0.00338189,0.0058622 -0.10122,0.0385787 -0.226079,0.0861654 -0.124862,0.0475866 -0.222697,0.0920236 -0.226079,0.0861614 -0.00338583,-0.0058622 0.0889646,-0.0597992 0.213823,-0.107386z" id="_343189304"/><g><path class="fil3" d="M1.25934 1.67976c0.17102,-0.0987402 0.332563,-0.13911 0.341299,-0.123972 0.00874016,0.0151339 -0.138638,0.0800394 -0.309654,0.17878 -0.17102,0.0987362 -0.300917,0.193913 -0.309657,0.17878 -0.00873622,-0.0151378 0.106996,-0.13485 0.278012,-0.233587z" id="_343189088"/><path class="fil3" d="M1.30337 1.75602c0.157154,-0.0907283 0.296189,-0.144122 0.30063,-0.136429 0.00444094,0.00769291 -0.127398,0.0735551 -0.284547,0.164283 -0.157154,0.0907323 -0.280106,0.171976 -0.284547,0.164283 -0.00444094,-0.00769291 0.111315,-0.101406 0.268465,-0.192138z" id="_343189448"/><path class="fil3" d="M1.33064 1.80326c0.142358,-0.0821929 0.262319,-0.140921 0.264059,-0.137909 0.00174016,0.00301181 -0.115402,0.066626 -0.25776,0.148819 -0.142358,0.082189 -0.256024,0.151831 -0.257764,0.148819 -0.00174016,-0.00301575 0.109106,-0.0775394 0.251465,-0.159728z" id="_343188776"/></g><g><path class="fil3" d="M1.288 3.51157c0.0974646,-0.090752 0.193933,-0.134094 0.200591,-0.122559 0.00665748,0.0115315 -0.0790118,0.0735669 -0.17648,0.164323 -0.0974685,0.0907559 -0.169823,0.175858 -0.17648,0.164327 -0.00665748,-0.0115354 0.0549016,-0.115335 0.15237,-0.206091z" id="_343188632"/><path class="fil3" d="M1.32155 3.56969c0.0895669,-0.0833976 0.171043,-0.135638 0.174425,-0.129776 0.00338583,0.00585827 -0.0726063,0.0676024 -0.162169,0.151 -0.089563,0.0833937 -0.158787,0.156862 -0.162169,0.151 -0.00338583,-0.0058622 0.0603504,-0.0888307 0.149913,-0.172224z" id="_343188896"/><path class="fil3" d="M1.34233 3.60568c0.0811299,-0.0755472 0.150378,-0.130772 0.151701,-0.128476 0.00132677,0.00229921 -0.0657677,0.0612441 -0.146902,0.136787 -0.0811339,0.0755472 -0.145579,0.139083 -0.146906,0.136787 -0.00132677,-0.00229528 0.0609724,-0.0695551 0.142106,-0.145098z" id="_343188488"/></g><path class="fil3" d="M2.21957 1.45499c0.0991929,-0.0476457 0.183079,-0.080252 0.184402,-0.0779567 0.00132677,0.00229921 -0.0804094,0.038626 -0.179598,0.0862717 -0.0991929,0.0476457 -0.178276,0.088563 -0.179602,0.0862677 -0.00132677,-0.00229528 0.0756102,-0.046937 0.174799,-0.0945827z" id="_343188008"/><path class="fil3" d="M3.01909 1.24721c0.113106,-0.0431063 0.208272,-0.0720315 0.209598,-0.0697362 0.00132677,0.00229528 -0.0916929,0.0349449 -0.204799,0.0780512 -0.113102,0.0431063 -0.203469,0.0803504 -0.204795,0.0780512 -0.00132677,-0.00229528 0.0868898,-0.0432559 0.199996,-0.0863661z" id="_343187768"/><path class="fil3" d="M3.8463 1.03654c0.135878,-0.0517874 0.26348,-0.0635394 0.270138,-0.0520039 0.00666142,0.0115315 -0.11015,0.0419803 -0.246028,0.0937677 -0.135874,0.0517835 -0.239366,0.105299 -0.246028,0.0937638 -0.00665748,-0.0115315 0.0860394,-0.0837441 0.221917,-0.135528z" id="_343188224"/><path class="fil3" d="M3.87985 1.09465c0.124858,-0.0475866 0.234949,-0.0707992 0.238331,-0.064937 0.00338583,0.0058622 -0.101217,0.0385748 -0.226075,0.0861614 -0.124862,0.0475866 -0.222697,0.0920276 -0.226079,0.0861654 -0.00338583,-0.0058622 0.0889646,-0.0598031 0.213823,-0.10739z" id="_343188176"/><path class="fil3" d="M3.90063 1.13065c0.113106,-0.0431063 0.208272,-0.0720354 0.209598,-0.0697402 0.00132283,0.00229528 -0.0916929,0.0349449 -0.204799,0.0780551 -0.113106,0.0431063 -0.203469,0.0803465 -0.204795,0.0780512 -0.00132677,-0.00229528 0.0868898,-0.0432598 0.199996,-0.0863661z" id="_343187744"/><path class="fil3" d="M4.18579 2.3208c0.0429882,0.0380472 0.079937,0.0562953 0.0807402,0.0514882 0.000799213,-0.00480315 -0.0348504,-0.0308425 -0.0778425,-0.0688858 -0.0429882,-0.0380472 -0.0770394,-0.0736929 -0.0778386,-0.0688898 -0.00080315,0.00480709 0.0319488,0.0482441 0.0749409,0.0862874z" id="_343186904"/><path class="fil3" d="M4.13269 2.34694c0.00392913,0.0572717 -0.00414567,0.0976811 -0.00844094,0.0953858 -0.00429528,-0.00229528 -0.00318504,-0.0464291 -0.00711417,-0.103701 -0.00392913,-0.0572717 -0.0114134,-0.106 -0.00711417,-0.103701 0.00429528,0.00229528 0.0187402,0.0547402 0.0226693,0.112016z" id="_343187384"/><path class="fil3" d="M3.41136 2.65686c0.0620591,0.0767835 0.110744,0.11887 0.110122,0.111181 -0.00061811,-0.00769291 -0.0503071,-0.062248 -0.112366,-0.139031 -0.0620551,-0.0767835 -0.112984,-0.146717 -0.112362,-0.139028 0.00061811,0.00769291 0.0525512,0.0900945 0.114606,0.166878z" id="_343187192"/><path class="fil3" d="M3.35826 2.683c0.023,0.0960079 0.0266575,0.16026 0.0209409,0.155075 -0.00571654,-0.0051811 -0.0186457,-0.0778307 -0.0416417,-0.173843 -0.0229961,-0.0960079 -0.0473583,-0.179024 -0.0416378,-0.173839 0.00571654,0.0051811 0.0393425,0.0965945 0.0623386,0.192606z" id="_343187288"/><path class="fil3" d="M2.69001 2.99766c0.0585551,0.0641024 0.106264,0.0977992 0.106358,0.0908307 9.44882e-005,-0.0069685 -0.0474685,-0.0519646 -0.10602,-0.116063 -0.0585551,-0.0641024 -0.105925,-0.123035 -0.10602,-0.116067 -9.44882e-005,0.0069685 0.0471299,0.0772008 0.105681,0.141299z" id="_343186280"/><path class="fil3" d="M2.63091 3.02675c0.0150866,0.0854961 0.012689,0.143858 0.00711024,0.139681 -0.00557874,-0.00417717 -0.0122283,-0.0693071 -0.027311,-0.154807 -0.0150866,-0.0854961 -0.0328937,-0.15898 -0.027315,-0.154803 0.00557874,0.00417323 0.0324331,0.0844291 0.0475157,0.169929z" id="_343186184"/><path class="fil3" d="M2.09386 4.02849c0.104693,0.0892835 0.181268,0.138732 0.178102,0.129984 -0.00316535,-0.00874409 -0.0848701,-0.072378 -0.189563,-0.161661 -0.104693,-0.0892795 -0.163689,-0.202122 -0.160524,-0.193374 0.00316535,0.00874409 0.0672953,0.135768 0.171984,0.225051z" id="_343186328"/></g><polyline class="fil4" points="2.31534,2.3429 2.31541,2.34306 2.31535,2.34308 "/><line class="fil4" x1="2.315" x2="2.31524" y1="2.34214" y2="2.34267"/><polyline class="fil4" points="2.31535,2.34308 2.31543,2.34326 2.31548,2.34323 2.3155,2.34325 2.31561,2.3432 "/><polygon class="fil2" points="2.24689,2.37345 2.24689,2.37344 2.24593,2.37387 "/><polygon class="fil2" points="2.31554,2.34334 2.31569,2.34339 2.34613,2.41254 "/><polyline class="fil4" points="2.31561,2.3432 2.3156,2.34319 2.31559,2.34317 2.31713,2.34229 2.31552,2.34301 2.31545,2.34285 2.3153,2.3425 "/><polyline class="fil4" points="2.31545,2.34285 2.31542,2.34287 2.31526,2.34259 2.3153,2.3425 2.31491,2.34162 2.3148,2.34167 2.315,2.34214 2.31526,2.34259 2.31524,2.34267 2.31534,2.3429 2.31542,2.34287 2.3155,2.34302 2.31541,2.34306 2.31548,2.34323 2.31543,2.34326 2.31543,2.34328 2.3155,2.34325 2.31554,2.34334 2.31569,2.34339 2.31561,2.3432 2.34343,2.33096 2.34328,2.3307 2.31713,2.34229 2.31559,2.34317 2.31552,2.34301 2.3155,2.34302 "/></g><rect class="fil5" height="6.82666" width="6.82666"/></svg>