<?xml version="1.0" ?><svg enable-background="new 0 0 16 16" id="Layer_1" version="1.0" viewBox="0 0 16 16" xml:space="preserve" xmlns="http://www.w3.org/2000/svg" xmlns:xlink="http://www.w3.org/1999/xlink"><path  d="M12.5,7H12V4c0-2.2-1.8-4-4-4S4,1.8,4,4v3H3.5C2.7,7,2,7.7,2,8.5v6C2,15.3,2.7,16,3.5,16h9c0.8,0,1.5-0.7,1.5-1.5v-6  C14,7.7,13.3,7,12.5,7z M5,4c0-1.7,1.3-3,3-3c1.7,0,3,1.3,3,3v3H5V4z M13,14.5c0,0.3-0.2,0.5-0.5,0.5h-9C3.2,15,3,14.8,3,14.5v-6  C3,8.2,3.2,8,3.5,8h9C12.8,8,13,8.2,13,8.5V14.5z"/></svg>