<?xml version="1.0" encoding="utf-8"?>
<!-- Generator: Adobe Illustrator 22.0.0, SVG Export Plug-In . SVG Version: 6.00 Build 0)  -->
<svg version="1.1" id="Layer_1" xmlns="http://www.w3.org/2000/svg" xmlns:xlink="http://www.w3.org/1999/xlink" x="0px" y="0px"
	 viewBox="0 0 566.9 226.8" style="enable-background:new 0 0 566.9 226.8;" xml:space="preserve">
<style type="text/css">
	.st0{fill:url(#SVGID_1_);}
	.st1{fill:url(#SVGID_2_);}
	.st2{fill:url(#SVGID_3_);}
	.st3{fill:url(#SVGID_4_);}
	.st4{fill:url(#SVGID_5_);}
	.st5{fill:url(#SVGID_6_);}
	.st6{fill:url(#SVGID_7_);}
	.st7{fill:url(#SVGID_8_);}
	.st8{fill:url(#SVGID_9_);}
	.st9{fill:url(#SVGID_10_);}
	.st10{fill:url(#SVGID_11_);}
</style>
<g>
	<g>
		
			<linearGradient id="SVGID_1_" gradientUnits="userSpaceOnUse" x1="41.8831" y1="87.4254" x2="399.6414" y2="87.4254" gradientTransform="matrix(1 0 0 -1 0 227.2283)">
			<stop  offset="0" style="stop-color:#5666DE"/>
			<stop  offset="1" style="stop-color:#5CB1F1"/>
		</linearGradient>
		<rect x="373.3" y="131" class="st0" width="17.6" height="17.5"/>
		
			<linearGradient id="SVGID_2_" gradientUnits="userSpaceOnUse" x1="41.8831" y1="119.4815" x2="399.6414" y2="119.4815" gradientTransform="matrix(1 0 0 -1 0 227.2283)">
			<stop  offset="0" style="stop-color:#5666DE"/>
			<stop  offset="1" style="stop-color:#5CB1F1"/>
		</linearGradient>
		<path class="st1" d="M450,95.3c-0.7-0.9-1.6-1.9-2.7-3.1c-1-1.1-2.3-2.1-3.9-3.2c-1.5-1-3.4-1.8-5.5-2.4c-2.1-0.6-4.6-0.9-7.4-0.9
			c-3.7,0-6.7,0.5-9.2,1.5c-2.4,1-4.2,1.9-5.3,2.9c-0.4,0.4-0.7,0.7-0.9,0.8c-0.2,0.2-0.5,0.4-0.9,0.8l-0.1-26.6h-17.2v83.4h17.2
			l-0.3-6.2c0.6,0.7,1.4,1.5,2.3,2.4c0.9,0.9,2,1.8,3.4,2.7c1.3,0.8,2.9,1.5,4.7,2.1c1.7,0.6,3.9,0.9,6.3,0.9c2.1,0,4.3-0.3,6.4-0.9
			c2.1-0.6,4.2-1.4,6-2.5c2.7-1.5,4.7-3.3,6.2-5.3c1.5-2,2.9-4.1,3.8-6.1s1.5-4,1.9-5.7c0.3-1.7,0.6-3.1,0.8-3.9
			c0.4-2.1,0.6-3.9,0.6-5.4c0-1.4,0.1-2.7,0.1-3.6c0-5.6-0.7-10.1-2-13.5C452.9,100.1,451.5,97.3,450,95.3z M435.2,131.2
			c-2.3,3-5.3,4.5-8.9,4.5c-2.9,0-5.3-0.8-7.3-2.5c-1.5-1.3-2.8-3.2-3.7-5.4c-0.8-2.2-1.3-5.4-1.3-9.5c-0.1-2.8,0.2-5.6,0.8-8.6
			c0.6-3,2.1-5.4,4.5-7.2c0.6-0.5,1.5-1,2.8-1.6c1.2-0.6,2.8-0.9,4.7-0.9c2.3,0,4.2,0.4,5.5,1.3c1.3,0.8,2.2,1.7,2.9,2.4
			c1.4,1.8,2.3,3.9,2.9,6.2c0.5,2.3,0.7,4.6,0.7,6.9C438.7,123.4,437.5,128.2,435.2,131.2z"/>
		
			<linearGradient id="SVGID_3_" gradientUnits="userSpaceOnUse" x1="41.8831" y1="109.2888" x2="399.6414" y2="109.2888" gradientTransform="matrix(1 0 0 -1 0 227.2283)">
			<stop  offset="0" style="stop-color:#5666DE"/>
			<stop  offset="1" style="stop-color:#5CB1F1"/>
		</linearGradient>
		<rect x="462.1" y="87.3" class="st2" width="17.2" height="61.3"/>
		
			<linearGradient id="SVGID_4_" gradientUnits="userSpaceOnUse" x1="41.8831" y1="154.2894" x2="399.6414" y2="154.2894" gradientTransform="matrix(1 0 0 -1 0 227.2283)">
			<stop  offset="0" style="stop-color:#5666DE"/>
			<stop  offset="1" style="stop-color:#5CB1F1"/>
		</linearGradient>
		<rect x="462.1" y="65.1" class="st3" width="17.2" height="15.7"/>
		
			<linearGradient id="SVGID_5_" gradientUnits="userSpaceOnUse" x1="41.8831" y1="109.2888" x2="399.6414" y2="109.2888" gradientTransform="matrix(1 0 0 -1 0 227.2283)">
			<stop  offset="0" style="stop-color:#5666DE"/>
			<stop  offset="1" style="stop-color:#5CB1F1"/>
		</linearGradient>
		<polygon class="st4" points="508.3,134.1 537.6,101.4 537.6,87.3 489.1,87.3 489.1,101.8 515.9,101.8 485.7,135.5 485.7,148.6 
			539.6,148.6 539.6,134.1 		"/>
		
			<linearGradient id="SVGID_6_" gradientUnits="userSpaceOnUse" x1="41.8831" y1="153.9836" x2="399.6414" y2="153.9836" gradientTransform="matrix(1 0 0 -1 0 227.2283)">
			<stop  offset="0" style="stop-color:#5666DE"/>
			<stop  offset="1" style="stop-color:#5CB1F1"/>
		</linearGradient>
		<path class="st5" d="M76.8,99.3c3.5-5.8,8.1-11.2,14.8-14.9v-8.1h9.8L84.2,47.2L67,76.4h9.8v22.9H76.8z"/>
		
			<linearGradient id="SVGID_7_" gradientUnits="userSpaceOnUse" x1="41.8831" y1="72.1364" x2="399.6414" y2="72.1364" gradientTransform="matrix(1 0 0 -1 0 227.2283)">
			<stop  offset="0" style="stop-color:#5666DE"/>
			<stop  offset="1" style="stop-color:#5CB1F1"/>
		</linearGradient>
		<path class="st6" d="M91.6,130.9c-3,7.3-7.2,15.2-14.7,19.8v28.5h14.8V150h-0.1V130.9z"/>
		
			<linearGradient id="SVGID_8_" gradientUnits="userSpaceOnUse" x1="41.8831" y1="119.9401" x2="399.6414" y2="119.9401" gradientTransform="matrix(1 0 0 -1 0 227.2283)">
			<stop  offset="0" style="stop-color:#5666DE"/>
			<stop  offset="1" style="stop-color:#5CB1F1"/>
		</linearGradient>
		<path class="st7" d="M110.4,85.7c-24,0-30.6,18.3-35.5,31.8c-4.5,12.3-6.8,17-13.5,17H51.1c-4.4,0-7.8-3.6-7.8-7.8V65.1H28.4v61.6
			c0,12.5,10.2,22.7,22.7,22.7h10.4c17.7,0,23-14.9,27.4-26.8c5.1-14.1,8.6-22,21.5-22c9.4,0,17,7.6,17,17s-7.6,17-17,17
			c-5.1,0-9.9-2.2-13.1-6.2v18.2c4.1,1.8,8.6,2.9,13.1,2.9c17.5,0,31.8-14.3,31.8-31.8S127.9,85.7,110.4,85.7z"/>
		
			<linearGradient id="SVGID_9_" gradientUnits="userSpaceOnUse" x1="41.8831" y1="119.9401" x2="399.6414" y2="119.9401" gradientTransform="matrix(1 0 0 -1 0 227.2283)">
			<stop  offset="0" style="stop-color:#5666DE"/>
			<stop  offset="1" style="stop-color:#5CB1F1"/>
		</linearGradient>
		<path class="st8" d="M173.4,135.2c-1.8,0-6,0-6.2,0c-1-0.1-1.8-0.5-2.4-1.2c-0.5-0.5-0.9-1.1-0.9-1.6c-0.1-0.5-0.2-1.2-0.2-1.9
			l0.5-65.3h-17.7l-0.6,68.1c0.1,1.2,0.2,2.5,0.2,3.9c0.1,1.3,0.3,2.5,0.7,3.9c0.6,1.8,1.5,3.3,2.7,4.4c1.1,1.1,2.4,1.9,3.9,2.7
			c1.4,0.6,3.1,1,4.7,1.2c1.6,0.2,3.4,0.3,5,0.3c1.4,0,2.9,0,4.2-0.1c0.7,0,11.2,0,18.2-0.1c-1.8-1.1-3.7-2.5-5.3-4.2
			C177.2,142.2,175,138.9,173.4,135.2z"/>
		
			<linearGradient id="SVGID_10_" gradientUnits="userSpaceOnUse" x1="41.8831" y1="109.1358" x2="399.6414" y2="109.1358" gradientTransform="matrix(1 0 0 -1 0 227.2283)">
			<stop  offset="0" style="stop-color:#5666DE"/>
			<stop  offset="1" style="stop-color:#5CB1F1"/>
		</linearGradient>
		<path class="st9" d="M268.3,101.5c1.2-0.8,2.2-1.3,3.3-1.5c1-0.2,1.7-0.3,2.3-0.2c1.2,0,2.2,0.2,3.2,0.6c0.9,0.4,1.7,0.9,2.4,1.4
			c0.7,0.5,1.3,1.1,1.7,1.6c0.4,0.5,0.8,0.9,1,1.1c1.1,1.8,1.8,3.9,2.2,6.1c0.4,2.2,0.6,4.5,0.6,6.5c0,3.1-0.3,6-1,8.9
			c-0.1,0.3-0.1,0.5-0.2,0.8c6.7-5.3,12.7-13.8,18.2-21.5c0.1-0.1,0.2-0.2,0.2-0.3V87.2h-16.5v8l-1-1.7c-0.4-0.7-0.9-1.4-1.5-2
			s-1.2-1.2-1.9-1.7c-0.9-0.8-2.1-1.6-3.8-2.4c-1.6-0.8-4-1.3-6.8-1.3c-0.9,0-2.1,0.1-3.6,0.3c-1.4,0.2-3.1,0.6-4.8,1.3
			c-1.7,0.7-3.6,1.5-5.4,2.8c-13.5,8.7-26.3,45.2-49,46c-2.9,0-5.4-0.8-7.5-2.3c-1.8-1.3-3.3-3.3-4.5-5.7c-1.2-2.4-1.7-5.9-1.7-10.4
			c0-3.6,0.4-6.5,1.2-8.8c0.8-2.3,1.9-4.2,3.3-5.6c1.3-1.4,2.9-2.3,4.6-3c1.7-0.6,3.4-0.9,5.1-0.9c1.1,0,2.7,0.2,4.5,0.7
			c1.9,0.5,3.8,1.8,5.6,4.2c0.9,1.2,1.6,2.4,2.1,3.8c0.5,1.3,0.8,2.5,1,3.8c0.2,1.2,0.3,2.2,0.3,3.2s0,1.6,0,2
			c0,1.5-0.1,3.1-0.2,4.6c-0.2,1.5-0.5,3.2-0.9,4.6c-0.1,0.2-0.2,0.5-0.2,0.7c6.5-5.1,12.2-13,17.6-20.6c-0.7-2.2-1.6-4.3-2.8-6.2
			c-1.4-2.5-3.3-4.9-5.4-6.9c-2.1-2-4.7-3.7-7.6-5c-2.9-1.2-5.5-2-7.8-2.2c-2.4-0.2-4.2-0.3-5.3-0.3c-1.2,0-3.1,0.1-5.5,0.3
			c-2.4,0.2-5,0.9-7.8,1.9c-2.9,1-5.6,2.7-8.4,4.7c-2.8,2.1-5.1,5-7.1,8.8c-1.8,3.6-3,6.8-3.3,10c-0.4,3.2-0.6,5.3-0.6,6.7
			c0,4.3,0.7,8.6,2.1,12.8c1.4,4.4,3.8,8.1,6.9,11.2c1.9,1.9,4.1,3.4,6.2,4.5c2.1,1.1,4.3,1.9,6.2,2.4c1.9,0.5,3.8,0.9,5.4,1
			c1.6,0.1,2.9,0.2,3.8,0.2c1.9,0,3.9-0.2,5.7-0.4c30.7-2.5,39.2-30.4,52.7-45.4C265.9,103.4,266.9,102.3,268.3,101.5z"/>
		
			<linearGradient id="SVGID_11_" gradientUnits="userSpaceOnUse" x1="41.8831" y1="119.4305" x2="399.6414" y2="119.4305" gradientTransform="matrix(1 0 0 -1 0 227.2283)">
			<stop  offset="0" style="stop-color:#5666DE"/>
			<stop  offset="1" style="stop-color:#5CB1F1"/>
		</linearGradient>
		<path class="st10" d="M349.2,95.2l-1-1.7c-0.4-0.7-0.9-1.4-1.5-2s-1.2-1.2-1.9-1.7c-0.9-0.8-2.1-1.6-3.8-2.4
			c-1.6-0.8-4-1.3-6.8-1.3c-0.9,0-2.1,0.1-3.6,0.3c-1.4,0.2-3.1,0.6-4.8,1.3c-1.7,0.7-3.6,1.5-5.4,2.8c-13.5,8.7-23.1,46.5-48,41.9
			c-9.1-1.6-10.9-14.5-11-15.9c-0.9,1.3-1.8,2.7-2.8,4.1c-3.4,5-6.9,10.3-11.2,15.3c2,7.3,13.1,15.7,24,14.6
			c5.4-0.6,10.1-1.7,14.4-3.2v3.5h16.5v-13c11.5-9.9,17.8-23.2,26.5-32.7c1-1.1,1.9-2.1,3.4-3.1c1.2-0.8,2.2-1.3,3.3-1.5
			c1-0.2,1.7-0.3,2.3-0.2c1.2,0,2.2,0.2,3.2,0.6c0.9,0.4,1.7,0.9,2.4,1.4c0.7,0.5,1.3,1.1,1.7,1.6c0.4,0.5,0.8,0.9,1,1.1
			c1.1,1.8,1.8,3.9,2.2,6.1c0.4,2.2,0.6,4.5,0.6,6.5c0,3.1-0.3,6-1,8.9c-0.7,2.9-2.2,5.2-4.7,7.2c-1.7,1.5-3.8,2.2-6.1,2.2
			c-1.2,0-2.7-0.3-4.3-1c-1.7-0.7-3.3-2.2-4.7-4.7c-0.6-1.2-1.1-2.4-1.5-3.7c-0.3-1.2-0.6-2.4-0.8-3.6s-0.3-2-0.3-2.9
			c0-0.5-0.2-2.1-0.3-3.6c-0.9,1.3-1.8,2.7-2.8,4.1c-3.4,5-6.9,10.3-11.2,15.3c0.4,0.8,0.8,1.6,1.2,2.3c1.4,2.2,2.9,4.2,4.5,5.7
			s3.2,2.8,4.8,3.5c2.2,1.2,4.5,2,6.7,2.3c2.1,0.3,3.8,0.4,4.7,0.4c3.6,0,6.4-0.5,8.6-1.6c2.1-1.1,3.8-2.2,4.9-3.3
			c0.6-0.5,1.1-1,1.5-1.4c0.3-0.4,0.7-0.9,1.1-1.5l0.1,6.6h16.9V65.1h-16.5v30.1H349.2z"/>
	</g>
</g>
</svg>
