<?xml version="1.0" encoding="utf-8"?>
<!-- Generator: Adobe Illustrator 22.0.0, SVG Export Plug-In . SVG Version: 6.00 Build 0)  -->
<svg version="1.1" id="Layer_1" xmlns="http://www.w3.org/2000/svg" xmlns:xlink="http://www.w3.org/1999/xlink" x="0px" y="0px"
	 viewBox="0 0 566.9 226.8" style="enable-background:new 0 0 566.9 226.8;" xml:space="preserve">
<style type="text/css">
	.st0{fill:#FFFFFF;}
</style>
<g>
	<g>
		<path class="st0" d="M390.9,148h-17.3v-17.2h17.3V148z"/>
		<path class="st0" d="M413.7,92.2c0.4-0.4,0.7-0.7,0.9-0.8c0.2-0.2,0.5-0.4,0.9-0.8c1.1-0.8,2.8-1.8,5.2-2.8c2.4-1,5.4-1.5,9-1.5
			c2.8,0,5.2,0.3,7.3,0.9c2.1,0.6,3.9,1.4,5.4,2.4c1.5,1,2.8,2,3.8,3.1c1,1.1,1.9,2.1,2.6,3c1.5,2,2.9,4.7,4.2,8
			c1.3,3.3,2,7.7,2,13.2c0,0.9,0,2.1-0.1,3.5c0,1.4-0.3,3.2-0.6,5.3c-0.2,0.9-0.4,2.1-0.8,3.8c-0.3,1.7-1,3.6-1.9,5.6
			c-0.9,2-2.1,4-3.7,6c-1.5,2-3.6,3.8-6.1,5.2c-1.8,1.1-3.7,1.9-5.9,2.5c-2.1,0.6-4.2,0.9-6.3,0.9c-2.4,0-4.5-0.3-6.2-0.9
			c-1.7-0.6-3.3-1.3-4.6-2.1c-1.3-0.8-2.4-1.7-3.3-2.6c-0.9-0.9-1.6-1.7-2.3-2.4l0.3,6.1h-16.9V66.1h16.9L413.7,92.2z M413.5,118.3
			c0,4,0.4,7.1,1.3,9.3c0.8,2.2,2,4,3.6,5.3c1.9,1.7,4.3,2.5,7.2,2.5c3.5,0,6.4-1.5,8.7-4.4c2.3-2.9,3.4-7.6,3.4-14.1
			c0-2.2-0.2-4.5-0.7-6.8c-0.5-2.3-1.4-4.3-2.8-6.1c-0.6-0.8-1.6-1.6-2.8-2.4c-1.3-0.8-3.1-1.3-5.4-1.3c-1.9,0-3.5,0.3-4.6,0.9
			c-1.2,0.6-2,1.1-2.7,1.6c-2.3,1.8-3.8,4.2-4.4,7.1C413.7,112.8,413.4,115.6,413.5,118.3z"/>
		<path class="st0" d="M477.6,81.6h-16.9V66.1h16.9V81.6z M477.6,148h-16.9V87.9h16.9V148z"/>
		<path class="st0" d="M534.7,101.7l-28.8,32.1h30.7V148h-52.9v-12.8l29.7-33.2h-26.3V87.9h47.6V101.7z"/>
	</g>
	<g>
		<g>
			<path class="st0" d="M106.8,77.2L90,48.5L73.1,77.2h9.6v22.5c3.4-5.7,7.9-11,14.5-14.6v-7.9H106.8z"/>
			<path class="st0" d="M97.1,130.8c-2.9,7.2-7.1,14.9-14.4,19.4v28h14.5v-28.7l-0.1,0V130.8z"/>
			<g>
				<path class="st0" d="M115.5,86.4c-23.5,0-30,18-34.8,31.2c-4.4,12.1-6.7,16.7-13.2,16.7H57.3c-4.3,0-7.7-3.5-7.7-7.7V66.1H35.1
					v60.4c0,12.3,10,22.3,22.3,22.3h10.2c17.4,0,22.6-14.6,26.9-26.3c5-13.8,8.4-21.6,21.1-21.6c9.2,0,16.7,7.5,16.7,16.7
					c0,9.2-7.5,16.7-16.7,16.7c-5,0-9.7-2.2-12.9-6.1V146c4,1.8,8.4,2.8,12.9,2.8c17.2,0,31.2-14,31.2-31.2S132.7,86.4,115.5,86.4z"
					/>
			</g>
		</g>
		<g>
			<path class="st0" d="M177.3,135c-1.8,0-5.9,0-6.1,0c-1-0.1-1.8-0.5-2.4-1.2c-0.5-0.5-0.9-1.1-0.9-1.6c-0.1-0.5-0.2-1.2-0.2-1.9
				l0.7-64.1h-17.4l-0.6,66.8c0.1,1.2,0.2,2.5,0.2,3.8c0.1,1.3,0.3,2.5,0.7,3.8c0.6,1.8,1.5,3.2,2.6,4.3c1.1,1.1,2.4,1.9,3.8,2.6
				c1.4,0.6,3,1,4.6,1.2c1.6,0.2,3.3,0.3,4.9,0.3c1.4,0,2.8,0,4.1-0.1c0.7,0,11,0,17.9-0.1c-1.8-1.1-3.6-2.5-5.2-4.1
				C181.1,141.8,178.9,138.6,177.3,135z"/>
			<path class="st0" d="M267.2,104.8c1-1.1,1.9-2.1,3.3-3c1.2-0.8,2.2-1.3,3.2-1.5c1-0.2,1.7-0.3,2.3-0.2c1.2,0,2.2,0.2,3.1,0.6
				c0.9,0.4,1.7,0.9,2.4,1.4c0.7,0.5,1.3,1.1,1.7,1.6c0.4,0.5,0.8,0.9,1,1.1c1.1,1.8,1.8,3.8,2.2,6c0.4,2.2,0.6,4.4,0.6,6.4
				c0,3-0.3,5.9-1,8.7c-0.1,0.3-0.1,0.5-0.2,0.8c6.6-5.2,12.5-13.5,17.9-21.1c0.1-0.1,0.2-0.2,0.2-0.3V87.8h-16.2v7.8l-1-1.7
				c-0.4-0.7-0.9-1.4-1.5-2c-0.6-0.6-1.2-1.2-1.9-1.7c-0.9-0.8-2.1-1.6-3.7-2.4c-1.6-0.8-3.9-1.3-6.7-1.3c-0.9,0-2.1,0.1-3.5,0.3
				c-1.4,0.2-3,0.6-4.7,1.3c-1.7,0.7-3.5,1.5-5.3,2.7c-13.2,8.5-25.8,44.3-48.1,45.1c-2.8,0-5.3-0.8-7.4-2.3
				c-1.8-1.3-3.2-3.2-4.4-5.6c-1.2-2.4-1.7-5.8-1.7-10.2c0-3.5,0.4-6.4,1.2-8.6c0.8-2.3,1.9-4.1,3.2-5.5c1.3-1.4,2.8-2.3,4.5-2.9
				c1.7-0.6,3.3-0.9,5-0.9c1.1,0,2.6,0.2,4.4,0.7c1.9,0.5,3.7,1.8,5.5,4.1c0.9,1.2,1.6,2.4,2.1,3.7c0.5,1.3,0.8,2.5,1,3.7
				c0.2,1.2,0.3,2.2,0.3,3.1c0,0.9,0,1.6,0,2c0,1.5-0.1,3-0.2,4.5c-0.2,1.5-0.5,3.1-0.9,4.5c-0.1,0.2-0.2,0.5-0.2,0.7
				c6.4-5,12-12.8,17.3-20.2c-0.7-2.2-1.6-4.2-2.7-6.1c-1.4-2.5-3.2-4.8-5.3-6.8c-2.1-2-4.6-3.6-7.5-4.9c-2.8-1.2-5.4-2-7.7-2.2
				c-2.4-0.2-4.1-0.3-5.2-0.3c-1.2,0-3,0.1-5.4,0.3c-2.4,0.2-4.9,0.9-7.7,1.9c-2.8,1-5.5,2.6-8.2,4.6c-2.7,2.1-5,4.9-7,8.6
				c-1.8,3.5-2.9,6.7-3.2,9.8c-0.4,3.1-0.6,5.2-0.6,6.6c0,4.2,0.7,8.4,2.1,12.6c1.4,4.3,3.7,7.9,6.8,11c1.9,1.9,4,3.3,6.1,4.4
				c2.1,1.1,4.2,1.9,6.1,2.4c1.9,0.5,3.7,0.9,5.3,1c1.6,0.1,2.8,0.2,3.7,0.2c1.9,0,3.8-0.2,5.6-0.4
				C245.6,146.8,254,119.5,267.2,104.8z"/>
			<path class="st0" d="M303.6,149.3v-6.8c-2.1,1.7-7.9,5.4-10.4,6.8H303.6z"/>
			<path class="st0" d="M349.8,66.1v29.5l-1-1.7c-0.4-0.7-0.9-1.4-1.5-2c-0.6-0.6-1.2-1.2-1.9-1.7c-0.9-0.8-2.1-1.6-3.7-2.4
				c-1.6-0.8-3.9-1.3-6.7-1.3c-0.9,0-2.1,0.1-3.5,0.3c-1.4,0.2-3,0.6-4.7,1.3c-1.7,0.7-3.5,1.5-5.3,2.7
				c-13.2,8.5-22.7,45.6-47.1,41.1c-8.9-1.6-10.7-14.2-10.8-15.6c-0.9,1.3-1.8,2.6-2.7,4c-3.3,4.9-6.8,10.1-11,15
				c2,7.2,12.8,14.3,23.5,14.3c33.5,0,42.4-29.3,56.3-44.7c1-1.1,1.9-2.1,3.3-3c1.2-0.8,2.2-1.3,3.2-1.5c1-0.2,1.7-0.3,2.3-0.2
				c1.2,0,2.2,0.2,3.1,0.6c0.9,0.4,1.7,0.9,2.4,1.4c0.7,0.5,1.3,1.1,1.7,1.6c0.4,0.5,0.8,0.9,1,1.1c1.1,1.8,1.8,3.8,2.2,6
				c0.4,2.2,0.6,4.4,0.6,6.4c0,3-0.3,5.9-1,8.7c-0.7,2.8-2.2,5.1-4.6,7.1c-1.7,1.5-3.7,2.2-6,2.2c-1.2,0-2.6-0.3-4.2-1
				c-1.7-0.7-3.2-2.2-4.6-4.6c-0.6-1.2-1.1-2.4-1.5-3.6c-0.3-1.2-0.6-2.4-0.8-3.5c-0.2-1.1-0.3-2-0.3-2.8c0-0.5-0.2-2.1-0.3-3.5
				c-0.9,1.3-1.8,2.6-2.7,4c-3.3,4.9-6.8,10.1-11,15c0.4,0.8,0.8,1.6,1.2,2.3c1.4,2.2,2.8,4.1,4.4,5.6c1.6,1.5,3.1,2.7,4.7,3.4
				c2.2,1.2,4.4,2,6.6,2.3c2.1,0.3,3.7,0.4,4.6,0.4c3.5,0,6.3-0.5,8.4-1.6c2.1-1.1,3.7-2.2,4.8-3.2c0.6-0.5,1.1-1,1.5-1.4
				c0.3-0.4,0.7-0.9,1.1-1.5l0.1,6.5H366V66.1H349.8z"/>
		</g>
	</g>
</g>
</svg>
