<?xml version="1.0" encoding="UTF-8" standalone="no"?>
<svg
   xmlns:dc="http://purl.org/dc/elements/1.1/"
   xmlns:cc="http://creativecommons.org/ns#"
   xmlns:rdf="http://www.w3.org/1999/02/22-rdf-syntax-ns#"
   xmlns:svg="http://www.w3.org/2000/svg"
   xmlns="http://www.w3.org/2000/svg"
   xmlns:sodipodi="http://sodipodi.sourceforge.net/DTD/sodipodi-0.dtd"
   xmlns:inkscape="http://www.inkscape.org/namespaces/inkscape"
   version="1.1"
   id="Layer_1"
   x="0px"
   y="0px"
   viewBox="0 0 800 800"
   style="enable-background:new 0 0 800 800;"
   xml:space="preserve"
   sodipodi:docname="uploadbiz finalc.svgz"><metadata
   id="metadata85"><rdf:RDF><cc:Work
       rdf:about=""><dc:format>image/svg+xml</dc:format><dc:type
         rdf:resource="http://purl.org/dc/dcmitype/StillImage" /></cc:Work></rdf:RDF></metadata><defs
   id="defs83" /><sodipodi:namedview
   pagecolor="#ffffff"
   bordercolor="#666666"
   borderopacity="1"
   objecttolerance="10"
   gridtolerance="10"
   guidetolerance="10"
   inkscape:pageopacity="0"
   inkscape:pageshadow="2"
   inkscape:window-width="640"
   inkscape:window-height="480"
   id="namedview81" />
<style
   type="text/css"
   id="style2">
	.st0{fill:#5CB1F1;}
	.st1{fill:url(#SVGID_1_);}
	.st2{fill:url(#SVGID_2_);}
	.st3{fill:url(#SVGID_3_);}
	.st4{fill:url(#SVGID_4_);}
	.st5{fill:url(#SVGID_5_);}
	.st6{fill:url(#SVGID_6_);}
	.st7{fill:url(#SVGID_7_);}
	.st8{fill:url(#SVGID_8_);}
</style>
<g
   id="g78">
	<g
   id="g12">
		<path
   class="st0"
   d="M578.6,416.9h-17.3v-17.2h17.3V416.9z"
   id="path4" />
		<path
   class="st0"
   d="M601.5,361.1c0.4-0.4,0.7-0.7,0.9-0.8c0.2-0.2,0.5-0.4,0.9-0.8c1.1-0.8,2.8-1.8,5.2-2.8c2.4-1,5.4-1.5,9-1.5    c2.8,0,5.2,0.3,7.3,0.9c2.1,0.6,3.9,1.4,5.4,2.4c1.5,1,2.8,2,3.8,3.1c1,1.1,1.9,2.1,2.6,3c1.5,2,2.9,4.7,4.2,8    c1.3,3.3,2,7.7,2,13.2c0,0.9,0,2.1-0.1,3.5c0,1.4-0.3,3.2-0.6,5.3c-0.2,0.9-0.4,2.1-0.8,3.8c-0.3,1.7-1,3.6-1.9,5.6    c-0.9,2-2.1,4-3.7,6c-1.5,2-3.6,3.8-6.1,5.2c-1.8,1.1-3.7,1.9-5.9,2.5c-2.1,0.6-4.2,0.9-6.3,0.9c-2.4,0-4.5-0.3-6.2-0.9    c-1.7-0.6-3.3-1.3-4.6-2.1c-1.3-0.8-2.4-1.7-3.3-2.6c-0.9-0.9-1.6-1.7-2.3-2.4l0.3,6.1h-16.9V335h16.9L601.5,361.1z M601.2,387.1    c0,4,0.4,7.1,1.3,9.3c0.8,2.2,2,4,3.6,5.3c1.9,1.7,4.3,2.5,7.2,2.5c3.5,0,6.4-1.5,8.7-4.4s3.4-7.6,3.4-14.1c0-2.2-0.2-4.5-0.7-6.8    c-0.5-2.3-1.4-4.3-2.8-6.1c-0.6-0.8-1.6-1.6-2.8-2.4c-1.3-0.8-3.1-1.3-5.4-1.3c-1.9,0-3.5,0.3-4.6,0.9c-1.2,0.6-2,1.1-2.7,1.6    c-2.3,1.8-3.8,4.2-4.4,7.1C601.4,381.6,601.2,384.4,601.2,387.1z"
   id="path6" />
		<path
   class="st0"
   d="M665.3,350.4h-16.9V335h16.9V350.4z M665.3,416.9h-16.9v-60.1h16.9V416.9z"
   id="path8" />
		<path
   class="st0"
   d="M722.5,370.6l-28.8,32.1h30.7v14.2h-52.9v-12.8l29.7-33.2h-26.3v-14.2h47.6V370.6z"
   id="path10" />
	</g>
	<linearGradient
   id="SVGID_1_"
   gradientUnits="userSpaceOnUse"
   x1="91.2787"
   y1="317.5068"
   x2="208.9562"
   y2="435.1843">
		<stop
   offset="0"
   style="stop-color:#5666DE"
   id="stop14" />
		<stop
   offset="1"
   style="stop-color:#5CB1F1"
   id="stop16" />
	</linearGradient>
	<path
   class="st1"
   d="M198.7,395.5c-8.3,4.8-17.8,6.5-27.1,4.9l-0.1-17.3c6.3,1.8,13.1,1.1,18.8-2.2c11.5-6.6,15.5-21.4,8.8-32.9   c-6.6-11.5-21.4-15.5-32.9-8.8c-5.4,3.1-7.5,8.8-8.1,17.1l-8-9.4l-8.9,10.4c0.6-13.2,4.1-25.5,16.6-32.7   c17.7-10.2,39.9-5.7,52.3,9.7v-14.1c0-2.2-1.8-4-4-4H94.1c-2.2,0-4,1.8-4,4v46.6c3.1-3.8,6.9-7.2,11.4-9.8c8.6-5,18.5-6.6,28.1-4.8   l0.1,17.4c-6.6-2.2-13.8-1.6-19.8,1.9c-11.5,6.6-15.5,21.4-8.8,32.9c6.6,11.5,21.4,15.5,32.9,8.8c3.3-1.9,5.3-4.7,6.6-8.5l9.5-11.2   l8.1,9.5c-1.6,10.1-5.9,19-15.8,24.7c-17.7,10.2-39.9,5.7-52.3-9.7v14.1c0,2.2,1.8,4,4,4h112.1c2.2,0,4-1.8,4-4v-46.6   C207,389.6,203.2,392.9,198.7,395.5z M141.2,367.2l8.9-10.4l7.9,9.3c0.1,2.8,0.2,5.9,0.4,9.1l-8.4-9.8l-8.5,10   C141.5,372.7,141.3,370,141.2,367.2z M159,394.4l-8.9-10.5l-7.9,9.2c0.1-2.6,0-5.4-0.1-8.5l8-9.4l8.9,10.4   C159.1,388.6,159.1,391.5,159,394.4z"
   id="path19" />
	<g
   id="g76">
		<g
   id="g44">
			<linearGradient
   id="SVGID_2_"
   gradientUnits="userSpaceOnUse"
   x1="243.0076"
   y1="342.989"
   x2="519.0149"
   y2="342.989">
				<stop
   offset="0"
   style="stop-color:#5666DE"
   id="stop21" />
				<stop
   offset="1"
   style="stop-color:#5CB1F1"
   id="stop23" />
			</linearGradient>
			<path
   class="st2"
   d="M294.6,346.1l-16.9-28.7l-16.9,28.7h9.6v22.5c3.4-5.7,7.9-11,14.5-14.6v-7.9H294.6z"
   id="path26" />
			<linearGradient
   id="SVGID_3_"
   gradientUnits="userSpaceOnUse"
   x1="243.0076"
   y1="423.3664"
   x2="519.0149"
   y2="423.3664">
				<stop
   offset="0"
   style="stop-color:#5666DE"
   id="stop28" />
				<stop
   offset="1"
   style="stop-color:#5CB1F1"
   id="stop30" />
			</linearGradient>
			<path
   class="st3"
   d="M284.9,399.6c-2.9,7.2-7.1,14.9-14.4,19.4v28H285v-28.7l-0.1,0V399.6z"
   id="path33" />
			<g
   id="g42">
				<linearGradient
   id="SVGID_4_"
   gradientUnits="userSpaceOnUse"
   x1="243.0076"
   y1="376.337"
   x2="519.0149"
   y2="376.337">
					<stop
   offset="0"
   style="stop-color:#5666DE"
   id="stop35" />
					<stop
   offset="1"
   style="stop-color:#5CB1F1"
   id="stop37" />
				</linearGradient>
				<path
   class="st4"
   d="M303.3,355.2c-23.5,0-30,18-34.8,31.2c-4.4,12.1-6.7,16.7-13.2,16.7h-10.2c-4.3,0-7.7-3.5-7.7-7.7V335      h-14.5v60.4c0,12.3,10,22.3,22.3,22.3h10.2c17.4,0,22.6-14.6,26.9-26.3c5-13.8,8.4-21.6,21.1-21.6c9.2,0,16.7,7.5,16.7,16.7      c0,9.2-7.5,16.7-16.7,16.7c-5,0-9.7-2.2-12.9-6.1v17.9c4,1.8,8.4,2.8,12.9,2.8c17.2,0,31.2-14,31.2-31.2      S320.5,355.2,303.3,355.2z"
   id="path40" />
			</g>
		</g>
		<g
   id="g74">
			<linearGradient
   id="SVGID_5_"
   gradientUnits="userSpaceOnUse"
   x1="243.0076"
   y1="376.3456"
   x2="519.0149"
   y2="376.3456">
				<stop
   offset="0"
   style="stop-color:#5666DE"
   id="stop46" />
				<stop
   offset="1"
   style="stop-color:#5CB1F1"
   id="stop48" />
			</linearGradient>
			<path
   class="st5"
   d="M365.1,403.8c-1.8,0-5.9,0-6.1,0c-1-0.1-1.8-0.5-2.4-1.2c-0.5-0.5-0.9-1.1-0.9-1.6c-0.1-0.5-0.2-1.2-0.2-1.9     L356,335h-17.4l-0.6,66.8c0.1,1.2,0.2,2.5,0.2,3.8c0.1,1.3,0.3,2.5,0.7,3.8c0.6,1.8,1.5,3.2,2.6,4.3c1.1,1.1,2.4,1.9,3.8,2.6     c1.4,0.6,3,1,4.6,1.2c1.6,0.2,3.3,0.3,4.9,0.3c1.4,0,2.8,0,4.1-0.1c0.7,0,11,0,17.9-0.1c-1.8-1.1-3.6-2.5-5.2-4.1     C368.9,410.7,366.7,407.4,365.1,403.8z"
   id="path51" />
			<linearGradient
   id="SVGID_6_"
   gradientUnits="userSpaceOnUse"
   x1="243.0076"
   y1="386.8438"
   x2="519.0149"
   y2="386.8438">
				<stop
   offset="0"
   style="stop-color:#5666DE"
   id="stop53" />
				<stop
   offset="1"
   style="stop-color:#5CB1F1"
   id="stop55" />
			</linearGradient>
			<path
   class="st6"
   d="M454.9,373.7c1-1.1,1.9-2.1,3.3-3c1.2-0.8,2.2-1.3,3.2-1.5c1-0.2,1.7-0.3,2.3-0.2c1.2,0,2.2,0.2,3.1,0.6     c0.9,0.4,1.7,0.9,2.4,1.4c0.7,0.5,1.3,1.1,1.7,1.6c0.4,0.5,0.8,0.9,1,1.1c1.1,1.8,1.8,3.8,2.2,6c0.4,2.2,0.6,4.4,0.6,6.4     c0,3-0.3,5.9-1,8.7c-0.1,0.3-0.1,0.5-0.2,0.8c6.6-5.2,12.5-13.5,17.9-21.1c0.1-0.1,0.2-0.2,0.2-0.3v-17.5h-16.2v7.8l-1-1.7     c-0.4-0.7-0.9-1.4-1.5-2c-0.6-0.6-1.2-1.2-1.9-1.7c-0.9-0.8-2.1-1.6-3.7-2.4c-1.6-0.8-3.9-1.3-6.7-1.3c-0.9,0-2.1,0.1-3.5,0.3     c-1.4,0.2-3,0.6-4.7,1.3c-1.7,0.7-3.5,1.5-5.3,2.7c-13.2,8.5-25.8,44.3-48.1,45.1c-2.8,0-5.3-0.8-7.4-2.3     c-1.8-1.3-3.2-3.2-4.4-5.6c-1.2-2.4-1.7-5.8-1.7-10.2c0-3.5,0.4-6.4,1.2-8.6c0.8-2.3,1.9-4.1,3.2-5.5c1.3-1.4,2.8-2.3,4.5-2.9     c1.7-0.6,3.3-0.9,5-0.9c1.1,0,2.6,0.2,4.4,0.7c1.9,0.5,3.7,1.8,5.5,4.1c0.9,1.2,1.6,2.4,2.1,3.7c0.5,1.3,0.8,2.5,1,3.7     c0.2,1.2,0.3,2.2,0.3,3.1c0,0.9,0,1.6,0,2c0,1.5-0.1,3-0.2,4.5c-0.2,1.5-0.5,3.1-0.9,4.5c-0.1,0.2-0.2,0.5-0.2,0.7     c6.4-5,12-12.8,17.3-20.2c-0.7-2.2-1.6-4.2-2.7-6.1c-1.4-2.5-3.2-4.8-5.3-6.8c-2.1-2-4.6-3.6-7.5-4.9c-2.8-1.2-5.4-2-7.7-2.2     c-2.4-0.2-4.1-0.3-5.2-0.3c-1.2,0-3,0.1-5.4,0.3c-2.4,0.2-4.9,0.9-7.7,1.9c-2.8,1-5.5,2.6-8.2,4.6c-2.7,2.1-5,4.9-7,8.6     c-1.8,3.5-2.9,6.7-3.2,9.8c-0.4,3.1-0.6,5.2-0.6,6.6c0,4.2,0.7,8.4,2.1,12.6c1.4,4.3,3.7,7.9,6.8,11c1.9,1.9,4,3.3,6.1,4.4     c2.1,1.1,4.2,1.9,6.1,2.4c1.9,0.5,3.7,0.9,5.3,1c1.6,0.1,2.8,0.2,3.7,0.2c1.9,0,3.8-0.2,5.6-0.4     C433.3,415.7,441.7,388.3,454.9,373.7z"
   id="path58" />
			<linearGradient
   id="SVGID_7_"
   gradientUnits="userSpaceOnUse"
   x1="243.0076"
   y1="414.7537"
   x2="519.0149"
   y2="414.7537">
				<stop
   offset="0"
   style="stop-color:#5666DE"
   id="stop60" />
				<stop
   offset="1"
   style="stop-color:#5CB1F1"
   id="stop62" />
			</linearGradient>
			<path
   class="st7"
   d="M491.4,418.1v-6.8c-2.1,1.7-7.9,5.4-10.4,6.8H491.4z"
   id="path65" />
			<linearGradient
   id="SVGID_8_"
   gradientUnits="userSpaceOnUse"
   x1="243.0076"
   y1="376.6935"
   x2="519.0149"
   y2="376.6935">
				<stop
   offset="0"
   style="stop-color:#5666DE"
   id="stop67" />
				<stop
   offset="1"
   style="stop-color:#5CB1F1"
   id="stop69" />
			</linearGradient>
			<path
   class="st8"
   d="M537.6,335v29.5l-1-1.7c-0.4-0.7-0.9-1.4-1.5-2c-0.6-0.6-1.2-1.2-1.9-1.7c-0.9-0.8-2.1-1.6-3.7-2.4     c-1.6-0.8-3.9-1.3-6.7-1.3c-0.9,0-2.1,0.1-3.5,0.3c-1.4,0.2-3,0.6-4.7,1.3c-1.7,0.7-3.5,1.5-5.3,2.7     c-13.2,8.5-22.7,45.6-47.1,41.1c-8.9-1.6-10.7-14.2-10.8-15.6c-0.9,1.3-1.8,2.6-2.7,4c-3.3,4.9-6.8,10.1-11,15     c2,7.2,12.8,14.3,23.5,14.3c33.5,0,42.4-29.3,56.3-44.7c1-1.1,1.9-2.1,3.3-3c1.2-0.8,2.2-1.3,3.2-1.5c1-0.2,1.7-0.3,2.3-0.2     c1.2,0,2.2,0.2,3.1,0.6c0.9,0.4,1.7,0.9,2.4,1.4c0.7,0.5,1.3,1.1,1.7,1.6c0.4,0.5,0.8,0.9,1,1.1c1.1,1.8,1.8,3.8,2.2,6     c0.4,2.2,0.6,4.4,0.6,6.4c0,3-0.3,5.9-1,8.7c-0.7,2.8-2.2,5.1-4.6,7.1c-1.7,1.5-3.7,2.2-6,2.2c-1.2,0-2.6-0.3-4.2-1     c-1.7-0.7-3.2-2.2-4.6-4.6c-0.6-1.2-1.1-2.4-1.5-3.6c-0.3-1.2-0.6-2.4-0.8-3.5c-0.2-1.1-0.3-2-0.3-2.8c0-0.5-0.2-2.1-0.3-3.5     c-0.9,1.3-1.8,2.6-2.7,4c-3.3,4.9-6.8,10.1-11,15c0.4,0.8,0.8,1.6,1.2,2.3c1.4,2.2,2.8,4.1,4.4,5.6c1.6,1.5,3.1,2.7,4.7,3.4     c2.2,1.2,4.4,2,6.6,2.3c2.1,0.3,3.7,0.4,4.6,0.4c3.5,0,6.3-0.5,8.4-1.6c2.1-1.1,3.7-2.2,4.8-3.2c0.6-0.5,1.1-1,1.5-1.4     c0.3-0.4,0.7-0.9,1.1-1.5l0.1,6.5h16.6V335H537.6z"
   id="path72" />
		</g>
	</g>
</g>
</svg>
