<?xml version="1.0" ?><!DOCTYPE svg  PUBLIC '-//W3C//DTD SVG 1.1//EN'  'http://www.w3.org/Graphics/SVG/1.1/DTD/svg11.dtd'><svg enable-background="new 0 0 32 32" height="32px" id="Layer_1" version="1.1" viewBox="0 0 32 32" width="32px" xml:space="preserve" xmlns="http://www.w3.org/2000/svg" xmlns:xlink="http://www.w3.org/1999/xlink"><g id="icon"><path d="M16,1.01C7.7213,1.01,1.0101,7.7213,1.0101,16S7.7213,30.9899,16,30.9899S30.9899,24.2787,30.9899,16S24.2787,1.01,16,1.01zM14,21.6c0,0.2209,-0.1791,0.4,-0.4,0.4h-3.2c-0.2209,0,-0.4,-0.1791,-0.4,-0.4V10.4c0,-0.2209,0.1791,-0.4,0.4,-0.4h3.2c0.2209,0,0.4,0.1791,0.4,0.4V21.6zM22,21.6c0,0.2209,-0.1791,0.4,-0.4,0.4h-3.2c-0.2209,0,-0.4,-0.1791,-0.4,-0.4V10.4c0,-0.2209,0.1791,-0.4,0.4,-0.4h3.2c0.2209,0,0.4,0.1791,0.4,0.4V21.6z" fill="#D1D5DB"/><path d="M13.6,22h-3.1919c-0.2209,0,-0.4,-0.1791,-0.4,-0.4V10.4c0,-0.2209,0.1791,-0.4,0.4,-0.4H13.6c0.2209,0,0.4,0.1791,0.4,0.4v11.2C14,21.8209,13.8209,22,13.6,22zM22,21.6V10.4c0,-0.2209,-0.1791,-0.4,-0.4,-0.4h-3.2c-0.2209,0,-0.4,0.1791,-0.4,0.4v11.2c0,0.2209,0.1791,0.4,0.4,0.4h3.2C21.8209,22,22,21.8209,22,21.6z" fill="#FFFFFF"/></g></svg>