<?xml version="1.0" ?><!DOCTYPE svg  PUBLIC '-//W3C//DTD SVG 1.1//EN'  'http://www.w3.org/Graphics/SVG/1.1/DTD/svg11.dtd'><svg enable-background="new 0 0 30 30" height="30px" id="Layer_1" version="1.1" viewBox="0 0 30 30" width="30px" xml:space="preserve" xmlns="http://www.w3.org/2000/svg" xmlns:xlink="http://www.w3.org/1999/xlink"><path clip-rule="evenodd" d="M15,30C9.477,30,5,25.522,5,20c0-2.796,1.15-5.321,3-7.136V7c0-3.866,3.134-7,7-7  c3.866,0,7,3.134,7,7v5.864c1.85,1.814,3,4.34,3,7.136C25,25.522,20.522,30,15,30z M20,7c0-2.762-2.238-5-5-5c-2.762,0-5,2.238-5,5  v4.349C11.472,10.497,13.176,10,15,10s3.528,0.497,5,1.349V7z M15,12c-4.418,0-8,3.582-8,8s3.582,8.001,8,8.001s8-3.583,8-8.001  S19.418,12,15,12z M16,19.722V24h-2v-4.278c-0.595-0.346-1-0.982-1-1.721c0-1.105,0.896-2.002,2-2.002c1.105,0,2,0.896,2,2.002  C17,18.739,16.596,19.376,16,19.722z" fill-rule="evenodd"/></svg>