<?xml version="1.0" ?><svg viewBox="0 0 64 64" xmlns="http://www.w3.org/2000/svg"><title/><g data-name="16-search" id="_16-search"><path d="M28.671,10.505A4.454,4.454,0,0,0,32,12H56V8a5,5,0,0,0-5-5H20a4.454,4.454,0,0,1,3.329,1.5Z" style="fill:#4e78a6"/><path d="M6,48H6a5,5,0,0,1-5-5V8A5,5,0,0,1,6,3H20a4.454,4.454,0,0,1,3.329,1.5l5.342,6.01A4.454,4.454,0,0,0,32,12H58a5,5,0,0,1,5,5V43a5,5,0,0,1-5,5H6Z" style="fill:#68a0dd"/><path d="M51.95,33.565a13,13,0,1,0-2.377,20.25l6.619,6.62a3,3,0,0,0,4.243,0h0a3,3,0,0,0,0-4.243l-6.62-6.619A13,13,0,0,0,51.95,33.565Z" style="fill:#a4a3a3"/><circle cx="42.757" cy="42.757" r="9" style="fill:#dbdada"/><circle cx="43" cy="43" r="1" style="fill:#404040"/><circle cx="47" cy="43" r="1" style="fill:#404040"/><circle cx="39" cy="43" r="1" style="fill:#404040"/></g></svg>