<?xml version="1.0" ?><svg data-name="002" id="_002" viewBox="0 0 128 128" xmlns="http://www.w3.org/2000/svg"><defs><style>.cls-1{opacity:0.3;}.cls-2{fill:#97c1ff;}.cls-3{fill:#eef6ff;}.cls-4{fill:#5cbeff;}.cls-5{fill:#fff;}.cls-6{fill:#6d6daa;}.cls-7{fill:#c9c1f5;}.cls-8{fill:#96d7ff;}.cls-9{fill:#7690a8;}.cls-10{opacity:0.5;}.cls-11{fill:#5b58bc;}</style></defs><title/><g class="cls-1"><path class="cls-2" d="M125.7,48.66a30,30,0,0,0-23.51-25,19.69,19.69,0,0,1-10.93-6.55A37,37,0,0,0,27,32.44,21,21,0,0,1,16.12,46.11C2,53.47-5.14,72.57,7.77,90.5a16.6,16.6,0,0,0,6.35,4.91,20.58,20.58,0,0,1,10,10.88,28.49,28.49,0,0,0,42.62,12.64A20.06,20.06,0,0,1,83.39,116a29,29,0,0,0,36-33.79,20.08,20.08,0,0,1,2.51-14.13A29.83,29.83,0,0,0,125.7,48.66Z"/><path class="cls-3" d="M44.74,23.49A11.29,11.29,0,0,0,23,18.3,6,6,0,0,0,13.19,23c0,.17,0,.34,0,.51A9,9,0,0,0,16.2,41H41.8a9,9,0,0,0,2.94-17.5Z"/><g class="cls-1"><path class="cls-4" d="M41.8,38H16.2a9,9,0,0,1-8.91-7.52A9,9,0,0,0,16.2,41H41.8a9,9,0,0,0,8.91-10.52A9,9,0,0,1,41.8,38Z"/></g><path class="cls-5" d="M13.21,26.51c0-.17,0-.34,0-.51A6,6,0,0,1,23,21.3a11.28,11.28,0,0,1,21.79,5.19,9,9,0,0,1,6,7,8.91,8.91,0,0,0-6-10A11.29,11.29,0,0,0,23,18.3,6,6,0,0,0,13.19,23c0,.17,0,.34,0,.51a8.9,8.9,0,0,0-5.92,10A9,9,0,0,1,13.21,26.51Z"/><path class="cls-6" d="M41.8,42H16.2a10,10,0,0,1-4-19.16,7,7,0,0,1,10.32-6,12.3,12.3,0,0,1,23.31,5.43c0,.19,0,.39,0,.58A10,10,0,0,1,41.8,42ZM19.21,18a5,5,0,0,0-5,5c0,.14,0,.29,0,.43a1,1,0,0,1-.67,1A8,8,0,0,0,16.2,40H41.8a8,8,0,0,0,2.62-15.56,1,1,0,0,1-.67-1.06A10.21,10.21,0,0,0,33.52,12a10.34,10.34,0,0,0-9.63,6.66,1,1,0,0,1-1.56.43A5,5,0,0,0,19.21,18Z"/><path class="cls-3" d="M41.8,23a9.06,9.06,0,0,1,3,.5"/><path class="cls-6" d="M44.77,24.49a1,1,0,0,1-.33-.06A8.05,8.05,0,0,0,41.8,24a1,1,0,0,1,0-2,10.06,10.06,0,0,1,3.29.55,1,1,0,0,1-.33,1.95Z"/><path class="cls-3" d="M13.21,23.5a9.06,9.06,0,0,1,3-.5"/><path class="cls-6" d="M13.21,24.5a1,1,0,0,1-.33-1.94A10,10,0,0,1,16.2,22a1,1,0,0,1,0,2,8,8,0,0,0-2.66.45A1,1,0,0,1,13.21,24.5Z"/><path class="cls-3" d="M22.91,18.26a6,6,0,0,1,1.64,2"/><path class="cls-6" d="M24.55,21.22a1,1,0,0,1-.89-.53,5.05,5.05,0,0,0-1.37-1.63,1,1,0,0,1,1.23-1.58,7.08,7.08,0,0,1,1.91,2.28,1,1,0,0,1-.88,1.47Z"/><path class="cls-3" d="M94.61,19.66a6,6,0,0,1,11.62-2.77,3.21,3.21,0,0,1,5.21,2.51c0,.09,0,.18,0,.27A4.79,4.79,0,0,1,109.84,29H96.18a4.8,4.8,0,0,1-1.57-9.34Z"/><path class="cls-5" d="M94.61,21.66a6,6,0,0,1,11.62-2.77,3.21,3.21,0,0,1,5.21,2.51c0,.09,0,.18,0,.27a4.81,4.81,0,0,1,3.11,3.54,4.76,4.76,0,0,0-3.11-5.54c0-.09,0-.18,0-.27a3.21,3.21,0,0,0-5.21-2.51,6,6,0,0,0-11.62,2.77,4.76,4.76,0,0,0-3.14,5.55A4.81,4.81,0,0,1,94.61,21.66Z"/><g class="cls-1"><path class="cls-4" d="M109.84,27H96.18a4.81,4.81,0,0,1-4.71-3.78,4.75,4.75,0,0,0-.11,1A4.81,4.81,0,0,0,96.18,29h13.66a4.81,4.81,0,0,0,4.82-4.8,4.75,4.75,0,0,0-.11-1A4.81,4.81,0,0,1,109.84,27Z"/></g><path class="cls-6" d="M109.84,30H96.18a5.79,5.79,0,0,1-2.61-11v0a7,7,0,0,1,13.1-3.5A4.22,4.22,0,0,1,112.42,19a5.79,5.79,0,0,1-2.59,11ZM100.6,14a5,5,0,0,0-5,5.55,1,1,0,0,1-.67,1.06A3.8,3.8,0,0,0,96.18,28h13.66a3.79,3.79,0,0,0,1.26-7.38,1,1,0,0,1-.67-1c0-.06,0-.12,0-.19a2.21,2.21,0,0,0-3.59-1.72,1,1,0,0,1-1.56-.43A5,5,0,0,0,100.6,14Z"/><path class="cls-3" d="M96.18,19.4a4.83,4.83,0,0,0-1.58.26"/><path class="cls-6" d="M94.6,20.66a1,1,0,0,1-.33-1.95,5.83,5.83,0,0,1,1.91-.32,1,1,0,0,1,0,2,3.83,3.83,0,0,0-1.25.21A1,1,0,0,1,94.6,20.66Z"/><path class="cls-3" d="M111.43,19.67a4.83,4.83,0,0,0-1.59-.27"/><path class="cls-6" d="M111.43,20.67a1,1,0,0,1-.33-.06,3.83,3.83,0,0,0-1.26-.21,1,1,0,0,1,0-2,5.82,5.82,0,0,1,1.92.32,1,1,0,0,1-.33,1.94Z"/><path class="cls-3" d="M106.26,16.87a3.22,3.22,0,0,0-.87,1"/><path class="cls-6" d="M105.38,18.91a1,1,0,0,1-.88-1.47,4.24,4.24,0,0,1,1.15-1.37,1,1,0,1,1,1.23,1.58,2.23,2.23,0,0,0-.6.72A1,1,0,0,1,105.38,18.91Z"/><path class="cls-3" d="M90.77,56a8,8,0,0,1,11.88-8.85,10.49,10.49,0,0,1,18.8,5.25A7.5,7.5,0,0,1,119,67H91a5.5,5.5,0,0,1-.23-11Z"/><path class="cls-5" d="M90.77,59a7.62,7.62,0,0,1-.2-3,5.47,5.47,0,0,0-4.84,7A5.48,5.48,0,0,1,90.77,59Z"/><path class="cls-5" d="M98.51,49a8,8,0,0,1,4.14,1.16,10.49,10.49,0,0,1,18.8,5.25,7.5,7.5,0,0,1,4.9,5.62,7.49,7.49,0,0,0-4.9-8.62,10.49,10.49,0,0,0-18.8-5.25A8,8,0,0,0,90.51,54a7.72,7.72,0,0,0,.15,1.45A8,8,0,0,1,98.51,49Z"/><path class="cls-4" d="M90.77,53c0-.18-.08-.38-.11-.57,0,.2-.07.39-.09.59Z"/><g class="cls-1"><path class="cls-4" d="M119,64H91a5.5,5.5,0,0,1-5.28-4,5.44,5.44,0,0,0-.22,1.46A5.5,5.5,0,0,0,91,67h28a7.43,7.43,0,0,0,7.34-9A7.5,7.5,0,0,1,119,64Z"/></g><path class="cls-6" d="M119,68H91a6.5,6.5,0,0,1-1.42-12.84A8.69,8.69,0,0,1,89.51,54,9,9,0,0,1,102.4,45.9a11.49,11.49,0,0,1,20,5.81A8.5,8.5,0,0,1,119,68ZM98.51,47a7,7,0,0,0-6.77,8.76A1,1,0,0,1,90.81,57,4.5,4.5,0,0,0,91,66h28a6.5,6.5,0,0,0,2.12-12.64,1,1,0,0,1-.67-.84,9.49,9.49,0,0,0-17-4.75,1,1,0,0,1-1.32.25A7,7,0,0,0,98.51,47Z"/><path class="cls-6" d="M121,57.75a1,1,0,0,1-1-1.31A9.51,9.51,0,0,0,111,44a1,1,0,0,1,0-2,11.51,11.51,0,0,1,10.94,15.06A1,1,0,0,1,121,57.75Z"/><path class="cls-6" d="M94.63,58.36a1,1,0,0,1-.66-.25A4.5,4.5,0,0,0,91,57a1,1,0,1,1,0-2,6.5,6.5,0,0,1,4.28,1.61,1,1,0,0,1-.66,1.75Z"/><path class="cls-6" d="M105,50.34a1,1,0,0,1-.81-.42A7,7,0,0,0,98.51,47a1,1,0,1,1,0-2,9,9,0,0,1,7.32,3.76,1,1,0,0,1-.81,1.58Z"/><path class="cls-5" d="M122,84a1,1,0,0,1-.71-.3,1,1,0,0,1-.22-.32A1,1,0,0,1,121,83a1,1,0,0,1,.29-.71,1,1,0,0,1,1.41,0,1,1,0,0,1,.22,1.09.87.87,0,0,1-.22.32A1,1,0,0,1,122,84Z"/><path class="cls-5" d="M120,88h-6a1,1,0,0,1,0-2h6a1,1,0,1,1,0,2Z"/><path class="cls-5" d="M118,84h-7a1,1,0,0,1,0-2h7a1,1,0,1,1,0,2Z"/><path class="cls-5" d="M110,88h-2a1,1,0,1,1,0-2h2a1,1,0,1,1,0,2Z"/><path class="cls-5" d="M118,92h-8a1,1,0,0,1,0-2h8a1,1,0,0,1,0,2Z"/><path class="cls-5" d="M16,76a1,1,0,0,1-1-1,1,1,0,0,1,.29-.7.87.87,0,0,1,.32-.22,1,1,0,0,1,1.09.22,1,1,0,0,1,.3.7,1,1,0,0,1-.3.71A1,1,0,0,1,16,76Z"/><path class="cls-5" d="M17,72H15a1,1,0,0,1,0-2h2a1,1,0,0,1,0,2Z"/><path class="cls-5" d="M20,68H10a1,1,0,1,1,0-2H20a1,1,0,0,1,0,2Z"/><path class="cls-5" d="M11,72H7a1,1,0,0,1,0-2h4a1,1,0,0,1,0,2Z"/><path class="cls-5" d="M12,76H4a1,1,0,0,1,0-2h8a1,1,0,0,1,0,2Z"/></g><path class="cls-7" d="M71.33,7.38A5.55,5.55,0,0,0,75,11.08q2.77.92,0,1.85a5.55,5.55,0,0,0-3.69,3.69q-.92,2.77-1.85,0a5.55,5.55,0,0,0-3.69-3.69q-2.77-.92,0-1.85a5.55,5.55,0,0,0,3.69-3.69Q70.4,4.62,71.33,7.38Z"/><path class="cls-7" d="M100,32.57A3.7,3.7,0,0,0,102.48,35q1.85.62,0,1.23A3.7,3.7,0,0,0,100,38.72q-.62,1.85-1.23,0a3.7,3.7,0,0,0-2.46-2.46q-1.85-.62,0-1.23a3.7,3.7,0,0,0,2.46-2.46Q99.4,30.72,100,32.57Z"/><path class="cls-8" d="M16.77,87.15a4.62,4.62,0,0,0,3.08,3.08q2.31.77,0,1.54a4.62,4.62,0,0,0-3.08,3.08q-.77,2.31-1.54,0a4.62,4.62,0,0,0-3.08-3.08q-2.31-.77,0-1.54a4.62,4.62,0,0,0,3.08-3.08Q16,84.85,16.77,87.15Z"/><path class="cls-7" d="M19,45.57A3.7,3.7,0,0,0,21.47,48q1.85.62,0,1.23A3.7,3.7,0,0,0,19,51.72q-.62,1.85-1.23,0a3.7,3.7,0,0,0-2.46-2.46q-1.85-.62,0-1.23a3.7,3.7,0,0,0,2.46-2.46Q18.4,43.72,19,45.57Z"/><path class="cls-8" d="M116,95.57A3.7,3.7,0,0,0,118.48,98q1.85.62,0,1.23a3.7,3.7,0,0,0-2.46,2.46q-.62,1.85-1.23,0a3.7,3.7,0,0,0-2.46-2.46q-1.85-.62,0-1.23a3.7,3.7,0,0,0,2.46-2.46Q115.41,93.73,116,95.57Z"/><path class="cls-7" d="M80.62,116.92a3.7,3.7,0,0,0,2.46,2.46q1.85.62,0,1.23a3.7,3.7,0,0,0-2.46,2.46q-.62,1.85-1.23,0a3.7,3.7,0,0,0-2.46-2.46q-1.85-.62,0-1.23a3.7,3.7,0,0,0,2.46-2.46Q80,115.08,80.62,116.92Z"/><rect class="cls-5" height="27" rx="2" ry="2" width="89" x="20" y="78"/><g class="cls-1"><path class="cls-9" d="M107,78H22a2,2,0,0,0-2,2v5c0-1.1.9-4,2-4h85c1.1,0,2,2.9,2,4V80A2,2,0,0,0,107,78Z"/></g><path class="cls-6" d="M107,106H22a3,3,0,0,1-3-3V80a3,3,0,0,1,3-3h85a3,3,0,0,1,3,3v23A3,3,0,0,1,107,106ZM22,79a1,1,0,0,0-1,1v23a1,1,0,0,0,1,1h85a1,1,0,0,0,1-1V80a1,1,0,0,0-1-1Z"/><g class="cls-10"><path class="cls-6" d="M34.5,98.14a1,1,0,0,1-1-1V86.86a1,1,0,0,1,2,0V97.14A1,1,0,0,1,34.5,98.14Z"/><path class="cls-6" d="M39,96.26a1,1,0,0,1-.59-.19l-9-6.52a1,1,0,1,1,1.17-1.62l9,6.52A1,1,0,0,1,39,96.26Z"/><path class="cls-6" d="M30,96.26a1,1,0,0,1-.59-1.81l9-6.52a1,1,0,1,1,1.17,1.62l-9,6.52A1,1,0,0,1,30,96.26Z"/></g><g class="cls-10"><path class="cls-6" d="M49.5,98.14a1,1,0,0,1-1-1V86.86a1,1,0,0,1,2,0V97.14A1,1,0,0,1,49.5,98.14Z"/><path class="cls-6" d="M54,96.26a1,1,0,0,1-.59-.19l-9-6.52a1,1,0,1,1,1.17-1.62l9,6.52A1,1,0,0,1,54,96.26Z"/><path class="cls-6" d="M45,96.26a1,1,0,0,1-.59-1.81l9-6.52a1,1,0,1,1,1.17,1.62l-9,6.52A1,1,0,0,1,45,96.26Z"/></g><g class="cls-10"><path class="cls-6" d="M64.5,98.14a1,1,0,0,1-1-1V86.86a1,1,0,0,1,2,0V97.14A1,1,0,0,1,64.5,98.14Z"/><path class="cls-6" d="M69,96.26a1,1,0,0,1-.59-.19l-9-6.52a1,1,0,1,1,1.17-1.62l9,6.52A1,1,0,0,1,69,96.26Z"/><path class="cls-6" d="M60,96.26a1,1,0,0,1-.59-1.81l9-6.52a1,1,0,1,1,1.17,1.62l-9,6.52A1,1,0,0,1,60,96.26Z"/></g><g class="cls-10"><path class="cls-6" d="M79.5,98.14a1,1,0,0,1-1-1V86.86a1,1,0,0,1,2,0V97.14A1,1,0,0,1,79.5,98.14Z"/><path class="cls-6" d="M84,96.26a1,1,0,0,1-.59-.19l-9-6.52a1,1,0,1,1,1.17-1.62l9,6.52A1,1,0,0,1,84,96.26Z"/><path class="cls-6" d="M75,96.26a1,1,0,0,1-.59-1.81l9-6.52a1,1,0,1,1,1.17,1.62l-9,6.52A1,1,0,0,1,75,96.26Z"/></g><g class="cls-10"><path class="cls-6" d="M94.5,98.14a1,1,0,0,1-1-1V86.86a1,1,0,0,1,2,0V97.14A1,1,0,0,1,94.5,98.14Z"/><path class="cls-6" d="M99,96.26a1,1,0,0,1-.59-.19l-9-6.52a1,1,0,1,1,1.17-1.62l9,6.52A1,1,0,0,1,99,96.26Z"/><path class="cls-6" d="M90,96.26a1,1,0,0,1-.59-1.81l9-6.52a1,1,0,1,1,1.17,1.62l-9,6.52A1,1,0,0,1,90,96.26Z"/></g><path class="cls-3" d="M50,29V42h6V29H72V42h6V29a6,6,0,0,0-6-6H56A6,6,0,0,0,50,29Z"/><g class="cls-1"><path class="cls-9" d="M53,29V42h3V29H72V42h3V29a3,3,0,0,0-3-3H56A3,3,0,0,0,53,29Z"/></g><g class="cls-1"><rect class="cls-9" height="3" width="6" x="50" y="39"/></g><g class="cls-1"><rect class="cls-9" height="3" width="6" x="72" y="39"/></g><path class="cls-5" d="M72,23H56a6,6,0,0,0-6,6v3a6,6,0,0,1,6-6H72a6,6,0,0,1,6,6V29A6,6,0,0,0,72,23Z"/><path class="cls-6" d="M78,43H72a1,1,0,0,1-1-1V30H57V42a1,1,0,0,1-1,1H50a1,1,0,0,1-1-1V29a7,7,0,0,1,7-7H72a7,7,0,0,1,7,7V42A1,1,0,0,1,78,43Zm-5-2h4V29a5,5,0,0,0-5-5H56a5,5,0,0,0-5,5V41h4V29a1,1,0,0,1,1-1H72a1,1,0,0,1,1,1Z"/><rect class="cls-3" height="30" rx="2" ry="2" width="42" x="43" y="42"/><path class="cls-7" d="M45,72H83a2,2,0,0,0,2-2V64H43v6A2,2,0,0,0,45,72Z"/><g class="cls-1"><path class="cls-11" d="M64,64v8H83a2,2,0,0,0,2-2V64Z"/></g><path class="cls-5" d="M43,44v2H85V44a2,2,0,0,0-2-2H45A2,2,0,0,0,43,44Z"/><g class="cls-1"><path class="cls-4" d="M85,64V44a2,2,0,0,0-2-2H64V64Z"/></g><path class="cls-6" d="M83,73H45a3,3,0,0,1-3-3V44a3,3,0,0,1,3-3H83a3,3,0,0,1,3,3V70A3,3,0,0,1,83,73ZM45,43a1,1,0,0,0-1,1V70a1,1,0,0,0,1,1H83a1,1,0,0,0,1-1V44a1,1,0,0,0-1-1Z"/><path class="cls-6" d="M85,65H43a1,1,0,0,1,0-2H85a1,1,0,0,1,0,2Z"/><g class="cls-1"><path class="cls-6" d="M45,69a1,1,0,0,1-.92-1.38,1.15,1.15,0,0,1,.21-.33,1.55,1.55,0,0,1,.15-.12.74.74,0,0,1,.18-.09A.65.65,0,0,1,44.8,67a1,1,0,0,1,.91.27,1,1,0,0,1,.21.33A.84.84,0,0,1,46,68a1,1,0,0,1-1,1Z"/><path class="cls-6" d="M47,67a1,1,0,0,1-.71-.29,1.16,1.16,0,0,1-.21-.33A1,1,0,0,1,46,66a1.05,1.05,0,0,1,.29-.71.93.93,0,0,1,.33-.21,1,1,0,0,1,.76,0,1,1,0,0,1,.33.21A1.05,1.05,0,0,1,48,66a1,1,0,0,1-.08.38,1.17,1.17,0,0,1-.21.33A1,1,0,0,1,47,67Z"/><path class="cls-6" d="M49,69a1,1,0,0,1-1-1,.84.84,0,0,1,.08-.38,1,1,0,0,1,.21-.33,1,1,0,0,1,1.09-.21.9.9,0,0,1,.54.54A1,1,0,0,1,49,69Z"/><path class="cls-6" d="M51,67a1,1,0,0,1-.71-.29,1.16,1.16,0,0,1-.21-.33A.84.84,0,0,1,50,66a1.05,1.05,0,0,1,.29-.71.93.93,0,0,1,.33-.21,1,1,0,0,1,.76,0,1,1,0,0,1,.33.21A1.05,1.05,0,0,1,52,66a1,1,0,0,1-1,1Z"/><path class="cls-6" d="M53,69a1,1,0,0,1-.92-1.38,1.15,1.15,0,0,1,.21-.33,1,1,0,0,1,.33-.21,1,1,0,0,1,.76,0,1,1,0,0,1,.33.21,1.16,1.16,0,0,1,.21.33A1,1,0,0,1,53,69Z"/><path class="cls-6" d="M55,67a1,1,0,0,1-.38-.08,1.15,1.15,0,0,1-.33-.21,1,1,0,0,1-.21-1.09,1.15,1.15,0,0,1,.21-.33A1,1,0,0,1,56,66a1,1,0,0,1-1,1Z"/><path class="cls-6" d="M57,69a1,1,0,0,1-.92-1.38,1.15,1.15,0,0,1,.21-.33,1,1,0,0,1,1.63.33A.84.84,0,0,1,58,68a1,1,0,0,1-1,1Z"/><path class="cls-6" d="M59,67a1,1,0,0,1-1-1,.84.84,0,0,1,.08-.38,1.15,1.15,0,0,1,.21-.33,1,1,0,0,1,.33-.21,1,1,0,0,1,.76,0,.94.94,0,0,1,.33.21,1.16,1.16,0,0,1,.21.33A.84.84,0,0,1,60,66a1,1,0,0,1-1,1Z"/><path class="cls-6" d="M61,69a1,1,0,0,1-.92-1.38,1,1,0,0,1,.21-.33,1,1,0,0,1,1.09-.21.9.9,0,0,1,.54.54A1,1,0,0,1,61,69Z"/><path class="cls-6" d="M63,67a1,1,0,0,1-.92-1.38,1,1,0,0,1,.21-.33.93.93,0,0,1,.33-.21,1,1,0,0,1,.76,0,1,1,0,0,1,.33.21,1.16,1.16,0,0,1,.21.33A.84.84,0,0,1,64,66a1,1,0,0,1-1,1Z"/><path class="cls-6" d="M65,69a1,1,0,0,1-.92-1.38.9.9,0,0,1,.54-.54,1,1,0,0,1,.76,0,.94.94,0,0,1,.33.21,1.16,1.16,0,0,1,.21.33A1,1,0,0,1,65,69Z"/><path class="cls-6" d="M67,67a1,1,0,0,1-1-1,1,1,0,0,1,1.71-.71,1.16,1.16,0,0,1,.21.33A1,1,0,0,1,67,67Z"/><path class="cls-6" d="M69,69a1,1,0,0,1-.92-1.38,1,1,0,0,1,1.84,0A.84.84,0,0,1,70,68a1,1,0,0,1-1,1Z"/><path class="cls-6" d="M71,67a1,1,0,0,1-1-1,1.05,1.05,0,0,1,.29-.71,1,1,0,0,1,.33-.21,1,1,0,0,1,.76,0,1,1,0,0,1,.33.21,1.16,1.16,0,0,1,.21.33A1,1,0,0,1,71,67Z"/><path class="cls-6" d="M73,69a1,1,0,0,1-.92-1.38,1,1,0,0,1,.21-.33,1,1,0,0,1,1.09-.21.9.9,0,0,1,.54.54A1,1,0,0,1,73,69Z"/><path class="cls-6" d="M75,67a1,1,0,0,1-.71-.29,1.16,1.16,0,0,1-.21-.33A1,1,0,0,1,74,66a1.05,1.05,0,0,1,.29-.71,1,1,0,0,1,.33-.21,1,1,0,0,1,.76,0,.94.94,0,0,1,.33.21A1.05,1.05,0,0,1,76,66a1,1,0,0,1-.08.38,1.17,1.17,0,0,1-.21.33A1,1,0,0,1,75,67Z"/><path class="cls-6" d="M77,69a1,1,0,0,1-.92-1.38.9.9,0,0,1,.54-.54,1,1,0,0,1,1.09.21,1,1,0,0,1,.21.33A1,1,0,0,1,77,69Z"/><path class="cls-6" d="M79,67a1,1,0,0,1-.71-.29,1.16,1.16,0,0,1-.21-.33A1,1,0,0,1,78,66a1.05,1.05,0,0,1,.29-.71.93.93,0,0,1,.33-.21,1,1,0,0,1,.76,0,1,1,0,0,1,.33.21A1.05,1.05,0,0,1,80,66a1,1,0,0,1-.08.38,1.17,1.17,0,0,1-.21.33A1,1,0,0,1,79,67Z"/><path class="cls-6" d="M81,69a1,1,0,0,1-.38-.08,1.15,1.15,0,0,1-.33-.21,1,1,0,0,1-.21-1.09,1,1,0,0,1,1.84,0A.84.84,0,0,1,82,68a1,1,0,0,1-1,1Z"/><path class="cls-6" d="M47,71a1,1,0,0,1-.92-1.38,1.15,1.15,0,0,1,.21-.33,1.55,1.55,0,0,1,.15-.12.74.74,0,0,1,.18-.09.62.62,0,0,1,.19-.06,1,1,0,0,1,.9.27,1.16,1.16,0,0,1,.21.33A.84.84,0,0,1,48,70a1,1,0,0,1-1,1Z"/><path class="cls-6" d="M51,71a1,1,0,0,1-.71-.29,1.16,1.16,0,0,1-.21-.33.95.95,0,0,1,0-.76,1.15,1.15,0,0,1,.21-.33,1,1,0,0,1,1.63.33A.84.84,0,0,1,52,70a1,1,0,0,1-1,1Z"/><path class="cls-6" d="M55,71a1,1,0,0,1-.71-.29,1.16,1.16,0,0,1-.21-.33A.84.84,0,0,1,54,70a1,1,0,0,1,.08-.38,1.15,1.15,0,0,1,.21-.33,1,1,0,0,1,1.63.33A1,1,0,0,1,55,71Z"/><path class="cls-6" d="M59,71a1,1,0,0,1-.92-1.38,1,1,0,0,1,.21-.33,1,1,0,0,1,1.42,0,1.16,1.16,0,0,1,.21.33.94.94,0,0,1,0,.76,1.17,1.17,0,0,1-.21.33A1,1,0,0,1,59,71Z"/><path class="cls-6" d="M63,71a1,1,0,0,1-.92-1.38,1,1,0,0,1,.21-.33,1,1,0,0,1,1.42,0,1.16,1.16,0,0,1,.21.33.94.94,0,0,1,0,.76,1.17,1.17,0,0,1-.21.33A1,1,0,0,1,63,71Z"/><path class="cls-6" d="M67,71a1,1,0,0,1-.92-1.38,1.15,1.15,0,0,1,.21-.33,1,1,0,0,1,1.42,0,1.16,1.16,0,0,1,.21.33A1,1,0,0,1,67,71Z"/><path class="cls-6" d="M71,71a1,1,0,0,1-.71-.29,1.16,1.16,0,0,1-.21-.33.95.95,0,0,1,0-.76,1.15,1.15,0,0,1,.21-.33,1,1,0,0,1,1.63.33A.84.84,0,0,1,72,70a1,1,0,0,1-1,1Z"/><path class="cls-6" d="M75,71a1,1,0,0,1-.71-.29,1.16,1.16,0,0,1-.21-.33.95.95,0,0,1,0-.76.9.9,0,0,1,.54-.54,1,1,0,0,1,1.09.21,1.16,1.16,0,0,1,.21.33A.84.84,0,0,1,76,70a1,1,0,0,1-1,1Z"/><path class="cls-6" d="M79,71a1,1,0,0,1-.71-.29,1.16,1.16,0,0,1-.21-.33A.84.84,0,0,1,78,70a1,1,0,0,1,.08-.38,1.15,1.15,0,0,1,.21-.33,1,1,0,0,1,1.42,0,1.16,1.16,0,0,1,.21.33A1,1,0,0,1,80,70a.84.84,0,0,1-.08.38,1.17,1.17,0,0,1-.21.33A1,1,0,0,1,79,71Z"/><path class="cls-6" d="M83,67a1,1,0,0,1-.71-.29,1.16,1.16,0,0,1-.21-.33A.84.84,0,0,1,82,66a1.05,1.05,0,0,1,.29-.71.93.93,0,0,1,.33-.21,1,1,0,0,1,.76,0,1,1,0,0,1,.33.21A1.05,1.05,0,0,1,84,66a1,1,0,0,1-1,1Z"/><path class="cls-6" d="M83,71a1,1,0,0,1-1-1,.84.84,0,0,1,.08-.38,1.15,1.15,0,0,1,.21-.33,1,1,0,0,1,1.09-.21.9.9,0,0,1,.54.54.94.94,0,0,1,0,.76,1.17,1.17,0,0,1-.21.33A1,1,0,0,1,83,71Z"/></g></svg>