<?xml version="1.0" ?><!DOCTYPE svg  PUBLIC '-//W3C//DTD SVG 1.1//EN'  'http://www.w3.org/Graphics/SVG/1.1/DTD/svg11.dtd'><svg height="135px" style="shape-rendering:geometricPrecision; text-rendering:geometricPrecision; image-rendering:optimizeQuality; fill-rule:evenodd; clip-rule:evenodd" version="1.1" viewBox="0 0 27892 27892" width="135px" xml:space="preserve" xmlns="http://www.w3.org/2000/svg" xmlns:xlink="http://www.w3.org/1999/xlink"><defs><style type="text/css">
   <![CDATA[
    .fil1 {fill:#2A68A6}
    .fil8 {fill:#6C7C8C}
    .fil3 {fill:#C6CBD6}
    .fil2 {fill:#F3F3F3}
    .fil7 {fill:#FF576B}
    .fil0 {fill:#FFC42E}
    .fil6 {fill:white}
    .fil4 {fill:#C6CBD6;fill-rule:nonzero}
    .fil5 {fill:#FF576B;fill-rule:nonzero}
   ]]>
  </style></defs><g id="Layer_x0020_1"><g id="_578421456"><circle class="fil0" cx="13946" cy="13946" r="13946"/><circle class="fil1" cx="13946" cy="13946" r="10886"/><circle class="fil2" cx="13946" cy="13946" r="9420"/><path class="fil3" d="M14208 8114l0 0c210,0 382,172 382,382l0 4935 -764 0 0 -4935c0,-210 172,-382 382,-382z"/><path class="fil3" d="M13946 4526c1599,0 3104,398 4423,1101 -1089,-440 -2279,-683 -3526,-683 -5202,0 -9420,4218 -9420,9421 0,3604 2024,6735 4998,8319 -3456,-1396 -5895,-4782 -5895,-8738 0,-5203 4217,-9420 9420,-9420z"/><path class="fil4" d="M16340 12762c85,-51 195,-25 246,60 52,84 25,194 -59,246l-8231 5049c-84,52 -194,25 -246,-59 -51,-85 -24,-195 60,-246l8230 -5050z"/><path class="fil1" d="M13946 7890l0 0c210,0 382,172 382,382l0 4935 -764 0 0 -4935c0,-210 172,-382 382,-382z"/><circle class="fil3" cx="14198" cy="14168" r="1433"/><path class="fil3" d="M19642 17988l0 0c78,-116 47,-274 -69,-351l-4710 -3167 -283 420 4711 3167c116,77 274,46 351,-69z"/><path class="fil1" d="M19629 17761l0 0c78,-115 47,-273 -69,-351l-4711 -3167 -282 420 4711 3167c115,78 273,47 351,-69z"/><path class="fil5" d="M15959 12471c85,-52 195,-25 246,59 52,85 25,195 -59,246l-8231 5050c-84,51 -195,25 -246,-60 -51,-84 -25,-194 60,-246l8230 -5049z"/><circle class="fil6" cx="13946" cy="13946" r="1283"/><circle class="fil7" cx="13946" cy="13946" r="739"/><path class="fil4" d="M8857 14174c15,112 -65,215 -177,230 -113,15 -216,-65 -231,-177 -8,-64 -16,-128 -22,-193 -7,-68 -12,-133 -16,-193 -6,-114 80,-211 194,-218 113,-7 211,80 218,194 4,64 8,124 14,179 5,59 12,118 20,178zm-31 -1009c-8,113 -106,199 -220,192 -113,-8 -199,-106 -192,-220 79,-1132 504,-2161 1167,-2986 680,-847 1610,-1481 2670,-1794 109,-32 224,31 256,140 32,109 -30,223 -140,255 -979,289 -1837,874 -2465,1657 -611,761 -1004,1711 -1076,2756zm1318 155c-6,114 -103,201 -217,196 -113,-6 -200,-103 -195,-217 3,-51 7,-107 13,-166 5,-56 11,-111 18,-164 15,-112 118,-192 231,-177 112,15 192,118 177,231 -7,50 -12,100 -17,148 -4,45 -8,95 -10,149zm151 -866c-33,109 -148,170 -257,137 -109,-32 -171,-148 -138,-257 164,-541 438,-1034 796,-1452 362,-423 810,-770 1314,-1015 103,-49 226,-6 275,96 50,102 7,226 -96,275 -453,220 -855,531 -1180,912 -320,374 -567,816 -714,1304z"/><rect class="fil7" height="929" width="335" x="13779" y="5419"/><rect class="fil7" height="929" transform="matrix(1.91177E-014 -0.721844 1 2.64845E-014 5419.27 14113.8)" width="465"/><rect class="fil7" height="929" width="335" x="13779" y="21544"/><rect class="fil7" height="929" transform="matrix(-5.73531E-014 0.721844 -1 -7.94536E-014 22473.1 13778.5)" width="465"/><rect class="fil8" height="929" transform="matrix(0.315102 -0.102383 0.186675 0.574528 11238 5860.39)" width="465"/><rect class="fil8" height="929" transform="matrix(0.268042 -0.194744 0.355078 0.488723 8871.93 7092.99)" width="465"/><rect class="fil8" height="929" transform="matrix(0.194744 -0.268042 0.488723 0.355078 7002.54 8996.44)" width="465"/><rect class="fil8" height="929" transform="matrix(0.102383 -0.315102 0.574528 0.186675 5812.83 11384.4)" width="465"/><rect class="fil8" height="929" transform="matrix(-0.102383 -0.315102 0.574528 -0.186675 5860.39 16654.3)" width="465"/><rect class="fil8" height="929" transform="matrix(-0.194744 -0.268042 0.488723 -0.355078 7092.99 19020.4)" width="465"/><rect class="fil8" height="929" transform="matrix(-0.268042 -0.194744 0.355078 -0.488723 8996.44 20889.8)" width="465"/><rect class="fil8" height="929" transform="matrix(-0.315102 -0.102383 0.186675 -0.574528 11384.4 22079.5)" width="465"/><rect class="fil8" height="929" transform="matrix(-0.315102 0.102383 -0.186675 -0.574528 16654.3 22032)" width="465"/><rect class="fil8" height="929" transform="matrix(-0.268042 0.194744 -0.355078 -0.488723 19020.4 20799.4)" width="465"/><rect class="fil8" height="929" transform="matrix(-0.194744 0.268042 -0.488723 -0.355078 20889.8 18895.9)" width="465"/><rect class="fil8" height="929" transform="matrix(-0.102383 0.315102 -0.574528 -0.186675 22079.5 16508)" width="465"/><rect class="fil8" height="929" transform="matrix(0.102383 0.315102 -0.574528 0.186675 22032 11238)" width="465"/><rect class="fil8" height="929" transform="matrix(0.194744 0.268042 -0.488723 0.355078 20799.4 8871.93)" width="465"/><rect class="fil8" height="929" transform="matrix(0.268042 0.194744 -0.355078 0.488723 18895.9 7002.54)" width="465"/><rect class="fil8" height="929" transform="matrix(0.315102 0.102383 -0.186675 0.574528 16508 5812.83)" width="465"/></g></g></svg>