<?xml version="1.0" ?><!DOCTYPE svg  PUBLIC '-//W3C//DTD SVG 1.1//EN'  'http://www.w3.org/Graphics/SVG/1.1/DTD/svg11.dtd'><svg height="100%" style="shape-rendering:geometricPrecision; text-rendering:geometricPrecision; image-rendering:optimizeQuality; fill-rule:evenodd; clip-rule:evenodd" viewBox="0 0 177800 177800" width="100%" xml:space="preserve" xmlns="http://www.w3.org/2000/svg" xmlns:xlink="http://www.w3.org/1999/xlink"><defs><style type="text/css">
   <![CDATA[
    .fil0 {fill:#D1D5DB}
    .fil1 {fill:#fff}
    .fil2 {fill:white;fill-rule:nonzero}
   ]]>
  </style></defs><g id="图层_x0020_1"><circle class="fil0" cx="88900" cy="88900" r="88901"/><g id="_137120168"><polygon class="fil1" id="_137184664" points="41976,103715 49839,95364 57702,87014 41976,87014 26249,87014 34113,95364 "/><path class="fil2" d="M47122 86586c-151,2972 -2684,5259 -5657,5108 -2972,-151 -5259,-2684 -5108,-5657 762,-14405 7092,-27250 16834,-36490 9758,-9254 22922,-14906 37333,-14906 14980,0 28544,6075 38364,15894 9820,9820 15894,23385 15894,38365 0,14980 -6074,28545 -15894,38365 -9820,9819 -23384,15894 -38364,15894 -6890,0 -13684,-1333 -20037,-3860 -6340,-2521 -12191,-6220 -17208,-10960 -2168,-2040 -2272,-5452 -232,-7620 2040,-2168 5452,-2273 7620,-232 4050,3826 8738,6799 13788,8807 5034,2002 10481,3058 16069,3058 11996,0 22860,-4865 30723,-12728 7864,-7864 12728,-18727 12728,-30724 0,-11997 -4864,-22860 -12728,-30724 -7863,-7863 -18727,-12728 -30723,-12728 -11565,0 -22107,4515 -29903,11909 -7813,7410 -12889,17700 -13499,29229z" id="_137184592"/><g><path class="fil1" d="M90977 83376l25650 0c2972,0 5404,2431 5404,5404l0 0c0,2972 -2439,5403 -5404,5403l-25650 0c-2964,0 -5403,-2431 -5403,-5403l0 0c0,-2973 2431,-5404 5403,-5404z" id="_137120288"/><path class="fil1" d="M85592 88813l0 -25650c0,-2972 2431,-5404 5403,-5404l0 0c2972,0 5404,2440 5404,5404l0 25650c0,2965 -2432,5404 -5404,5404l0 0c-2972,0 -5403,-2432 -5403,-5404z" id="_137120216"/></g></g></g></svg>