<?xml version="1.0" ?><svg enable-background="new 0 0 66 66" id="Layer_1" version="1.1" viewBox="0 0 66 66" xml:space="preserve" xmlns="http://www.w3.org/2000/svg" xmlns:xlink="http://www.w3.org/1999/xlink"><g><g><g><g><g><circle cx="33" cy="33" fill="#3498DB" r="32"/></g></g></g></g><path d="M41.6,63.8c12.1-3.4,21.3-13.6,23.1-26.3L48.3,21.2l-2.6,1.4l-3.9-3.9L37,21.5l-5.3-5.3l-18,18.2l18,18   l-0.6,1L41.6,63.8z" fill="#1E7BC1"/><g><path d="M33.7,40.1c-0.4-0.4-1-0.4-1.4,0L27.4,45c-0.6,0.6-0.2,1.6,0.7,1.6h2.2v4.7c0,1.5,1.2,2.8,2.8,2.8    c1.5,0,2.8-1.2,2.8-2.8v-4.7h2.2c0.9,0,1.3-1,0.7-1.6L33.7,40.1z" fill="#FFFFFF"/><path d="M48.8,25.7c0.9-2,0.2-4.5-1.8-5.6c-1.3-0.7-2.8-0.7-4-0.1c-1.1-1.7-3-2.8-5.2-2.8c-1.6,0-3,0.6-4.1,1.6    c-2.1-4.1-7-5.8-11.2-3.8c-4.1,2-5.9,6.8-4.2,10.9c-0.2,0-0.4,0-0.7,0c-2.9,0-5.2,2.3-5.2,5.2c0,2.9,2.3,5.2,5.2,5.2h30.7    c2.9,0,5.2-2.3,5.2-5.2C53.6,28.2,51.5,26,48.8,25.7z" fill="#FFFFFF"/></g></g></svg>