<?xml version="1.0" ?><svg height="48" viewBox="0 0 48 48" width="48" xmlns="http://www.w3.org/2000/svg"><defs><style>.cls-1{fill:#f6b445;}.cls-2{fill:#fed049;}.cls-3{fill:#35dc86;}.cls-4{fill:#f1f2f2;}</style></defs><title/><g data-name="6-File-Document-check" id="_6-File-Document-check"><path class="cls-1" d="M39,13H22V7H38a.979.979,0,0,1,1,1Z"/><path class="cls-2" d="M22,7v6H43a4,4,0,0,1,4,4V43a4,4,0,0,1-4,4H5a4,4,0,0,1-4-4V5S1,1,5,1H18s4,0,4,4Z"/><circle class="cls-3" cx="34" cy="34" r="13"/><path class="cls-4" d="M31,40a1,1,0,0,1-.707-.293l-3-3a1,1,0,0,1,1.414-1.414L31,37.586l8.293-8.293a1,1,0,0,1,1.414,1.414l-9,9A1,1,0,0,1,31,40Z"/></g></svg>