<?xml version="1.0" ?><svg id="headphones" style="enable-background:new 0 0 128 128;" version="1.1" viewBox="0 0 128 128" xml:space="preserve" xmlns="http://www.w3.org/2000/svg" xmlns:xlink="http://www.w3.org/1999/xlink"><style type="text/css">
	.st0{fill:#FBD000;}
	.st1{fill:#415E6D;}
	.st2{opacity:0.5;fill:#FFFFFF;}
	.st3{fill:#284049;}
	.st4{fill:#F74541;}
	.st5{fill:#D32020;}
	.st6{fill:#A03513;}
	.st7{fill:#FFFFFF;}
</style><g><circle class="st0" cx="64" cy="64" r="64"/><path class="st1" d="M103.2,57.6l-6.7,1.7l-2.9-11.8c-4.5-18.1-22.3-29.4-39.7-25.1c-17.4,4.3-28,22.5-23.5,40.7l2.9,11.8l-6.7,1.7   l-2.9-11.8C18.2,42.9,31,20.8,52.2,15.6c21.1-5.2,42.7,8.3,48.1,30.1L103.2,57.6z"/><path class="st2" d="M92,36c-0.4,0-0.7-0.2-0.9-0.5c-7.5-13.3-23-20.1-37.5-16.6c-1.8,0.4-3.5,1-5.2,1.7c-0.5,0.2-1.1,0-1.3-0.5   c-0.2-0.5,0-1.1,0.5-1.3c1.8-0.8,3.6-1.4,5.5-1.8c15.4-3.8,31.8,3.5,39.8,17.5c0.3,0.5,0.1,1.1-0.4,1.4C92.3,36,92.2,36,92,36z"/><path class="st2" d="M28,43c-0.1,0-0.2,0-0.3-0.1c-0.5-0.2-0.8-0.8-0.6-1.3c1.3-4.2,3.4-8,6.2-11.3c0.4-0.4,1-0.5,1.4-0.1   c0.4,0.4,0.5,1,0.1,1.5c-2.6,3.1-4.5,6.7-5.8,10.6C28.8,42.7,28.4,43,28,43z"/><path class="st3" d="M26.2,77c-0.5,0-0.9-0.3-1-0.8l-2.9-11.8c-5.5-22.4,7.6-44.9,29.4-50.3c3.1-0.8,6.3-1.1,9.4-1.1   c18.9,0,35.3,13.2,40,32l2.9,11.8c0.1,0.3,0,0.5-0.1,0.8c-0.1,0.2-0.4,0.4-0.6,0.5l-6.8,1.7c-0.5,0.1-1.1-0.2-1.2-0.7l-2.9-11.8   c-3.7-14.9-16.5-25.2-31.3-25.2c-2.4,0-4.9,0.3-7.3,0.9c-8.2,2-15.1,7.2-19.4,14.7C30.1,45,28.9,53.8,31,62.3l2.9,11.8   c0.1,0.3,0,0.5-0.1,0.8c-0.1,0.2-0.4,0.4-0.6,0.5L26.4,77C26.3,77,26.2,77,26.2,77z M61.1,15c-3,0-6,0.4-9,1.1   C31.5,21.2,18.9,42.7,24.2,64l2.7,10.8l4.8-1.2L29,62.8c-2.2-9-0.9-18.3,3.6-26.3c4.6-7.9,11.9-13.5,20.6-15.6   c2.5-0.6,5.2-0.9,7.8-0.9c15.7,0,29.3,11,33.2,26.7L97,57.5l4.8-1.2l-2.7-10.8C94.7,27.5,79,15,61.1,15z"/><path class="st3" d="M78.7,117.1c-0.3,0-0.6-0.1-0.8-0.4c-0.3-0.4-0.3-1.1,0.2-1.4c2-1.5,3.6-3.9,2.9-5.9c-0.5-1.4-3.5-4.2-18-3.4   c-23.7,1.3-28.4-7.5-28.6-7.9c-0.3-0.5-0.1-1.1,0.4-1.4c0.5-0.3,1.1-0.1,1.4,0.4c0.1,0.1,4.7,8.1,26.9,6.8   c11.6-0.7,18.4,0.7,19.9,4.7c1.2,3.1-1.2,6.3-3.6,8.2C79.1,117,78.9,117.1,78.7,117.1z"/><path class="st4" d="M43.8,96.8c-9.7,2.4-19.4-3.5-21.8-13.2c-2.4-9.7,3.5-19.4,13.2-21.8"/><path class="st5" d="M22,75.8c0-0.1,0-0.3-0.1-0.4c-0.6,2.6-0.6,5.4,0.1,8.2c2.4,9.7,12.1,15.5,21.8,13.2L42,89.3   C33,90.6,24.3,84.9,22,75.8z"/><path class="st6" d="M39.4,98.3c-3.5,0-6.9-0.9-10-2.7c-4.4-2.6-7.6-6.8-8.8-11.7c-2.6-10.2,3.8-20.5,14.2-23   c0.5-0.1,1.1,0.2,1.2,0.7c0.1,0.5-0.2,1.1-0.7,1.2c-9.3,2.2-15,11.5-12.7,20.6c1.1,4.4,3.9,8.1,7.9,10.5c4,2.3,8.6,3,13.1,2   c0.5-0.1,1.1,0.2,1.2,0.7c0.1,0.5-0.2,1.1-0.7,1.2C42.5,98.1,40.9,98.3,39.4,98.3z"/><path class="st1" d="M50.9,92c0.8,3.2-0.6,6.3-3.2,7c-2.5,0.6-5.3-1.5-6.1-4.7l-7.1-28.8c-0.8-3.2,0.6-6.3,3.2-7   c2.5-0.6,5.3,1.5,6.1,4.7L50.9,92z"/><path class="st3" d="M46.6,100c-2.8,0-5.4-2.4-6.2-5.6l-7.2-29c-0.4-1.8-0.3-3.6,0.4-5.1c0.7-1.6,2-2.7,3.6-3.1   C37.6,57,38,57,38.4,57c2.8,0,5.4,2.4,6.2,5.6l7.2,29c0.4,1.8,0.3,3.6-0.4,5.1c-0.7,1.6-2,2.7-3.6,3.1C47.4,100,47,100,46.6,100z    M38.4,59c-0.2,0-0.5,0-0.7,0.1c-0.9,0.2-1.7,0.9-2.2,2c-0.5,1.1-0.6,2.5-0.3,3.8l7.2,29c0.6,2.6,2.9,4.5,4.9,4   c0.9-0.2,1.7-0.9,2.2-2c0.5-1.1,0.6-2.5,0.3-3.8l-7.2-29C42,60.8,40.2,59,38.4,59z"/><path class="st4" d="M98.2,83.4c9.7-2.4,15.5-12.1,13.2-21.8c-2.4-9.7-12.1-15.5-21.8-13.2"/><path class="st5" d="M97.3,75.6l-6.8-27.5c-0.6,0.1-1.2,0.2-1.8,0.4l8.6,35c9.5-2.3,15.4-11.9,13.2-21.4   C109.1,68.4,104.1,73.9,97.3,75.6z"/><path class="st6" d="M98.2,84c-0.5,0-0.9-0.3-1-0.8c-0.1-0.5,0.2-1.1,0.7-1.2c9.2-2.2,14.8-11.3,12.5-20.3c-1.1-4.4-3.9-8-7.8-10.3   c-3.9-2.3-8.5-3-12.9-1.9c-0.5,0.1-1.1-0.2-1.2-0.7c-0.1-0.5,0.2-1.1,0.7-1.2c5-1.2,10.1-0.4,14.5,2.2c4.4,2.6,7.5,6.7,8.7,11.6   c2.5,10-3.7,20.2-14,22.7C98.4,84,98.3,84,98.2,84z"/><path class="st1" d="M89.7,82.4c0.8,3.2,3.5,5.3,6.1,4.7c2.5-0.6,4-3.8,3.2-7l-7.1-28.8c-0.8-3.2-3.5-5.3-6.1-4.7   c-2.5,0.6-4,3.8-3.2,7L89.7,82.4z"/><path class="st3" d="M94.6,88C94.6,88,94.6,88,94.6,88c-2.8,0-5.4-2.4-6.2-5.6l-7.2-29c-0.9-3.8,0.8-7.5,4-8.2   C85.6,45,86,45,86.4,45c2.8,0,5.4,2.4,6.2,5.6l7.2,29c0.9,3.8-0.8,7.5-4,8.2C95.4,88,95,88,94.6,88z M86.4,47c-0.2,0-0.5,0-0.7,0.1   c-2,0.5-3.1,3.2-2.5,5.8l7.2,29c0.6,2.3,2.4,4.1,4.2,4.1l0,0c0.2,0,0.5,0,0.7-0.1c2-0.5,3.1-3.2,2.5-5.8l-7.2-29   C90,48.8,88.2,47,86.4,47z"/><path class="st3" d="M12.3,14.5c-0.3,0-0.5-0.1-0.7-0.3L5.3,7.9c-0.4-0.4-0.4-1,0-1.4c0.4-0.4,1-0.4,1.4,0l6.4,6.4   c0.4,0.4,0.4,1,0,1.4C12.8,14.4,12.6,14.5,12.3,14.5z"/><path class="st3" d="M9.3,19.8c-0.1,0-0.1,0-0.2,0l-6.4-1.3c-0.5-0.1-0.9-0.6-0.8-1.2c0.1-0.5,0.6-0.9,1.2-0.8l6.4,1.3   c0.5,0.1,0.9,0.6,0.8,1.2C10.2,19.4,9.8,19.8,9.3,19.8z"/><path class="st3" d="M17.6,11.5c-0.5,0-0.9-0.3-1-0.8l-1.3-6.4c-0.1-0.5,0.2-1.1,0.8-1.2c0.5-0.1,1.1,0.2,1.2,0.8l1.3,6.4   c0.1,0.5-0.2,1.1-0.8,1.2C17.7,11.5,17.6,11.5,17.6,11.5z"/><path class="st2" d="M45.4,85.8c-0.5,0-0.9-0.3-1-0.8l-2.9-12c-0.1-0.5,0.2-1.1,0.7-1.2c0.5-0.1,1.1,0.2,1.2,0.7l2.9,12   c0.1,0.5-0.2,1.1-0.7,1.2C45.5,85.8,45.5,85.8,45.4,85.8z"/><path class="st2" d="M41.1,69.4c-0.5,0-0.9-0.3-1-0.8l-1.5-6.1c-0.1-0.5,0.2-1.1,0.7-1.2c0.5-0.1,1.1,0.2,1.2,0.7l1.5,6.1   c0.1,0.5-0.2,1.1-0.7,1.2C41.2,69.4,41.1,69.4,41.1,69.4z"/><path class="st2" d="M93.4,72.9c-0.5,0-0.9-0.3-1-0.8l-5.2-21.4c-0.1-0.5,0.2-1.1,0.7-1.2c0.5-0.1,1.1,0.2,1.2,0.7l5.2,21.4   c0.1,0.5-0.2,1.1-0.7,1.2C93.5,72.9,93.5,72.9,93.4,72.9z"/><path class="st2" d="M106.4,61.1c-0.4,0-0.7-0.2-0.9-0.6c-2.8-5.7-9-7.3-9.1-7.3c-0.5-0.1-0.9-0.7-0.7-1.2c0.1-0.5,0.7-0.9,1.2-0.7   c0.3,0.1,7.3,1.9,10.4,8.4c0.2,0.5,0,1.1-0.5,1.3C106.7,61.1,106.6,61.1,106.4,61.1z"/><path class="st7" d="M65,72c-2.2,0-4-1.8-4-4c0-2.2,1.8-4,4-4c2.2,0,4,1.8,4,4C69,70.2,67.2,72,65,72z M65,65.9   c-1.2,0-2.1,1-2.1,2.1c0,1.2,1,2.1,2.1,2.1c1.2,0,2.1-1,2.1-2.1C67.1,66.8,66.2,65.9,65,65.9z"/><path class="st7" d="M70.3,42.3c0-0.4-0.4-0.8-1-0.9l-1.9-0.3c-0.5-0.1-1.1-0.6-1.1-1.1l-0.3-1.9c-0.1-0.5-0.5-1-0.9-1   c-0.4,0-0.8,0.4-0.9,1L64.1,40c-0.1,0.5-0.6,1.1-1.1,1.1l-1.9,0.3c-0.5,0.1-1,0.5-1,0.9c0,0.4,0.4,0.8,1,0.9l1.9,0.3   c0.5,0.1,1.1,0.6,1.1,1.1l0.3,1.9c0.1,0.5,0.5,1,0.9,1c0.4,0,0.8-0.4,0.8-1l0.3-2.1c0.1-0.5,0.6-1,1.1-1.1l1.8-0.1   C69.9,43,70.3,42.7,70.3,42.3z"/><path class="st7" d="M85.9,87.6c0-0.4-0.4-0.8-1-0.9l-1.9-0.3c-0.5-0.1-1.1-0.6-1.1-1.1l-0.3-1.9c-0.1-0.5-0.5-1-0.9-1   c-0.4,0-0.8,0.4-0.9,1l-0.3,1.9c-0.1,0.5-0.6,1.1-1.1,1.1l-1.9,0.3c-0.5,0.1-1,0.5-1,0.9s0.4,0.8,1,0.9l1.9,0.3   c0.5,0.1,1.1,0.6,1.1,1.1l0.3,1.9c0.1,0.5,0.5,1,0.9,1c0.4,0,0.8-0.4,0.8-1l0.3-2.1c0.1-0.5,0.6-1,1.1-1.1l1.8-0.1   C85.5,88.3,85.9,88,85.9,87.6z"/><path class="st7" d="M16.2,60.5c0-0.4-0.4-0.8-1-0.9l-1.9-0.3c-0.5-0.1-1.1-0.6-1.1-1.1L12,56.3c-0.1-0.5-0.5-1-0.9-1   c-0.4,0-0.8,0.4-0.9,1L10,58.2c-0.1,0.5-0.6,1.1-1.1,1.1L7,59.6c-0.5,0.1-1,0.5-1,0.9s0.4,0.8,1,0.9l1.9,0.3   c0.5,0.1,1.1,0.6,1.1,1.1l0.3,1.9c0.1,0.5,0.5,1,0.9,1c0.4,0,0.8-0.4,0.8-1l0.3-2.1c0.1-0.5,0.6-1,1.1-1.1l1.8-0.1   C15.8,61.2,16.2,60.8,16.2,60.5z"/><path class="st7" d="M111.3,51.8c0-0.4-0.4-0.8-1-0.9l-4.8-0.8c-0.5-0.1-1.1-0.6-1.2-1.2l-0.8-4.8c-0.1-0.5-0.5-1-0.9-1   c-0.4,0-0.8,0.4-0.9,1l-0.8,4.8c-0.1,0.5-0.6,1.1-1.2,1.2l-4.8,0.8c-0.5,0.1-1,0.5-1,0.9c0,0.4,0.4,0.8,1,0.9l4.7,0.6   c0.5,0.1,1.1,0.6,1.2,1.1l0.9,5c0.1,0.5,0.5,1,0.9,1c0.4,0,0.8-0.4,0.9-1l0.9-5.1c0.1-0.5,0.6-1,1.2-1.1l4.7-0.6   C110.9,52.7,111.3,52.2,111.3,51.8z"/><path class="st3" d="M106.6,79.5c-0.3-0.5-0.9-0.7-1.4-0.4c-0.5,0.3-0.7,0.9-0.4,1.4c0.4,0.6,8.6,15.8-8.8,27.5   c-21.6,14.6-70.5,15-80.7,6.4c-2.8-2.3-4.2-4.9-4.3-7.5c-0.1-2,0.6-3.7,1.4-5c-0.4-0.6-0.8-1.2-1.3-1.8c-1,1.5-2.2,3.9-2.2,6.8   c0.1,3.2,1.8,6.3,5,9c4.5,3.8,16,6.1,30.1,6.1c2.3,0,4.8-0.1,7.2-0.2c19.1-1,35.8-5.4,45.8-12.2C116.1,96.9,106.7,79.7,106.6,79.5z   "/></g></svg>