<?xml version="1.0" ?><!DOCTYPE svg  PUBLIC '-//W3C//DTD SVG 1.1//EN'  'http://www.w3.org/Graphics/SVG/1.1/DTD/svg11.dtd'><svg enable-background="new 0 0 128 128" height="128px" id="Layer_1" version="1.1" viewBox="0 0 128 128" width="128px" xml:space="preserve" xmlns="http://www.w3.org/2000/svg" xmlns:xlink="http://www.w3.org/1999/xlink"><rect fill="none" height="128" width="128"/><g><circle cx="64" cy="64" fill="#D1D5DB" r="64"/><g><defs><circle cx="64" cy="64" id="SVGID_1_" r="64"/></defs><clipPath id="SVGID_2_"><use overflow="visible" xlink:href="#SVGID_1_"/></clipPath><path clip-path="url(#SVGID_2_)" d="M79.742,26.131L128,74.444V128H61.298l-27.267-27.174L46,75.388    V39c0,0,2.426-15.112,16.36-15.112S79.742,26.131,79.742,26.131z" fill="#D1D5DB" opacity="0.3"/><path clip-path="url(#SVGID_2_)" d="M94.193,55.493L128,89.18V128H61.298l-27.267-27.174L46,75.388    V56c0,0,5.676,0,19.61,0S94.193,55.493,94.193,55.493z" fill="#D1D5DB" opacity="0.3"/></g><path d="M64,27.5c7.72,0,14,6.28,14,14V71H50V41.5C50,33.78,56.28,27.5,64,27.5 M64,19.5c-12.15,0-22,9.85-22,22V79   h44V41.5C86,29.35,76.15,19.5,64,19.5L64,19.5z" fill="#FFFFFF"/><path d="M95,98c0,2.209-1.791,4-4,4H37c-2.209,0-4-1.791-4-4V58c0-2.209,1.791-4,4-4h54c2.209,0,4,1.791,4,4V98z" fill="#FFCD03"/><path d="M95,98V58c0-2.209-1.791-4-4-4v48C93.209,102,95,100.209,95,98z" fill="#FBB714"/><path d="M33,58v40c0,2.209,1.791,4,4,4V54C34.791,54,33,55.791,33,58z" fill="#FFDB62"/><g><defs><rect height="11" id="SVGID_3_" width="62" x="33" y="87"/></defs><clipPath id="SVGID_4_"><use overflow="visible" xlink:href="#SVGID_3_"/></clipPath><rect clip-path="url(#SVGID_4_)" fill="#FFFFFF" height="12.185" width="66.814" x="32.694" y="86.986"/><g clip-path="url(#SVGID_4_)"><polygon fill="#3A3F48" points="29.048,98.847 22.688,98.847 34.625,86.902 40.985,86.902    "/><polygon fill="#3A3F48" points="41.798,98.847 35.438,98.847 47.375,86.902 53.735,86.902    "/><polygon fill="#3A3F48" points="54.548,98.847 48.188,98.847 60.125,86.902 66.485,86.902    "/><polygon fill="#3A3F48" points="67.298,98.847 60.938,98.847 72.875,86.902 79.235,86.902    "/><polygon fill="#3A3F48" points="80.048,98.847 73.688,98.847 85.625,86.902 91.985,86.902    "/><polygon fill="#3A3F48" points="92.798,98.847 86.438,98.847 98.375,86.902 104.735,86.902    "/></g></g><path d="M69.015,69.722c0-2.761-2.278-5-5.044-5s-4.95,2.239-4.95,5c0,2.015,0.978,3.741,2.978,4.533v3.967   c0,1.1,0.898,2,2,2c1.102,0,2-0.9,2-2v-3.884C68,73.586,69.015,71.804,69.015,69.722z" fill="#894E36"/><g><path d="M65,79.222c-1.102,0-2-0.9-2-2v-3.967c-2-0.791-2.978-2.517-2.978-4.533c0-1.142,0.389-2.182,1.023-3.024    c-1.227,0.91-2.023,2.367-2.023,4.024c0,2.015,0.978,3.741,2.978,4.533v3.967c0,1.1,0.898,2,2,2c0.809,0,1.505-0.487,1.819-1.181    C65.568,79.155,65.292,79.222,65,79.222z" fill="#75412B"/></g></g></svg>