<?xml version="1.0" ?><svg viewBox="0 0 512 512" xmlns="http://www.w3.org/2000/svg"><defs><style>.cls-1{fill:#8bd0f7;}.cls-2{opacity:0.7;}.cls-3{fill:#fff;}.cls-4{opacity:0.3;}.cls-5{fill:#3f456b;}.cls-6{fill:#f5f6f7;}.cls-7{opacity:0.1;}</style></defs><title/><g id="Colors"><circle class="cls-1" cx="256" cy="256" r="240"/><g class="cls-2"><path class="cls-3" d="M42,274.93a5,5,0,0,1-5-5V244.07a5,5,0,0,1,10,0v25.86A5,5,0,0,1,42,274.93Z"/><path class="cls-3" d="M68.76,292.17a5,5,0,0,1-5-5V226.83a5,5,0,1,1,10,0v60.34A5,5,0,0,1,68.76,292.17Z"/><path class="cls-3" d="M95.52,318a5,5,0,0,1-5-5V201a5,5,0,0,1,10,0V313A5,5,0,0,1,95.52,318Z"/><path class="cls-3" d="M122.28,293.9a5,5,0,0,1-5-5V225.1a5,5,0,0,1,10,0v63.8A5,5,0,0,1,122.28,293.9Z"/><path class="cls-3" d="M149,274.93a5,5,0,0,1-5-5V244.07a5,5,0,0,1,10,0v25.86A5,5,0,0,1,149,274.93Z"/><path class="cls-3" d="M175.79,306.38a5,5,0,0,1-5-5V212.62a5,5,0,0,1,10,0v88.76A5,5,0,0,1,175.79,306.38Z"/><path class="cls-3" d="M202.55,340.19a5,5,0,0,1-5-5V178.81a5,5,0,0,1,10,0V335.19A5,5,0,0,1,202.55,340.19Z"/><path class="cls-3" d="M229.31,308.92a5,5,0,0,1-5-5V210.08a5,5,0,1,1,10,0v93.84A5,5,0,0,1,229.31,308.92Z"/><path class="cls-3" d="M256.07,274.93a5,5,0,0,1-5-5V244.07a5,5,0,0,1,10,0v25.86A5,5,0,0,1,256.07,274.93Z"/><path class="cls-3" d="M282.83,292.17a5,5,0,0,1-5-5V226.83a5,5,0,1,1,10,0v60.34A5,5,0,0,1,282.83,292.17Z"/><path class="cls-3" d="M309.58,318a5,5,0,0,1-5-5V201a5,5,0,1,1,10,0V313A5,5,0,0,1,309.58,318Z"/><path class="cls-3" d="M336.34,293.9a5,5,0,0,1-5-5V225.1a5,5,0,1,1,10,0v63.8A5,5,0,0,1,336.34,293.9Z"/><path class="cls-3" d="M363.1,274.93a5,5,0,0,1-5-5V244.07a5,5,0,0,1,10,0v25.86A5,5,0,0,1,363.1,274.93Z"/><path class="cls-3" d="M390.28,292.17a5,5,0,0,1-5-5V226.83a5,5,0,0,1,10,0v60.34A5,5,0,0,1,390.28,292.17Z"/><path class="cls-3" d="M417,318a5,5,0,0,1-5-5V201a5,5,0,0,1,10,0V313A5,5,0,0,1,417,318Z"/><path class="cls-3" d="M443.79,293.9a5,5,0,0,1-5-5V225.1a5,5,0,1,1,10,0v63.8A5,5,0,0,1,443.79,293.9Z"/><path class="cls-3" d="M470.55,274.93a5,5,0,0,1-5-5V244.07a5,5,0,0,1,10,0v25.86A5,5,0,0,1,470.55,274.93Z"/></g><g class="cls-4"><rect class="cls-5" height="254" rx="10" ry="10" width="85" x="145" y="151"/></g><rect class="cls-6" height="254" rx="10" ry="10" width="85" x="145" y="129"/><g class="cls-4"><path class="cls-5" d="M21,289S56,476,256,476,490,288,490,288,473,496,256,496,21,289,21,289Z"/></g><g class="cls-4"><path class="cls-3" d="M490,223S455,36,255,36,21,224,21,224,38,16,255,16,490,223,490,223Z"/></g><g class="cls-7"><rect class="cls-5" height="17" width="85" x="145" y="367"/></g><g class="cls-2"><rect class="cls-3" height="17" width="85" x="145" y="130"/></g><g class="cls-4"><rect class="cls-5" height="254" rx="10" ry="10" width="85" x="283" y="151"/></g><rect class="cls-6" height="254" rx="10" ry="10" width="85" x="283" y="129"/><g class="cls-7"><rect class="cls-5" height="17" width="85" x="283" y="367"/></g><g class="cls-2"><rect class="cls-3" height="17" width="85" x="283" y="130"/></g></g><g id="Lines"><path class="cls-5" d="M256,501A245,245,0,0,1,82.76,82.76,245,245,0,1,1,429.24,429.24,243.37,243.37,0,0,1,256,501Zm0-480A235,235,0,0,0,89.83,422.17,235,235,0,1,0,422.17,89.83,233.44,233.44,0,0,0,256,21Z"/><path class="cls-5" d="M220,388H155a15,15,0,0,1-15-15V139a15,15,0,0,1,15-15h65a15,15,0,0,1,15,15V373A15,15,0,0,1,220,388ZM155,134a5,5,0,0,0-5,5V373a5,5,0,0,0,5,5h65a5,5,0,0,0,5-5V139a5,5,0,0,0-5-5Z"/><path class="cls-5" d="M358,388H293a15,15,0,0,1-15-15V139a15,15,0,0,1,15-15h65a15,15,0,0,1,15,15V373A15,15,0,0,1,358,388ZM293,134a5,5,0,0,0-5,5V373a5,5,0,0,0,5,5h65a5,5,0,0,0,5-5V139a5,5,0,0,0-5-5Z"/></g></svg>