<?xml version="1.0" ?><svg height="16" id="svg5442" version="1.1" viewBox="0 0 16 16" width="16" xmlns="http://www.w3.org/2000/svg" xmlns:cc="http://creativecommons.org/ns#" xmlns:dc="http://purl.org/dc/elements/1.1/" xmlns:inkscape="http://www.inkscape.org/namespaces/inkscape" xmlns:rdf="http://www.w3.org/1999/02/22-rdf-syntax-ns#" xmlns:sodipodi="http://sodipodi.sourceforge.net/DTD/sodipodi-0.dtd" xmlns:svg="http://www.w3.org/2000/svg" xmlns:xlink="http://www.w3.org/1999/xlink"><defs id="defs5444"><linearGradient gradientTransform="matrix(0,1.1814998,1.1814998,0,-1401.9317,1182.7562)" gradientUnits="userSpaceOnUse" id="linearGradient5533" x1="-122.78837" x2="-114.87525" xlink:href="#linearGradient5672" y1="1193.4047" y2="1193.4047"/><linearGradient id="linearGradient5672"><stop id="stop5674" offset="0" style="stop-color:#a4b6be;stop-opacity:1"/><stop id="stop5676" offset="1" style="stop-color:#7c8b9d;stop-opacity:1"/></linearGradient></defs><g id="layer1" transform="translate(0,-1036.3622)"><path d="m 7.9903375,1038.3597 c -0.1173,-10e-5 -0.2334,0.044 -0.3223,0.1328 l -2.5703,2.5723 c -0.052,0.052 -0.082,0.1118 -0.094,0.1738 -0.031,0.1874 0.1059,0.3893 0.3262,0.3887 l 0.9316,0 0.6895,0 0.049,0 0,4.4034 c -1e-4,0.1846 0.1492,0.3341 0.3339,0.334 l 1.3321,0 c 0.1847,0 0.334,-0.1494 0.334,-0.334 l 0,-4.4034 0.7246,0 0.9551005,0 c 0.285,-4e-4 0.4283,-0.3588 0.2265,-0.5606 l -2.5918005,-2.5742 c -0.089,-0.089 -0.207,-0.1327 -0.3242,-0.1328 z m -0.7403,9.005 c -0.1385,0 -0.25,0.1115 -0.25,0.25 l 0,0.5 c 0,0.1385 0.1115,0.25 0.25,0.25 l 1.5,0 c 0.1386,0 0.25,-0.1115 0.25,-0.25 l 0,-0.5 c 0,-0.1385 -0.1114,-0.25 -0.25,-0.25 z m 0,2 c -0.1385,0 -0.25,0.1115 -0.25,0.25 l 0,0.5 c 0,0.1385 0.1115,0.25 0.25,0.25 l 1.5,0 c 0.1386,0 0.25,-0.1115 0.25,-0.25 l 0,-0.5 c 0,-0.1385 -0.1114,-0.25 -0.25,-0.25 z" id="path5531" style="fill:url(#linearGradient5533);fill-opacity:1;stroke:none;stroke-width:0.99999994;stroke-linecap:round;stroke-linejoin:round;stroke-miterlimit:4;stroke-dasharray:none"/></g></svg>