<?xml version="1.0" ?><svg enable-background="new 0 0 512 512" id="Layer_1" version="1.0" viewBox="0 0 512 512" xml:space="preserve" xmlns="http://www.w3.org/2000/svg" xmlns:xlink="http://www.w3.org/1999/xlink"><g><g><path d="M382,475.232H130c-13.255,0-24-10.745-24-24v-392c0-13.255,10.745-24,24-24h190.769L406,119.927v331.305    C406,464.487,395.255,475.232,382,475.232z" fill="#FFD139"/><linearGradient gradientUnits="userSpaceOnUse" id="SVGID_1_" x1="331.7902" x2="406" y1="152.9416" y2="152.9416"><stop offset="0" style="stop-color:#F2A933"/><stop offset="1" style="stop-color:#FFD139"/></linearGradient><path d="M331.79,116.118L406,189.765v-69.839c0,0-53.584,0-61.231,0S331.79,116.118,331.79,116.118z" fill="url(#SVGID_1_)"/><path d="M344.769,119.927H406l-85.231-84.695v60.695C320.769,109.181,331.514,119.927,344.769,119.927z" fill="#FFE18D"/></g><g><path d="M253.624,82.813h-22.293c-1.312,0-2.376-1.064-2.376-2.376V64.024c0-1.312,1.064-2.376,2.376-2.376h22.293    c1.312,0,2.376,1.064,2.376,2.376v16.413C256,81.749,254.936,82.813,253.624,82.813z" fill="#E8A33F"/><path d="M280.668,61.648h-22.293c-1.312,0-2.376-1.064-2.376-2.376V42.859c0-1.312,1.064-2.376,2.376-2.376h22.293    c1.312,0,2.376,1.064,2.376,2.376v16.413C283.044,60.584,281.98,61.648,280.668,61.648z" fill="#E8A33F"/><path d="M280.668,103.978h-22.293c-1.312,0-2.376-1.064-2.376-2.376V85.189c0-1.312,1.064-2.376,2.376-2.376    h22.293c1.312,0,2.376,1.064,2.376,2.376v16.413C283.044,102.914,281.98,103.978,280.668,103.978z" fill="#E8A33F"/><path d="M253.624,125.143h-22.293c-1.312,0-2.376-1.064-2.376-2.376v-16.413c0-1.312,1.064-2.376,2.376-2.376    h22.293c1.312,0,2.376,1.064,2.376,2.376v16.413C256,124.079,254.936,125.143,253.624,125.143z" fill="#E8A33F"/><path d="M280.668,146.308h-22.293c-1.312,0-2.376-1.064-2.376-2.376v-16.413c0-1.312,1.064-2.376,2.376-2.376    h22.293c1.312,0,2.376,1.064,2.376,2.376v16.413C283.044,145.244,281.98,146.308,280.668,146.308z" fill="#E8A33F"/><path d="M253.624,167.473h-22.293c-1.312,0-2.376-1.064-2.376-2.376v-16.413c0-1.312,1.064-2.376,2.376-2.376    h22.293c1.312,0,2.376,1.064,2.376,2.376v16.413C256,166.409,254.936,167.473,253.624,167.473z" fill="#E8A33F"/><path d="M280.668,188.638h-22.293c-1.312,0-2.376-1.064-2.376-2.376v-16.413c0-1.312,1.064-2.376,2.376-2.376    h22.293c1.312,0,2.376,1.064,2.376,2.376v16.413C283.044,187.574,281.98,188.638,280.668,188.638z" fill="#E8A33F"/><path d="M253.624,209.803h-22.293c-1.312,0-2.376-1.064-2.376-2.376v-16.413c0-1.312,1.064-2.376,2.376-2.376    h22.293c1.312,0,2.376,1.064,2.376,2.376v16.413C256,208.739,254.936,209.803,253.624,209.803z" fill="#E8A33F"/><path d="M280.668,230.968h-22.293c-1.312,0-2.376-1.064-2.376-2.376v-16.413c0-1.312,1.064-2.376,2.376-2.376    h22.293c1.312,0,2.376,1.064,2.376,2.376v16.413C283.044,229.904,281.98,230.968,280.668,230.968z" fill="#E8A33F"/><path d="M253.624,252.133h-22.293c-1.312,0-2.376-1.064-2.376-2.376v-16.413c0-1.312,1.064-2.376,2.376-2.376    h22.293c1.312,0,2.376,1.064,2.376,2.376v16.413C256,251.069,254.936,252.133,253.624,252.133z" fill="#E8A33F"/><path d="M280.668,273.298h-22.293c-1.312,0-2.376-1.064-2.376-2.376v-16.413c0-1.312,1.064-2.376,2.376-2.376    h22.293c1.312,0,2.376,1.064,2.376,2.376v16.413C283.044,272.234,281.98,273.298,280.668,273.298z" fill="#E8A33F"/><path d="M253.624,294.463h-22.293c-1.312,0-2.376-1.064-2.376-2.376v-16.413c0-1.312,1.064-2.376,2.376-2.376    h22.293c1.312,0,2.376,1.064,2.376,2.376v16.413C256,293.399,254.936,294.463,253.624,294.463z" fill="#E8A33F"/><path d="M280.668,315.628h-22.293c-1.312,0-2.376-1.064-2.376-2.376v-16.413c0-1.312,1.064-2.376,2.376-2.376    h22.293c1.312,0,2.376,1.064,2.376,2.376v16.413C283.044,314.564,281.98,315.628,280.668,315.628z" fill="#E8A33F"/><path d="M253.624,336.793h-22.293c-1.312,0-2.376-1.064-2.376-2.376v-16.413c0-1.312,1.064-2.376,2.376-2.376    h22.293c1.312,0,2.376,1.064,2.376,2.376v16.413C256,335.729,254.936,336.793,253.624,336.793z" fill="#E8A33F"/><path d="M280.668,357.958h-22.293c-1.312,0-2.376-1.064-2.376-2.376v-16.413c0-1.312,1.064-2.376,2.376-2.376    h22.293c1.312,0,2.376,1.064,2.376,2.376v16.413C283.044,356.894,281.98,357.958,280.668,357.958z" fill="#E8A33F"/><path d="M253.624,379.123h-22.293c-1.312,0-2.376-1.064-2.376-2.376v-16.413c0-1.312,1.064-2.376,2.376-2.376    h22.293c1.312,0,2.376,1.064,2.376,2.376v16.413C256,378.059,254.936,379.123,253.624,379.123z" fill="#E8A33F"/></g><g><path d="M474.75,497.835h-197.5c-7.957,0-14.407-6.45-14.407-14.407v-96.392c0-7.957,6.45-14.407,14.407-14.407    h197.5c7.957,0,14.407,6.45,14.407,14.407v96.392C489.157,491.385,482.707,497.835,474.75,497.835z" fill="#A36D31"/><g><path d="M308.595,454.796l30.901-39.088h-30.122v-10.705h45.814v10.131l-31.301,39.662h31.383v10.664h-46.676     V454.796z" fill="#FFFFFF"/><path d="M380.696,465.46h-12.551v-60.457h12.551V465.46z" fill="#FFFFFF"/><path d="M438.096,439.293c-3.539,2.953-8.593,4.43-15.162,4.43h-12.588v21.738h-12.551v-60.457h25.958     c5.984,0,10.755,1.559,14.314,4.676c3.558,3.117,5.337,7.943,5.337,14.479C443.405,431.294,441.635,436.339,438.096,439.293z      M428.455,417.513c-1.6-1.34-3.841-2.01-6.724-2.01h-11.384v17.801h11.384c2.883,0,5.124-0.725,6.724-2.174s2.4-3.746,2.4-6.891     S430.054,418.853,428.455,417.513z" fill="#FFFFFF"/></g></g></g></svg>