<svg height="612" viewBox="0 0 1015 612" width="1015" xmlns="http://www.w3.org/2000/svg" xmlns:xlink="http://www.w3.org/1999/xlink"><mask id="a" fill="#fff"><path d="m.493.101h740.427v440.075h-740.427z" fill="#fff" fill-rule="evenodd"/></mask><g fill="none" fill-rule="evenodd" transform="translate(2)"><path d="m825.498 74.6511391h-141.422c-12.243 0-22.261-10.017-22.261-22.261 0-12.243 10.018-22.261 22.261-22.261h141.422c12.24 0 22.26 10.018 22.26 22.261 0 12.244-10.02 22.261-22.26 22.261" fill="#fff"/><path d="m751.21 31.9011391c-6.895 0-12.484-4.264-12.484-9.524 0-5.261 5.589-9.525 12.484-9.525h-54.469c6.895 0 12.484 4.264 12.484 9.525 0 5.26-5.589 9.524-12.484 9.524z" fill="#fff"/><path d="m921.208 556.776139v-485.6959999c0-8.793-7.2-15.987-15.99-15.987h-799.832c-8.792 0-15.986 7.194-15.986 15.987v485.6959999z" fill="#fff" stroke="#5d7183" stroke-width="4"/><path d="m91.4 554.776139h827.808v-483.6959999c0-7.713-6.28-13.987-13.99-13.987h-799.832c-7.712 0-13.986 6.274-13.986 13.987zm829.808 4h-831.808c-1.105 0-2-.896-2-2v-485.6959999c0-9.918 8.069-17.987 17.986-17.987h799.832c9.92 0 17.99 8.069 17.99 17.987v485.6959999c0 1.104-.9 2-2 2z" fill="#5d7183" stroke="#5d7183" stroke-width="4"/><path d="m962.968 607.970139h-915.39c-25.053 0-45.436-20.382-45.436-45.436v-2.727c0-1.471 1.193-2.664 2.664-2.664h1000.992c1.47 0 2.66 1.193 2.66 2.664v2.667c0 25.088-20.4 45.496-45.49 45.496" fill="#fff" stroke="#5d7183" stroke-width="4"/><path d="m4.806 559.143139c-.366 0-.664.298-.664.665v2.726c0 23.951 19.485 43.437 43.436 43.437h915.39c23.98 0 43.5-19.513 43.5-43.496v-2.667c0-.367-.3-.665-.67-.665zm958.162 50.828h-915.39c-26.156 0-47.436-21.28-47.436-47.437v-2.726c0-2.573 2.092-4.665 4.664-4.665h1000.992c2.57 0 4.67 2.092 4.67 4.665v2.667c0 26.189-21.31 47.496-47.5 47.496z" fill="#5d7183" stroke="#5d7183" stroke-width="4"/><path d="m392.199 559.157139c1.945 5.65 7.264 9.545 13.429 9.545h199.348c6.165 0 11.484-3.895 13.431-9.545zm212.777 13.545h-199.348c-8.945 0-16.499-6.399-17.964-15.217-.096-.58.068-1.172.448-1.621.38-.448.938-.707 1.526-.707h231.33c.588 0 1.146.259 1.526.707.379.449.543 1.041.447 1.621-1.465 8.818-9.021 15.217-17.965 15.217z" fill="#5d7183"/><path d="m135.091 533.765139h740.427v-440.0749999h-740.427z" fill="#f0f9fc"/><g fill="#fff" transform="translate(134.598 93.589139)"><path d="m-248.247 529.224-54.559-25.391 1146.926-533.775 54.56 25.392z" mask="url(#a)"/><path d="m-81.213 606.961-91.973-42.804 1146.926-533.775 91.98 42.804z" mask="url(#a)"/></g><path d="m137.092 531.765139h736.426v-436.0739999h-736.426zm738.426 4h-740.426c-1.105 0-2-.896-2-2v-440.0739999c0-1.105.895-2 2-2h740.426c1.1 0 2 .895 2 2v440.0739999c0 1.104-.9 2-2 2z" fill="#5d7183"/><path d="m214.729 41.5701391v276.0299999c0 21.688 16.637 39.27 37.159 39.27h199.275 132.293l.17 54.684 82.581-55.054h71.321c22.075 0 40.008-17.82 40.142-39.895.203-33.367.459-76.278.459-81.086 0-24.939 0-169.0099999 0-193.9489999 0-21.688-16.637-39.26999999-37.159-39.26999999h-489.082c-20.522 0-37.159 17.58199999-37.159 39.26999999" fill="#fff"/><path d="m226.535 53.3761391v276.0299999c0 21.688 16.637 39.27 37.159 39.27h199.275 132.292l.171 54.684 82.58-55.055h71.321c22.076 0 40.009-17.819 40.143-39.894.203-33.367.458-76.278.458-81.086 0-24.939 0-169.0099999 0-193.9489999 0-21.688-16.636-39.27-37.158-39.27h-489.082c-20.522 0-37.159 17.582-37.159 39.27" fill="#bbdff5"/><path d="m251.888 4.30013911c-19.387 0-35.159 16.71899999-35.159 37.26999999v276.0299999c0 20.551 15.772 37.27 35.159 37.27h331.567c1.103 0 1.997.892 2 1.994l.159 50.96 79.483-52.988c.328-.22.715-.336 1.109-.336h71.322c20.904 0 38.014-17.005 38.142-37.907.171-28.096.458-75.989.458-81.073v-193.9499999c0-20.551-15.771-37.26999999-35.158-37.26999999zm331.737 409.25399989c-.322 0-.646-.078-.941-.236-.649-.346-1.057-1.022-1.059-1.758l-.164-52.69h-329.573c-21.592 0-39.159-18.513-39.159-41.27v-276.0299999c0-22.756 17.567-41.26999999 39.159-41.26999999h489.082c21.592 0 39.158 18.51399999 39.158 41.26999999v193.9499999c0 5.095-.287 52.997-.458 81.097-.14 23.094-19.046 41.883-42.142 41.883h-70.716l-82.077 54.718c-.335.223-.722.336-1.11.336z" fill="#5d7183"/><path d="m719.529 280.504139h-206.702c-20.71 0-37.5-16.789-37.5-37.5v-23c0-20.71 16.79-37.5 37.5-37.5h206.702c20.711 0 37.5 16.79 37.5 37.5v23c0 20.711-16.789 37.5-37.5 37.5" fill="#fff"/><g fill="#5d7183"><path d="m505.827 177.505139c-19.574 0-35.5 15.925-35.5 35.5v23c0 19.574 15.926 35.5 35.5 35.5h206.702c19.575 0 35.5-15.926 35.5-35.5v-23c0-19.575-15.925-35.5-35.5-35.5zm206.702 98h-206.702c-21.78 0-39.5-17.72-39.5-39.5v-23c0-21.781 17.72-39.5 39.5-39.5h206.702c21.78 0 39.5 17.719 39.5 39.5v23c0 21.78-17.72 39.5-39.5 39.5z"/><path d="m507.337 246.599139c-1.381 0-2.5-1.119-2.5-2.5v-39.189c0-1.381 1.119-2.5 2.5-2.5s2.5 1.119 2.5 2.5v39.189c0 1.381-1.119 2.5-2.5 2.5"/><path d="m521.192 240.860139c-.639 0-1.28-.244-1.767-.732l-27.712-27.712c-.976-.976-.976-2.559 0-3.535.976-.977 2.56-.977 3.535 0l27.712 27.711c.976.976.976 2.56 0 3.536-.488.488-1.128.732-1.768.732"/><path d="m526.931 227.005139h-39.189c-1.381 0-2.5-1.12-2.5-2.5 0-1.381 1.119-2.5 2.5-2.5h39.189c1.381 0 2.5 1.119 2.5 2.5 0 1.38-1.119 2.5-2.5 2.5"/><path d="m493.481 240.860139c-.64 0-1.28-.244-1.768-.732-.976-.976-.976-2.56 0-3.536l27.712-27.711c.975-.977 2.559-.977 3.535 0 .976.976.976 2.559 0 3.535l-27.712 27.712c-.487.488-1.128.732-1.767.732"/><path d="m558.02 246.599139c-1.381 0-2.5-1.119-2.5-2.5v-39.189c0-1.381 1.119-2.5 2.5-2.5s2.5 1.119 2.5 2.5v39.189c0 1.381-1.119 2.5-2.5 2.5"/><path d="m571.875 240.860139c-.639 0-1.279-.244-1.767-.732l-27.711-27.712c-.977-.976-.977-2.559 0-3.535.975-.977 2.559-.977 3.535 0l27.711 27.711c.976.976.976 2.56 0 3.536-.488.488-1.128.732-1.768.732"/><path d="m577.615 227.005139h-39.19c-1.381 0-2.5-1.12-2.5-2.5 0-1.381 1.119-2.5 2.5-2.5h39.19c1.38 0 2.5 1.119 2.5 2.5 0 1.38-1.12 2.5-2.5 2.5"/><path d="m544.164 240.860139c-.639 0-1.279-.244-1.767-.732-.977-.976-.977-2.56 0-3.536l27.711-27.711c.976-.977 2.558-.977 3.535 0 .976.976.976 2.559 0 3.535l-27.711 27.712c-.488.488-1.128.732-1.768.732"/><path d="m608.703 246.599139c-1.38 0-2.5-1.119-2.5-2.5v-39.189c0-1.381 1.12-2.5 2.5-2.5 1.381 0 2.5 1.119 2.5 2.5v39.189c0 1.381-1.119 2.5-2.5 2.5"/><path d="m622.559 240.860139c-.64 0-1.279-.244-1.768-.732l-27.711-27.712c-.976-.976-.976-2.559 0-3.535.977-.977 2.559-.977 3.536 0l27.711 27.711c.976.976.976 2.56 0 3.536-.489.488-1.128.732-1.768.732"/><path d="m628.298 227.005139h-39.189c-1.381 0-2.5-1.12-2.5-2.5 0-1.381 1.119-2.5 2.5-2.5h39.189c1.381 0 2.5 1.119 2.5 2.5 0 1.38-1.119 2.5-2.5 2.5"/><path d="m594.848 240.860139c-.64 0-1.279-.244-1.768-.732-.976-.976-.976-2.56 0-3.536l27.711-27.711c.977-.977 2.559-.977 3.536 0 .976.976.976 2.559 0 3.535l-27.711 27.712c-.489.488-1.128.732-1.768.732"/><path d="m660.336 246.599139c-1.381 0-2.5-1.119-2.5-2.5v-39.189c0-1.381 1.119-2.5 2.5-2.5s2.5 1.119 2.5 2.5v39.189c0 1.381-1.119 2.5-2.5 2.5"/><path d="m674.192 240.860139c-.64 0-1.28-.244-1.768-.732l-27.711-27.712c-.976-.976-.976-2.559 0-3.535.977-.977 2.559-.977 3.535 0l27.711 27.711c.977.976.977 2.56 0 3.536-.488.488-1.128.732-1.767.732"/><path d="m679.931 227.005139h-39.189c-1.381 0-2.5-1.12-2.5-2.5 0-1.381 1.119-2.5 2.5-2.5h39.189c1.381 0 2.5 1.119 2.5 2.5 0 1.38-1.119 2.5-2.5 2.5"/><path d="m646.481 240.860139c-.64 0-1.279-.244-1.768-.732-.976-.976-.976-2.56 0-3.536l27.711-27.711c.977-.977 2.559-.977 3.535 0 .977.976.977 2.559 0 3.535l-27.711 27.712c-.488.488-1.128.732-1.767.732"/><path d="m711.02 246.599139c-1.381 0-2.5-1.119-2.5-2.5v-39.189c0-1.381 1.119-2.5 2.5-2.5s2.5 1.119 2.5 2.5v39.189c0 1.381-1.119 2.5-2.5 2.5"/><path d="m724.875 240.860139c-.639 0-1.279-.244-1.767-.732l-27.711-27.712c-.977-.976-.977-2.559 0-3.535.976-.977 2.558-.977 3.535 0l27.711 27.711c.976.976.976 2.56 0 3.536-.488.488-1.128.732-1.768.732"/><path d="m730.615 227.005139h-39.19c-1.381 0-2.5-1.12-2.5-2.5 0-1.381 1.119-2.5 2.5-2.5h39.19c1.38 0 2.5 1.119 2.5 2.5 0 1.38-1.12 2.5-2.5 2.5"/><path d="m697.164 240.860139c-.639 0-1.279-.244-1.767-.732-.977-.976-.977-2.56 0-3.536l27.711-27.711c.976-.977 2.558-.977 3.535 0 .976.976.976 2.559 0 3.535l-27.711 27.712c-.488.488-1.128.732-1.768.732"/></g><path d="m573.007 445.492139c0-36.922-29.931-66.854-66.854-66.854-36.922 0-66.854 29.932-66.854 66.854s29.932 66.854 66.854 66.854c36.923 0 66.854-29.932 66.854-66.854" fill="#fff"/><path d="m579.897 452.382139c0-36.923-29.932-66.854-66.854-66.854-36.923 0-66.854 29.931-66.854 66.854 0 36.922 29.931 66.853 66.854 66.853 36.922 0 66.854-29.931 66.854-66.853" fill="#bbf9bc"/><path d="m506.153 380.638139c-35.761 0-64.854 29.094-64.854 64.854 0 35.761 29.093 64.854 64.854 64.854s64.854-29.093 64.854-64.854c0-35.76-29.093-64.854-64.854-64.854zm0 133.708c-37.966 0-68.854-30.888-68.854-68.854s30.888-68.854 68.854-68.854 68.854 30.888 68.854 68.854-30.888 68.854-68.854 68.854z" fill="#5d7183"/><path d="m502.421 467.136139c-.575 0-1.15-.219-1.589-.658l-20.212-20.211c-.878-.878-.878-2.3 0-3.178.878-.877 2.3-.877 3.178 0l18.623 18.622 37.55-37.55c.878-.878 2.3-.878 3.178 0 .877.878.877 2.3 0 3.178l-39.139 39.139c-.439.439-1.014.658-1.589.658" fill="#fff"/><path d="m361.791 243.202139 10.386 40.92c.691 2.722-1.366 5.367-4.175 5.367h-37.365c-2.808 0-4.865-2.645-4.174-5.367l10.386-40.92c.463-1.823-.316-3.729-1.914-4.721-5.966-3.703-9.834-9.649-9.834-16.355 0-11.229 10.843-20.331 24.219-20.331s24.219 9.102 24.219 20.331c0 6.706-3.869 12.652-9.834 16.355-1.598.992-2.377 2.898-1.914 4.721zm67.926-74.086h-3.274c-1.854 0-128.054 0-128.054 0-2.675 0-4.867-2.157-4.87-4.833 0-.03 0-.06 0-.091 0-41.403 25.555-76.3829999 55.801-76.3829999 28.537 0 52.092 28.7339999 54.753 67.0289999l17.824-.046c-2.3-47.682-33.581-80.5729999-72.577-80.5729999-40.544 0-72.304 39.5229999-72.304 89.9729999v.052c.002 2.682-2.137 4.872-4.819 4.872h-3.275c-2.689 0-4.87 2.18-4.87 4.87v123c0 2.689 2.181 4.869 4.87 4.869h160.795c2.69 0 4.87-2.18 4.87-4.869v-123c0-2.69-2.18-4.87-4.87-4.87z" fill="#fff"/><g fill="#5d7183"><path d="m343.532 198.007139c-12.252 0-22.22 8.223-22.22 18.331 0 5.807 3.24 11.148 8.889 14.655 2.353 1.46 3.477 4.238 2.798 6.913l-10.386 40.92c-.177.695-.025 1.418.415 1.984s1.104.89 1.821.89h37.365c.717 0 1.381-.324 1.821-.89s.591-1.289.415-1.984l-10.386-40.921c-.679-2.674.446-5.452 2.798-6.912 5.649-3.507 8.889-8.848 8.889-14.655 0-10.108-9.967-18.331-22.219-18.331zm18.682 87.693h-37.365c-1.96 0-3.775-.887-4.979-2.434-1.203-1.548-1.617-3.525-1.134-5.425l10.386-40.919c.248-.977-.166-1.994-1.03-2.53-6.75-4.19-10.78-10.939-10.78-18.054 0-12.313 11.762-22.331 26.22-22.331 14.457 0 26.219 10.018 26.219 22.331 0 7.114-4.03 13.864-10.78 18.054-.864.536-1.278 1.552-1.03 2.53l10.386 40.919c.482 1.901.068 3.878-1.135 5.425s-3.018 2.434-4.978 2.434zm-99.08-120.373c-1.583 0-2.87 1.287-2.87 2.87v123c0 1.583 1.287 2.87 2.87 2.87h160.795c1.582 0 2.87-1.287 2.87-2.87v-123c0-1.583-1.288-2.87-2.87-2.87h-131.328c-3.784 0-6.867-3.064-6.871-6.83 0-42.581 26.47-78.4759999 57.801-78.4759999 29.151 0 53.242 28.6839999 56.602 67.0239999l13.857-.036c-2.993-44.5-32.356-76.5779999-70.459-76.5779999-39.423 0-70.304 38.6419999-70.304 87.9729999.002 1.896-.712 3.63-2.011 4.93-1.284 1.285-2.991 1.993-4.808 1.993zm160.795 132.74h-160.795c-3.788 0-6.87-3.082-6.87-6.87v-123c0-3.788 3.082-6.87 6.87-6.87h3.274c.748 0 1.45-.291 1.978-.82.543-.543.842-1.271.841-2.05 0-51.627 32.638-92.0259999 74.304-92.0259999 40.907 0 72.27 34.6859999 74.575 82.4759999.026.546-.172 1.078-.548 1.474-.377.396-.898.621-1.444.623l-17.824.045c-.002 0-.004 0-.005 0-1.051 0-1.923-.813-1.996-1.861-2.581-37.151-25.262-65.1669999-52.758-65.1669999-29.163 0-53.801 34.0629999-53.801 74.3829999.002 1.652 1.29 2.923 2.871 2.923h131.328c3.788 0 6.87 3.082 6.87 6.87v123c0 3.788-3.082 6.87-6.87 6.87z"/><path d="m425.835 139.960139c-.43 0-.864-.139-1.23-.424-.87-.679-1.025-1.936-.345-2.807 4.729-6.058 6.647-13.93 5.005-20.543-.266-1.072.387-2.157 1.459-2.423 1.071-.268 2.157.387 2.423 1.459 1.961 7.897-.183 16.857-5.734 23.969-.395.504-.983.769-1.578.769"/><path d="m428.498 147.227139c-.624 0-1.239-.292-1.629-.839-.642-.899-.433-2.148.467-2.79l1.757-1.257c6.584-4.721 13.393-9.602 21.24-12.248 1.049-.356 2.181.21 2.534 1.256.353 1.047-.209 2.182-1.256 2.534-7.281 2.456-13.842 7.16-20.188 11.708l-1.765 1.264c-.352.251-.758.372-1.16.372"/><path d="m455.247 156.801139c-.26 0-.525-.051-.781-.159-6.043-2.568-15.312-5.3-25.147-3.729-1.092.176-2.117-.569-2.291-1.659-.174-1.091.569-2.117 1.66-2.291 10.773-1.72 20.816 1.224 27.343 3.997 1.016.432 1.49 1.607 1.058 2.623-.324.761-1.063 1.218-1.842 1.218"/><path d="m492.21 119.328139c.665.15 1.484.2 2.609.2 4.145 0 6.703-2.05 6.703-5.5 0-3.1-2.2-4.95-6.089-4.95-1.585 0-2.66.15-3.223.3zm-7.725-15.301c2.404-.399 5.781-.7 10.539-.7 4.809 0 8.237.9 10.539 2.7 2.201 1.701 3.684 4.501 3.684 7.801s-1.125 6.1-3.172 8c-2.66 2.45-6.6 3.551-11.205 3.551-1.022 0-1.944-.05-2.66-.15v12.05h-7.725z"/><path d="m527.923 122.928139-2.149-7.15c-.613-2-1.228-4.5-1.739-6.501h-.103c-.511 2.001-1.023 4.551-1.585 6.501l-2.047 7.15zm-8.749 5.701-2.455 8.65h-8.084l10.539-33.702h10.233l10.693 33.702h-8.391l-2.66-8.65z"/><path d="m544.961 129.429139c2.098 1.05 5.322 2.1 8.648 2.1 3.581 0 5.474-1.45 5.474-3.65 0-2.1-1.637-3.3-5.782-4.75-5.73-1.951-9.465-5.051-9.465-9.951 0-5.751 4.911-10.151 13.047-10.151 3.888 0 6.753.8 8.8 1.701l-1.739 6.15c-1.382-.65-3.838-1.601-7.214-1.601-3.377 0-5.015 1.501-5.015 3.251 0 2.15 1.945 3.1 6.396 4.75 6.089 2.2 8.953 5.301 8.953 10.051 0 5.65-4.451 10.45-13.916 10.45-3.94 0-7.828-1-9.773-2.05z"/><path d="m572.591 129.429139c2.098 1.05 5.32 2.1 8.647 2.1 3.581 0 5.474-1.45 5.474-3.65 0-2.1-1.637-3.3-5.782-4.75-5.729-1.951-9.465-5.051-9.465-9.951 0-5.751 4.912-10.151 13.047-10.151 3.888 0 6.753.8 8.8 1.701l-1.739 6.15c-1.382-.65-3.838-1.601-7.214-1.601-3.377 0-5.015 1.501-5.015 3.251 0 2.15 1.944 3.1 6.396 4.75 6.088 2.2 8.953 5.301 8.953 10.051 0 5.65-4.451 10.45-13.916 10.45-3.94 0-7.828-1-9.772-2.05z"/><path d="m605.54 137.279139-8.185-33.702h8.34l2.608 13.901c.768 4.001 1.484 8.351 2.047 11.751h.102c.563-3.65 1.381-7.701 2.251-11.851l2.916-13.801h8.29l2.762 14.201c.768 3.951 1.33 7.551 1.842 11.301h.103c.51-3.75 1.278-7.7 1.995-11.701l2.813-13.801h7.931l-8.903 33.702h-8.442l-2.916-14.501c-.665-3.399-1.227-6.55-1.637-10.4h-.102c-.614 3.8-1.177 7.001-1.995 10.4l-3.275 14.501z"/><path d="m651.641 120.528139c0 6.601 3.172 11.251 8.391 11.251 5.269 0 8.288-4.9 8.288-11.451 0-6.05-2.968-11.25-8.34-11.25-5.27 0-8.339 4.9-8.339 11.45zm24.916-.45c0 11.051-6.856 17.751-16.935 17.751-10.233 0-16.218-7.55-16.218-17.151 0-10.1 6.599-17.651 16.781-17.651 10.591 0 16.372 7.751 16.372 17.051z"/><path d="m689.401 118.528139h3.069c3.889 0 6.191-1.9 6.191-4.85 0-3.1-2.149-4.651-5.73-4.7-1.894 0-2.968.15-3.53.25zm-7.726-14.501c2.507-.399 6.241-.7 10.386-.7 5.116 0 8.697.75 11.153 2.651 2.047 1.6 3.172 3.95 3.172 7.05 0 4.3-3.12 7.25-6.088 8.3v.151c2.404.949 3.735 3.2 4.605 6.3 1.074 3.8 2.149 8.2 2.814 9.5h-7.981c-.564-.95-1.382-3.7-2.406-7.85-.92-4.2-2.404-5.35-5.576-5.401h-2.353v13.251h-7.726z"/><path d="m719.843 131.529139c.665.15 1.739.15 2.711.15 7.061.05 11.665-3.75 11.665-11.8.052-7.001-4.143-10.701-10.847-10.701-1.739 0-2.864.15-3.529.3zm-7.828-27.502c2.865-.45 6.6-.7 10.539-.7 6.549 0 10.796 1.151 14.121 3.6 3.581 2.601 5.833 6.751 5.833 12.702 0 6.45-2.405 10.9-5.73 13.65-3.633 2.95-9.159 4.351-15.912 4.351-4.042 0-6.907-.25-8.851-.5z"/></g></g></svg>