<svg height="556" viewBox="0 0 590 556" width="590" xmlns="http://www.w3.org/2000/svg"><g fill="none" fill-rule="evenodd" transform="translate(2 2)"><g transform="translate(167)"><path d="m317.372969 61.441858 60.001 306.109c1.461 7.452-3.415 14.681-10.89 16.146l-275.8020004 54.061c-7.475 1.465-14.718-3.388-16.179-10.84l-9.351-47.708-4.927-26.338-56.98000003-290.695c-1.461-7.452 3.415-14.68 10.89000003-16.146l217.0290004-42.54 86.195 57.888z" fill="#e5e5e5"/><path d="m65.2819686 379.874858-4.811-25.689-55.57900003-283.544c-1.424-7.268 3.178-14.289 10.28000003-15.681l206.1880004-40.415 3.573 2.468 10.533 53.738c1.538 7.847 9.147 12.962 16.994 11.423l43.024-8.433c5.961-1.168 11.74 2.717 12.908 8.677l56.275 287.095c1.424 7.268-3.178 14.289-10.28 15.681l-264.5450004 51.854c-7.102 1.392-14.014-3.372-15.438-10.64z" fill="#fff"/><path d="m314.792969 61.248858c6.418 32.745 12.837 65.491 19.256 98.237 10.6 54.077 21.199 108.154 31.799 162.231 2.804 14.304 5.608 28.608 8.411 42.912 1.363 6.949.187 14.994-7.933 17.141-3.779.999-7.755 1.52-11.588 2.272-48.172 9.442-96.345 18.885-144.518 28.327-25.776 5.053-51.552 10.105-77.328 15.158-13.637 2.673-27.265 5.762-40.9760004 8.031-4.747.786-9.234-.381-12.428-4.265-2.934-3.568-3.301-8.752-4.16-13.134-2.451-12.504-4.902-25.008-7.353-37.513-2.262-11.539-4.297-23.122-6.558-34.661-8.536-43.548-17.073-87.097-25.609-130.645-9.305-47.476-18.611-94.951-27.91700003-142.427-.762-3.888-1.686-7.783-2.293-11.7-1.321-8.51 3.555-13.993 11.23300003-15.498 18.065-3.541 36.129-7.082 54.194-10.623 49.8730004-9.776 99.7450004-19.551 149.6180004-29.327 3.326-.652 6.653-1.304 9.979-1.956-.626-.088-1.252-.175-1.878-.263 25.137 16.882 50.274 33.764 75.41 50.646 1.718 1.153 10.353 5.748 10.639 7.057.309 1.412 5.159.215 4.83-1.294-.279-1.277-4.28-3.071-5.242-3.717-4.797-3.222-9.594-6.443-14.391-9.665-13.024-8.747-26.049-17.494-39.073-26.241-8.847-5.942-17.525-12.376-26.645-17.895-2.909-1.76-6.418-.255-9.622.373-54.089 10.602-108.177 21.204-162.2660004 31.806-15.985 3.134-32.057 5.984-47.983 9.406-10.20400003 2.192-15.23300003 10.325-13.29500003 20.211 1.184 6.039 2.368 12.078 3.551 18.118 11.03900003 56.314 22.07700003 112.628 33.11600003 168.943 7.388 37.695 15.003 75.353 22.066 113.111 1.861 9.951 3.767 19.889 5.715 29.824 1.497 7.641 2.995 15.282 4.493 22.923.916 4.673 1.285 10.549 3.969 14.616 4.946 7.492 13.08 6.904 20.641 5.422 7.3550004-1.441 14.7110004-2.883 22.0660004-4.325l173.91-34.089c21.936-4.299 43.871-8.599 65.807-12.899 3.805-.745 7.791-1.249 11.523-2.338 7.858-2.294 12.891-9.331 11.651-17.527-.157-1.039-.407-2.073-.609-3.104-9.153-46.698-18.306-93.396-27.46-140.093-10.053-51.287-20.105-102.574-30.158-153.861-.588-2.999-1.176-5.999-1.764-8.999-.274-1.398-5.131-.239-4.83 1.294" fill="#5d7183" stroke="#587185" stroke-width="6"/><path d="m230.850969 2.678858 11.372 58.02c1.539 7.847 9.147 12.962 16.995 11.423l58.019-11.372z" fill="#fff" stroke="#5d7183" stroke-width="10"/><path d="m230.435969 2.325858c3.632 18.527 7.263 37.053 10.894 55.58 2.01 10.253 9.675 16.01 20.233 14.108 9.605-1.731 19.166-3.757 28.744-5.634 9.506-1.864 19.013-3.727 28.52-5.591.281-.055 3.792-1.151 2.674-1.902-25.14-16.9-50.28-33.8-75.42-50.7-3.655-2.457-7.31-4.914-10.966-7.371-1.209-.813-5.43 1.12-4.529 1.726 25.141 16.9 50.281 33.8 75.421 50.7 3.655 2.457 7.31 4.914 10.965 7.371.892-.634 1.783-1.268 2.674-1.903-17.877 3.505-35.753 7.009-53.63 10.513-4.456.873-8.566 1.766-12.846-.803-4.258-2.557-6.026-6.787-6.93-11.401-1.922-9.807-3.845-19.613-5.767-29.419-1.736-8.856-3.471-17.712-5.207-26.568-.24-1.225-5.1-.083-4.83 1.294" fill="#5d7183"/></g><path d="m581.624956 172.765174c-7.737 28.056-31.778 52.343-62.697 47.634-1.433-.219-5.654 2.09-2.991 2.495 33.721 5.136 61.85-19.403 70.505-50.783.439-1.593-4.388-.903-4.817.654" fill="#5d7183" stroke="#587184" stroke-width="3"/><path d="m208.305713 263.24123c-29.36-11.048-53.002-34.411-64.437-63.619-.58-1.482-5.344-.019-4.83 1.294 11.597 29.621 35.608 53.283 65.376 64.485 1.295.487 5.686-1.485 3.891-2.16" fill="#5d7183" stroke="#587184" stroke-width="3"/><path d="m337.506 529.150845c51.412-3.294 103.869-6.526 153.948 3.557 7.338 1.478 16.319 5.319 15.02 11.417-55.581 9.07-147.979 8.553-222.135 9.063-27.3.188-50.546-3.176-76.318-11.465-.007-1.576-.014-3.151-.021-4.726 43.548-4.702 86-5.058 129.506-7.846" fill="#eee"/><g fill="#5d7183"><path d="m383.766 410.651845c-1.387 21.774-6.43 51.624-31.75 57.223-21.113 4.668-45.053-6.925-59.385-21.961-1.09-1.145-5.67.611-4.498 1.84 15.821 16.6 41.775 27.778 64.771 22.292 27.456-6.549 34.114-35.492 35.678-60.049.117-1.827-4.719-.854-4.816.655" stroke="#587184" stroke-width="3"/><path d="m405.818 407.645845c-4.029 50.801-29.282 99.891-70.4 130.483-2.137 1.59 2.678 1.524 3.838.662 41.513-30.886 67.307-80.47 71.378-131.8.144-1.814-4.696-.862-4.816.655" stroke="#587184" stroke-width="3"/><path d="m304.122558 196.416016c-1.937.09-3.929-.571-5.495-1.998-3.072-2.799-3.36-7.504-.643-10.486 1.325-1.455 3.158-2.286 5.156-2.338 1.971-.052 3.869.66 5.345 2.004 3.073 2.799 3.362 7.504.643 10.487-1.331 1.463-3.144 2.244-5.006 2.331"/><path d="m408.686558 185.823016c-1.936.09-3.929-.571-5.495-1.998-3.071-2.799-3.36-7.504-.643-10.486 2.718-2.984 7.429-3.132 10.5-.334 1.477 1.344 2.362 3.168 2.493 5.136.133 1.997-.524 3.897-1.849 5.351-1.331 1.462-3.143 2.244-5.006 2.331"/><path d="m386.959558 214.365016c-.212 5.518-3.558 12.917-6.686 16.622-7.481 8.86-19.54 13.122-30.86 10.221-4.926-1.262-24.681-12.388-19.272-19.427 6.199-8.065 22.544-6.902 31.46-8.889 5.05-1.126 9.96-2.799 14.857-4.469 8.128-2.77 10.699.754 10.501 5.942"/></g><path d="m288.624558 224.462016c.236 9.064-5.084 16.555-11.882 16.732-6.798.176-12.5-7.028-12.735-16.092-.236-9.064 5.084-16.555 11.882-16.732 6.798-.176 12.5 7.028 12.735 16.092" fill="#f4cac1"/><path d="m450.363558 207.561016c-.304 9.062-6.06 16.223-12.856 15.995s-12.06-7.759-11.756-16.821 6.06-16.223 12.856-15.995c6.797.228 12.06 7.759 11.756 16.821" fill="#f4cac1"/><g fill="#5d7183" stroke="#587184" stroke-width="3" transform="translate(0 265)"><path d="m152.481698 42.3c-29.493 0-58.9859999 0-88.4799999 0-4.187 0-8.375 0-12.562 0-1.879 0-5.105 2.834-1.853 2.834h88.4789999 12.563c1.878 0 5.104-2.834 1.853-2.834"/><path d="m129.375698 0c-36.7899999 0-73.5789999 0-110.3679999 0-5.255 0-10.50999999 0-15.76499999 0-1.878 0-5.105 2.835-1.853 2.835h110.36699989 15.765c1.879 0 5.105-2.835 1.854-2.835"/><path d="m96.3716981 77.669c-21.999 0-43.998 0-65.996 0-1.879 0-5.105 2.835-1.854 2.835h65.997c1.879 0 5.105-2.835 1.853-2.835"/></g></g></svg>